{"glyphs":{"0":{"ha":703,"x_min":56,"x_max":647,"o":"m 56 452 q 132 874 57 745 q 358 1012 206 1004 q 476 975 425 1012 q 558 882 528 939 q 609 748 589 826 q 637 600 629 670 q 647 452 644 530 q 615 233 647 345 q 517 37 583 121 q 370 -46 452 -46 q 56 452 56 -46 m 339 907 q 281 886 307 901 q 238 852 255 871 q 209 802 221 833 q 191 744 197 770 q 180 675 184 718 q 174 603 175 633 q 170 523 172 572 q 165 442 168 473 q 172 323 165 380 q 197 206 179 267 q 255 107 216 145 q 350 64 294 69 q 489 180 434 64 q 544 416 544 297 q 339 907 544 902 z "},"1":{"ha":490,"x_min":0,"x_max":490,"o":"m 62 4 l 62 76 q 143 90 95 80 q 218 103 191 99 q 222 300 222 201 q 221 488 222 362 q 220 677 220 613 q 224 905 220 827 q 43 791 100 834 l 0 836 q 75 897 22 853 q 170 977 127 941 q 235 1036 212 1013 q 279 1033 256 1034 q 324 1029 302 1032 q 332 453 332 872 q 336 95 332 203 q 395 85 349 94 q 468 73 442 76 l 490 1 q 372 1 422 1 q 238 1 321 1 q 108 2 155 1 q 62 4 61 3 z "},"2":{"ha":549,"x_min":0,"x_max":551,"o":"m 509 94 l 551 4 q 232 1 449 1 q 1 0 15 0 q 1 38 1 11 q 0 81 0 65 q 85 189 26 126 q 205 313 145 252 q 322 445 264 373 q 416 606 380 517 q 453 788 453 694 q 411 885 453 848 q 309 922 369 922 q 181 866 240 922 q 99 694 122 810 l 38 716 q 124 921 43 848 q 311 994 205 994 q 473 935 406 994 q 541 768 541 875 q 514 596 541 680 q 435 439 487 513 q 339 314 384 366 q 227 193 294 262 q 133 95 160 125 q 212 92 179 92 q 317 94 245 92 q 425 96 389 96 q 509 94 457 96 z "},"3":{"ha":560,"x_min":0,"x_max":506,"o":"m 0 43 l 11 106 q 73 94 22 104 q 163 77 123 83 q 235 72 203 72 q 356 130 312 72 q 400 266 400 189 q 328 448 400 372 q 118 525 255 525 q 85 524 96 525 l 85 590 q 123 589 98 589 q 325 632 247 589 q 403 770 403 675 q 362 886 403 842 q 256 929 321 929 q 192 926 227 929 q 117 917 157 922 q 65 910 76 911 l 43 971 q 96 986 60 975 q 154 1002 133 997 q 208 1013 175 1008 q 269 1017 240 1017 q 434 945 373 1017 q 495 746 495 872 q 456 614 495 666 q 339 551 418 563 q 463 444 420 518 q 506 270 506 370 q 452 73 506 155 q 288 -9 397 -9 q 0 43 129 -9 z "},"4":{"ha":597,"x_min":0,"x_max":570,"o":"m 556 395 l 570 334 q 469 323 499 326 q 477 165 472 260 q 483 9 481 71 q 437 -33 471 -33 q 389 -12 412 -33 q 361 37 366 8 q 370 313 362 79 q 301 311 327 311 q 176 315 260 311 q 52 320 91 320 q 0 317 33 320 q 3 362 3 350 q 2 389 3 370 q 1 416 1 407 q 368 982 228 798 q 483 964 410 982 q 475 688 480 901 q 467 401 471 476 q 556 395 526 399 m 100 412 l 373 404 q 381 633 377 481 q 388 863 385 785 q 227 625 332 806 q 100 412 122 444 z "},"5":{"ha":593,"x_min":0,"x_max":566,"o":"m 538 963 l 553 902 q 401 890 487 890 q 239 886 274 890 q 186 555 218 730 q 262 563 225 563 q 473 469 381 563 q 566 251 566 374 q 475 52 566 134 q 251 -31 384 -31 q 0 54 122 -31 q 21 98 1 56 q 60 140 41 140 q 77 133 69 140 q 254 62 171 62 q 392 129 338 62 q 446 278 446 195 q 395 410 446 355 q 247 464 345 464 q 180 458 212 464 q 121 488 153 473 q 66 514 88 503 q 118 758 98 636 q 172 977 138 880 q 347 972 220 972 q 538 963 475 972 z "},"6":{"ha":621,"x_min":56,"x_max":567,"o":"m 537 982 l 560 921 q 183 557 243 785 q 293 593 237 593 q 488 488 410 593 q 567 220 567 382 q 496 34 567 103 q 315 -35 425 -35 q 134 40 212 -35 q 56 240 56 115 q 59 377 56 319 q 74 505 62 435 q 106 627 85 575 q 162 734 126 678 q 248 833 198 791 q 371 915 298 876 q 537 982 444 954 m 153 279 q 195 111 153 167 q 300 54 237 54 q 415 99 366 54 q 464 222 464 144 q 410 422 464 342 q 278 502 355 502 q 218 489 243 502 q 182 460 194 476 q 163 409 170 444 q 155 351 156 374 q 153 279 153 327 z "},"7":{"ha":540,"x_min":-14,"x_max":540,"o":"m 168 -11 l 62 20 l 429 918 q 0 937 113 928 l -14 998 q 274 1010 81 1009 q 540 1016 467 1010 l 533 898 l 168 -11 z "},"8":{"ha":686,"x_min":56,"x_max":632,"o":"m 632 273 q 560 54 632 125 q 340 -18 488 -18 q 56 278 56 -18 q 99 464 56 384 q 218 556 142 544 q 102 613 141 557 q 62 751 62 669 q 132 952 62 879 q 331 1025 202 1025 q 544 958 467 1025 q 621 749 621 890 q 582 610 621 666 q 465 553 543 555 q 588 460 544 541 q 632 273 632 378 m 355 80 q 481 139 431 80 q 532 279 532 198 q 476 420 532 361 q 327 480 420 479 q 205 404 245 456 q 164 286 164 351 q 218 142 164 205 q 355 80 273 80 m 355 951 q 217 891 264 944 q 170 769 170 838 q 215 647 170 699 q 336 595 260 595 q 471 644 425 597 q 517 757 517 690 q 473 880 517 823 q 355 951 429 937 z "},"9":{"ha":608,"x_min":42,"x_max":553,"o":"m 71 -26 l 49 35 q 425 399 365 170 q 315 362 368 362 q 120 467 198 362 q 42 736 42 572 q 113 922 42 853 q 293 990 183 990 q 475 915 397 990 q 553 715 553 840 q 550 578 553 636 q 535 450 547 519 q 503 329 524 381 q 447 220 483 277 q 361 122 411 164 q 237 41 311 80 q 71 -26 164 3 m 456 677 q 413 846 456 789 q 308 902 370 902 q 193 857 241 902 q 144 734 144 812 q 198 534 144 614 q 331 454 252 454 q 391 467 366 454 q 427 496 415 480 q 446 547 439 513 q 454 606 453 582 q 456 677 456 629 z "}," ":{"ha":388,"x_min":0,"x_max":0,"o":""},"!":{"ha":252,"x_min":56,"x_max":197,"o":"m 152 233 l 91 247 q 56 958 84 336 q 103 1010 61 1010 q 153 987 130 1010 q 178 930 176 964 q 168 612 174 857 q 152 233 163 366 m 111 157 q 172 125 148 157 q 197 53 197 94 q 182 5 197 23 q 144 -14 168 -14 q 84 18 106 -14 q 62 91 62 49 q 75 139 62 121 q 111 157 88 157 z "},"\"":{"ha":361,"x_min":27,"x_max":334,"o":"m 119 715 l 58 730 l 27 948 q 43 989 30 975 q 75 1002 57 1002 q 125 979 102 1002 q 151 922 149 956 l 119 715 m 302 715 l 241 730 l 212 948 q 258 1002 217 1002 q 309 979 285 1002 q 334 922 332 956 l 302 715 z "},"#":{"ha":844,"x_min":0,"x_max":845,"o":"m 14 330 l 0 391 l 184 399 l 239 590 l 113 590 q 64 618 84 595 q 45 665 45 640 q 85 712 45 700 q 271 696 176 703 q 358 972 340 928 l 442 972 q 351 690 399 857 q 585 677 425 685 q 680 977 656 918 l 762 977 q 667 673 728 894 l 830 661 l 845 600 q 644 589 780 594 l 598 416 l 685 420 q 742 396 719 419 q 765 346 765 373 q 751 315 765 328 q 711 298 738 301 q 571 304 621 301 q 491 11 515 90 q 441 4 473 4 l 393 4 q 409 56 397 16 q 442 174 420 95 q 480 308 464 252 l 254 317 q 221 194 240 267 q 191 76 202 121 q 171 7 179 31 q 119 0 153 0 l 72 0 q 164 323 80 23 l 14 330 m 324 586 l 275 403 l 510 412 l 559 587 q 324 586 480 586 z "},"$":{"ha":648,"x_min":27,"x_max":621,"o":"m 290 1124 l 351 1111 l 358 1031 q 583 952 448 1013 l 567 898 q 365 947 448 936 q 387 568 381 694 q 557 429 494 528 q 621 222 621 330 q 559 60 621 125 q 400 -7 498 -4 q 401 -34 400 -16 q 401 -61 401 -52 q 354 -103 389 -103 q 307 -83 330 -103 q 279 -35 285 -64 q 282 1 279 -23 q 52 77 117 24 l 71 153 q 286 91 180 95 q 296 486 293 241 q 97 604 167 521 q 27 785 27 688 q 96 962 27 882 q 263 1042 165 1042 q 292 1040 282 1042 q 291 1083 292 1055 q 290 1124 290 1111 m 294 949 q 193 906 235 949 q 151 800 151 863 q 188 685 151 741 q 297 597 225 629 q 294 949 297 722 m 399 103 q 474 151 448 122 q 500 229 500 179 q 472 346 500 285 q 399 445 444 407 l 399 103 z "},"%":{"ha":914,"x_min":0,"x_max":916,"o":"m 739 1048 l 811 1000 q 517 512 784 939 q 217 3 251 85 q 170 -20 198 -20 q 123 1 142 -20 q 103 50 103 22 q 111 81 103 65 q 413 524 176 163 q 739 1048 650 884 m 479 183 q 548 344 479 270 q 705 418 617 418 q 850 351 785 418 q 916 199 916 283 q 856 37 916 107 q 705 -34 796 -34 q 548 28 617 -34 q 479 183 479 90 m 704 330 q 607 286 651 330 q 563 189 563 243 q 605 96 563 134 q 704 58 647 58 q 797 99 758 58 q 836 198 836 140 q 795 289 836 248 q 704 330 755 330 m 0 846 q 69 1007 0 933 q 227 1081 138 1081 q 372 1014 307 1081 q 437 863 437 947 q 377 700 437 770 q 227 629 317 629 q 69 691 138 629 q 0 846 0 753 m 225 991 q 127 949 172 991 q 83 852 83 906 q 125 759 83 798 q 225 720 168 720 q 318 762 279 720 q 357 861 357 803 q 317 951 357 910 q 225 991 277 991 z "},"&":{"ha":773,"x_min":27,"x_max":773,"o":"m 594 726 l 662 720 q 680 538 666 694 q 707 540 681 538 q 745 541 732 541 q 757 540 757 541 q 773 457 773 507 l 773 449 l 689 449 q 693 380 693 415 q 609 121 693 224 q 355 0 525 18 q 285 6 321 0 q 203 32 248 12 q 122 81 157 52 q 60 162 87 110 q 27 281 33 214 q 58 420 27 355 q 149 519 90 484 q 49 703 49 597 q 134 873 49 804 q 332 943 218 943 q 468 922 418 943 l 448 871 q 366 876 414 876 q 214 836 277 876 q 151 708 151 795 q 448 529 151 529 q 527 531 475 529 q 605 533 579 533 q 594 726 595 614 m 602 448 l 258 463 q 142 290 142 376 q 207 160 142 217 q 353 96 271 103 q 534 193 460 96 q 609 397 609 290 q 602 448 609 423 z "},"'":{"ha":178,"x_min":27,"x_max":151,"o":"m 119 715 l 58 730 l 27 948 q 43 989 30 975 q 75 1002 57 1002 q 125 979 102 1002 q 151 922 149 956 l 119 715 z "},"(":{"ha":273,"x_min":56,"x_max":245,"o":"m 156 1034 l 216 1016 q 141 488 141 670 q 151 352 141 422 q 171 232 160 282 q 205 83 182 182 q 245 -90 229 -16 q 203 -152 244 -152 q 170 -140 187 -152 q 144 -106 152 -127 q 124 -16 138 -83 q 103 81 110 50 q 85 171 96 111 q 69 271 75 231 q 60 363 64 311 q 56 464 56 416 q 156 1034 56 659 z "},")":{"ha":273,"x_min":27,"x_max":218,"o":"m 58 1016 l 118 1034 q 218 464 218 659 q 216 385 218 425 q 208 298 214 346 q 197 222 201 251 q 181 136 193 194 q 165 60 170 77 q 146 -27 161 42 q 129 -106 132 -96 q 71 -152 110 -152 q 41 -136 53 -152 q 27 -90 28 -121 q 67 83 43 -16 q 102 232 91 182 q 122 352 113 282 q 132 488 132 422 q 58 1016 132 675 z "},"*":{"ha":494,"x_min":0,"x_max":495,"o":"m 43 975 l 85 1010 l 224 880 q 220 958 224 909 q 216 1027 216 1006 q 217 1054 216 1046 l 278 1040 q 273 973 278 1017 q 267 907 267 929 q 311 954 281 921 q 367 1015 340 987 q 414 1055 393 1042 l 453 1002 q 385 935 442 991 q 304 852 327 878 q 382 862 324 853 q 457 872 439 871 q 477 829 469 850 q 489 786 484 808 q 495 757 494 764 q 405 770 473 758 q 316 783 336 781 q 404 712 339 762 q 490 643 468 662 q 463 622 475 631 q 446 610 452 613 q 425 599 439 606 q 399 585 410 591 q 339 665 380 605 q 279 745 298 724 q 290 665 279 735 q 302 585 301 594 l 293 585 q 189 595 240 586 l 199 764 q 147 676 189 750 q 79 585 106 602 q 50 604 60 593 q 27 642 41 616 q 0 690 14 669 q 127 777 68 723 q 67 789 113 779 q 14 800 22 799 l 0 861 q 7 862 1 861 q 15 863 12 863 q 91 857 35 863 q 164 852 146 852 q 106 909 152 865 q 43 975 60 954 z "},"+":{"ha":616,"x_min":0,"x_max":617,"o":"m 241 774 l 302 761 q 315 628 305 732 q 328 499 326 524 l 536 511 q 593 487 570 510 q 617 437 617 464 q 604 406 617 419 q 563 389 590 392 q 338 403 503 392 q 350 290 340 373 q 363 152 359 208 q 316 110 351 110 q 269 130 292 110 q 241 178 247 149 q 243 281 243 213 q 240 407 243 296 l 14 419 l 0 480 l 237 494 q 236 602 236 530 q 241 774 236 697 z "},",":{"ha":227,"x_min":27,"x_max":199,"o":"m 30 -163 l 27 -119 q 125 -27 125 -85 q 119 4 125 -18 q 94 1 100 1 q 53 36 68 1 q 38 103 38 71 q 50 151 38 133 q 85 170 62 170 q 168 110 137 170 q 199 -9 199 50 q 157 -116 199 -73 q 30 -163 115 -159 z "},"-":{"ha":587,"x_min":27,"x_max":560,"o":"m 42 404 l 27 465 l 479 496 q 536 471 513 495 q 560 420 560 448 q 547 389 560 403 q 506 373 533 376 l 42 404 z "},".":{"ha":190,"x_min":27,"x_max":163,"o":"m 76 170 q 138 138 113 170 q 163 65 163 106 q 149 17 163 35 q 110 -1 134 -1 q 50 30 72 -1 q 27 103 27 61 q 40 151 27 133 q 76 170 53 170 z "},"/":{"ha":623,"x_min":0,"x_max":624,"o":"m 563 1147 l 624 1124 q 370 504 572 948 q 114 -118 167 60 q 66 -141 95 -141 q 20 -120 39 -141 q 0 -71 0 -99 q 124 244 0 -11 q 391 780 248 499 q 563 1147 534 1061 z "},":":{"ha":190,"x_min":27,"x_max":163,"o":"m 76 165 q 138 134 113 165 q 163 61 163 102 q 149 13 163 31 q 110 -5 134 -5 q 50 27 72 -5 q 27 99 27 60 q 40 147 27 129 q 76 165 53 165 m 76 688 q 138 656 113 688 q 163 583 163 624 q 149 535 163 553 q 110 517 134 517 q 50 548 72 517 q 27 621 27 579 q 40 669 27 651 q 76 688 53 688 z "},";":{"ha":227,"x_min":27,"x_max":199,"o":"m 85 688 q 147 656 122 688 q 172 583 172 624 q 158 535 172 553 q 119 517 144 517 q 60 548 81 517 q 38 621 38 579 q 50 669 38 651 q 85 688 62 688 m 30 -167 l 27 -123 q 101 -85 77 -107 q 125 -33 125 -64 q 119 0 125 -22 q 38 99 38 0 q 50 147 38 129 q 85 165 62 165 q 168 106 137 165 q 199 -14 199 46 q 157 -120 199 -77 q 30 -167 115 -163 z "},"<":{"ha":823,"x_min":0,"x_max":823,"o":"m 811 84 l 815 -3 q 532 93 621 61 q 292 192 444 125 q 0 342 141 259 q 11 445 0 396 q 416 601 171 492 q 803 754 662 709 l 823 677 q 511 530 749 646 q 136 370 273 414 q 473 208 212 312 q 811 84 735 104 z "},"=":{"ha":826,"x_min":27,"x_max":799,"o":"m 62 635 l 49 696 q 410 711 176 705 q 718 722 643 718 q 775 697 751 720 q 799 647 799 674 q 785 616 799 629 q 745 600 772 602 q 62 635 155 628 m 42 264 l 27 326 q 718 362 163 336 q 775 338 751 361 q 799 288 799 315 q 785 256 799 270 q 745 240 772 243 q 418 250 662 244 q 42 264 175 255 z "},">":{"ha":823,"x_min":0,"x_max":823,"o":"m 8 -3 l 12 84 q 350 208 88 104 q 688 370 612 312 q 313 530 551 414 q 0 677 75 646 l 20 754 q 407 601 161 709 q 812 445 652 492 q 823 342 823 396 q 531 192 682 259 q 291 93 380 125 q 8 -3 202 61 z "},"?":{"ha":524,"x_min":0,"x_max":524,"o":"m 83 700 l 22 713 q 0 815 0 769 q 63 943 0 898 q 218 987 126 987 q 439 908 355 987 q 524 690 524 829 q 500 588 524 632 q 444 515 477 544 q 377 458 411 487 q 317 383 343 429 q 288 278 292 338 q 240 236 275 236 q 193 259 214 236 q 165 323 171 282 q 193 425 165 380 q 259 500 220 469 q 337 561 298 530 q 403 637 376 591 q 430 742 430 684 q 365 859 430 815 q 220 903 300 903 q 112 871 156 903 q 68 777 68 838 q 83 700 68 741 m 217 164 q 278 132 254 164 q 302 60 302 100 q 288 12 302 30 q 250 -7 274 -7 q 190 24 212 -7 q 168 98 168 56 q 181 146 168 127 q 217 164 194 164 z "},"@":{"ha":1088,"x_min":27,"x_max":1061,"o":"m 426 678 q 539 623 502 678 q 576 486 576 568 q 572 404 576 453 l 568 355 q 671 297 616 297 q 817 393 750 297 q 883 585 883 490 q 788 841 883 735 q 536 947 693 947 q 247 806 373 947 q 121 452 121 665 q 243 164 121 269 q 551 60 366 60 q 951 186 758 60 q 990 197 970 197 q 1040 179 1019 197 q 1061 134 1061 161 q 949 33 1061 81 q 727 -41 838 -16 q 574 -65 616 -65 q 184 79 342 -65 q 27 477 27 224 q 172 888 27 720 q 528 1057 317 1057 q 677 1031 604 1057 q 814 955 750 1005 q 918 819 878 905 q 962 623 958 732 q 939 433 964 514 q 869 309 913 351 q 778 245 825 266 q 684 225 731 225 q 536 277 601 225 q 439 237 494 237 q 309 306 363 237 q 254 453 254 374 q 304 608 254 538 q 426 678 355 678 m 445 308 q 513 403 513 308 q 490 530 513 473 q 418 586 468 586 q 351 548 378 586 q 323 468 323 510 q 361 359 323 410 q 445 308 400 308 z "},"A":{"ha":730,"x_min":0,"x_max":731,"o":"m 316 983 l 419 977 q 575 501 457 808 q 731 42 693 194 q 718 -17 731 3 q 684 -37 704 -37 q 650 -22 666 -37 q 629 18 635 -8 q 551 256 617 77 q 199 300 271 292 q 156 141 182 251 q 115 -11 130 31 q 69 -35 95 -35 q 20 -10 41 -35 q 0 52 0 15 q 157 518 43 210 q 316 983 271 826 m 363 846 q 213 365 336 682 l 365 365 q 537 358 468 365 q 363 846 397 658 z "},"B":{"ha":674,"x_min":56,"x_max":620,"o":"m 56 35 l 62 990 q 179 1040 77 1040 q 351 1015 273 1040 q 484 931 430 990 q 537 789 537 872 q 505 663 537 724 q 427 585 473 602 q 567 480 514 572 q 620 262 620 388 q 552 113 620 176 q 394 22 484 50 q 212 -5 304 -5 q 56 35 99 -5 m 167 510 q 164 134 167 416 q 269 88 205 88 q 431 158 353 88 q 510 308 510 228 q 444 463 510 407 q 273 518 377 518 q 167 510 203 518 m 164 610 l 248 612 q 382 663 335 612 q 429 784 429 713 q 381 908 429 856 q 250 960 334 960 q 160 944 212 960 q 163 739 163 861 q 164 610 164 617 z "},"C":{"ha":732,"x_min":56,"x_max":719,"o":"m 677 895 l 623 833 q 414 911 517 911 q 297 879 346 911 q 223 800 248 846 q 184 684 198 754 q 166 562 170 613 q 163 441 163 510 q 188 287 163 373 q 273 126 213 201 q 411 52 332 52 q 673 141 496 52 q 719 56 690 115 q 414 -62 548 -62 q 255 -9 327 -62 q 142 125 183 43 q 78 295 100 206 q 56 464 56 384 q 69 635 56 552 q 115 803 83 719 q 214 939 148 887 q 370 990 279 990 q 533 963 449 990 q 677 895 617 936 z "},"D":{"ha":743,"x_min":56,"x_max":689,"o":"m 56 8 l 60 987 q 525 833 361 985 q 689 391 689 682 q 640 220 689 297 q 515 96 591 142 q 349 25 438 50 q 174 0 260 0 q 56 8 119 0 m 157 91 l 180 91 q 330 109 258 91 q 463 164 401 127 q 560 265 524 201 q 597 414 597 330 q 528 645 597 528 q 363 835 460 762 q 183 907 266 907 q 149 903 165 907 q 157 91 149 822 z "},"E":{"ha":635,"x_min":56,"x_max":609,"o":"m 572 61 l 586 0 q 394 -5 533 0 q 193 -9 255 -9 q 56 0 92 -9 q 72 499 69 149 q 90 987 75 849 q 334 981 136 983 q 594 968 533 978 l 609 907 q 365 882 548 897 q 172 865 182 867 q 178 738 174 834 q 184 579 183 642 q 353 564 231 574 q 507 551 475 553 l 521 488 q 186 461 235 463 q 184 280 186 401 q 182 102 182 159 q 572 61 492 73 z "},"F":{"ha":621,"x_min":56,"x_max":609,"o":"m 179 -8 l 56 0 q 72 499 69 149 q 90 987 75 849 q 334 981 136 983 q 594 968 533 978 l 609 907 q 365 882 548 897 q 172 865 182 867 q 178 738 174 834 q 184 579 183 642 q 353 564 231 574 q 507 551 475 553 l 521 488 q 186 461 235 463 l 186 438 q 182 224 186 387 q 179 12 179 62 l 179 -8 z "},"G":{"ha":792,"x_min":56,"x_max":738,"o":"m 499 312 l 484 373 q 612 386 511 377 q 738 400 712 395 l 738 -31 l 632 -53 q 631 12 631 -39 q 629 77 631 62 q 620 62 629 75 q 590 30 610 49 q 543 -7 570 11 q 473 -37 515 -24 q 385 -49 431 -49 q 56 464 56 -49 q 69 635 56 552 q 115 803 83 719 q 214 939 148 887 q 370 990 279 990 q 533 963 449 990 q 677 895 617 936 l 623 833 q 414 911 517 911 q 297 879 346 911 q 223 800 248 846 q 184 684 198 754 q 166 562 170 613 q 163 441 163 510 q 224 170 163 275 q 382 65 285 65 q 465 79 425 65 q 533 111 505 92 q 585 151 562 130 q 619 184 608 171 q 631 201 631 198 l 631 288 l 499 312 z "},"H":{"ha":651,"x_min":56,"x_max":595,"o":"m 473 975 l 552 991 q 583 460 576 800 q 595 11 589 121 q 548 -31 583 -31 q 501 -11 524 -31 q 473 38 479 9 q 475 201 475 87 l 475 468 q 391 462 445 467 q 294 454 338 457 q 210 452 250 452 q 159 453 175 452 q 168 219 161 370 q 178 11 175 68 q 130 -31 165 -31 q 83 -11 106 -31 q 56 38 61 9 q 63 491 60 155 q 76 991 66 827 l 137 978 q 138 965 137 974 q 138 951 138 956 q 159 533 156 617 q 257 542 205 537 q 372 553 309 547 q 471 562 435 559 q 472 575 472 562 q 473 685 472 589 q 473 975 473 781 z "},"I":{"ha":457,"x_min":27,"x_max":430,"o":"m 33 -4 l 30 62 q 184 84 155 83 q 186 222 186 130 q 180 574 186 345 q 174 879 175 804 l 37 886 l 27 964 q 199 963 83 963 q 377 962 319 963 l 381 894 q 316 882 358 884 q 263 879 274 880 q 268 688 267 841 q 269 349 269 534 q 271 84 269 163 q 354 75 293 80 q 430 66 415 69 l 427 -4 q 298 -3 387 -3 q 161 -3 252 -3 q 33 -4 71 -4 z "},"J":{"ha":528,"x_min":0,"x_max":472,"o":"m 0 133 l 69 168 q 248 62 148 62 q 348 117 324 62 q 372 294 372 171 q 369 574 372 384 q 366 872 366 764 q 368 983 366 945 q 393 979 377 979 q 409 980 399 979 q 426 981 419 981 q 467 972 449 981 q 464 831 464 880 q 468 583 464 754 q 472 316 472 411 q 471 224 472 255 q 468 150 471 193 q 459 87 465 107 q 441 41 453 68 q 414 3 430 14 q 372 -19 397 -7 q 315 -35 347 -31 q 239 -38 282 -38 q 0 133 72 -38 z "},"K":{"ha":623,"x_min":56,"x_max":624,"o":"m 624 -9 l 505 -9 q 410 87 460 33 q 328 179 359 141 q 239 287 296 217 q 160 385 183 357 l 178 19 q 130 -22 165 -22 q 83 -2 106 -22 q 56 46 61 18 q 62 496 60 155 q 75 1001 65 838 l 136 987 q 145 752 140 920 q 153 529 151 585 q 239 634 176 557 q 326 739 302 711 q 395 819 350 766 q 479 911 441 872 q 560 991 517 951 l 601 925 q 222 464 552 844 q 418 231 270 414 q 624 -9 567 47 z "},"L":{"ha":659,"x_min":56,"x_max":659,"o":"m 65 972 l 146 964 q 186 110 167 757 q 416 115 277 115 q 640 119 556 115 q 652 54 648 96 q 659 -8 655 12 q 206 3 481 3 l 56 3 q 63 540 62 203 q 65 972 64 876 z "},"M":{"ha":998,"x_min":0,"x_max":998,"o":"m 998 0 l 895 -9 q 734 792 821 458 q 635 494 689 686 q 562 245 582 302 q 553 245 559 245 q 543 244 547 244 q 480 248 524 244 q 425 252 437 252 q 355 515 423 292 q 274 800 288 738 q 84 0 250 581 l 0 8 q 94 473 19 156 q 182 964 168 791 q 221 967 206 967 q 321 956 235 967 q 376 833 340 954 q 449 570 412 713 q 495 400 486 426 q 587 704 533 494 q 662 971 640 914 q 799 959 684 970 q 867 663 834 822 q 939 302 901 505 q 998 0 978 100 z "},"N":{"ha":762,"x_min":56,"x_max":707,"o":"m 56 38 l 73 977 l 146 977 l 590 134 l 590 241 q 605 978 590 651 l 682 963 q 707 -7 697 669 q 647 -19 678 -19 q 551 8 601 -19 q 345 381 468 136 q 171 718 222 627 q 173 381 172 625 q 178 11 174 137 q 130 -31 165 -31 q 83 -11 106 -31 q 56 38 61 9 z "},"O":{"ha":727,"x_min":57,"x_max":673,"o":"m 57 454 q 57 524 57 500 q 59 597 57 548 q 64 674 61 646 q 75 748 68 703 q 92 821 81 793 q 117 884 103 849 q 153 941 132 920 q 201 983 175 963 q 262 1012 227 1002 q 339 1021 297 1021 q 486 988 423 1021 q 583 905 548 955 q 640 781 618 854 q 667 642 661 708 q 673 495 673 575 q 671 397 673 441 q 663 299 669 354 q 645 202 656 244 q 613 117 633 160 q 565 47 593 75 q 495 1 537 19 q 401 -16 453 -16 q 257 4 317 -16 q 158 61 197 24 q 97 157 119 98 q 66 288 75 217 q 57 454 57 358 m 575 444 q 565 582 575 510 q 531 736 555 654 q 456 871 507 819 q 332 924 404 924 q 237 851 278 924 q 178 688 195 779 q 160 518 160 598 q 161 433 160 463 q 165 351 161 404 q 177 266 170 297 q 201 194 184 235 q 239 131 217 153 q 298 92 262 109 q 378 73 334 75 q 526 184 477 79 q 575 444 575 290 z "},"P":{"ha":712,"x_min":56,"x_max":656,"o":"m 77 974 l 138 990 q 140 941 138 947 q 357 993 217 993 q 582 899 507 993 q 656 635 656 804 q 583 385 656 484 q 362 286 510 286 q 167 302 338 286 q 178 -5 170 203 q 130 -47 165 -47 q 83 -28 106 -47 q 56 20 61 -8 q 64 464 60 134 q 77 974 69 793 m 152 850 l 163 427 q 335 387 237 387 q 494 457 429 387 q 559 629 559 528 q 491 827 559 739 q 321 916 423 916 q 152 850 239 916 z "},"Q":{"ha":732,"x_min":56,"x_max":678,"o":"m 579 -156 l 593 -217 q 555 -218 579 -218 q 407 -165 460 -218 q 332 -9 354 -111 q 56 396 56 38 q 117 853 56 681 q 349 1021 178 1021 q 678 502 678 971 q 677 412 678 446 q 672 317 677 378 q 659 217 667 256 q 634 130 651 178 q 593 53 617 81 q 532 4 570 24 q 448 -16 495 -16 q 446 -35 446 -23 q 492 -121 446 -85 q 579 -156 538 -156 m 575 444 q 571 549 575 496 q 552 670 567 602 q 513 789 537 738 q 444 875 488 840 q 342 910 400 910 q 270 892 301 910 q 220 840 239 875 q 191 771 202 804 q 176 684 180 738 q 170 600 171 629 q 170 518 170 570 q 172 406 170 453 q 184 293 174 359 q 214 184 195 227 q 271 109 233 141 q 362 73 309 76 q 490 129 441 73 q 557 263 540 184 q 575 444 575 342 z "},"R":{"ha":720,"x_min":56,"x_max":707,"o":"m 685 -22 l 707 -77 q 579 -38 646 -76 q 455 58 513 0 q 352 174 397 115 q 274 290 307 233 l 167 302 q 178 -5 170 203 q 130 -47 165 -47 q 83 -28 106 -47 q 56 20 61 -8 q 64 464 60 134 q 77 974 69 793 l 138 990 q 140 941 138 947 q 357 993 217 993 q 582 899 507 993 q 656 635 656 804 q 642 515 656 572 q 597 407 627 457 q 517 324 568 357 q 399 286 465 292 q 526 94 446 187 q 685 -22 606 0 m 152 850 l 163 427 q 335 387 237 387 q 494 457 429 387 q 559 629 559 528 q 491 827 559 739 q 321 916 423 916 q 152 850 239 916 z "},"S":{"ha":620,"x_min":14,"x_max":606,"o":"m 38 77 l 57 153 q 289 90 175 90 q 428 123 370 90 q 486 231 486 156 q 437 352 486 297 q 319 449 388 407 q 180 535 250 491 q 62 644 111 579 q 14 787 14 708 q 83 962 14 883 q 250 1042 152 1042 q 416 1012 324 1042 q 570 952 507 982 l 553 898 q 293 951 399 951 q 182 909 228 951 q 136 800 136 867 q 161 709 136 750 q 229 639 187 669 q 321 581 270 609 q 422 519 372 552 q 513 449 472 487 q 581 353 555 411 q 606 224 606 296 q 541 58 606 122 q 372 -7 476 -7 q 181 18 282 -7 q 38 77 80 43 z "},"T":{"ha":598,"x_min":0,"x_max":598,"o":"m 14 910 l 0 971 l 518 1001 q 575 977 552 1000 q 598 926 598 954 q 585 895 598 909 q 544 879 571 882 l 316 891 q 366 20 350 412 q 320 -20 354 -20 q 273 -1 296 -20 q 244 47 250 19 q 247 270 247 121 q 246 437 247 326 q 245 604 245 548 q 251 895 245 765 q 14 910 98 906 z "},"U":{"ha":728,"x_min":56,"x_max":674,"o":"m 576 1006 l 656 1000 q 674 578 674 750 q 667 293 674 453 q 656 178 665 225 q 628 87 648 132 q 573 16 608 42 q 483 -26 538 -11 q 349 -42 427 -42 q 248 -32 292 -42 q 176 -5 205 -22 q 126 37 146 11 q 94 92 106 64 q 77 160 83 121 q 68 235 71 199 q 62 317 65 270 q 62 323 62 321 q 56 604 56 488 q 64 997 56 701 l 138 981 q 153 625 141 856 q 170 296 165 393 q 174 222 171 250 q 186 160 176 195 q 214 106 197 125 q 264 73 232 87 q 345 60 297 60 q 427 66 392 60 q 484 88 461 72 q 520 121 506 104 q 543 169 534 137 q 554 224 551 201 q 562 294 557 248 q 572 671 571 411 q 576 1006 574 932 z "},"V":{"ha":582,"x_min":0,"x_max":582,"o":"m 500 977 l 582 972 q 476 534 581 970 q 334 1 372 99 q 307 -1 320 -1 q 221 8 269 -1 q 174 175 201 69 q 119 410 148 281 q 70 638 91 538 q 26 852 49 738 q 0 977 3 966 l 77 977 q 273 176 132 727 q 500 977 481 939 z "},"W":{"ha":926,"x_min":0,"x_max":926,"o":"m 845 977 l 926 972 q 821 534 925 970 q 678 1 716 99 q 651 -1 665 -1 q 566 8 613 -1 q 454 448 529 117 q 334 1 370 102 q 307 -1 320 -1 q 221 8 269 -1 q 174 175 201 69 q 119 410 148 281 q 70 638 91 538 q 26 852 49 738 q 0 977 3 966 l 77 977 q 273 176 132 727 q 342 431 293 250 q 407 671 391 613 q 345 977 388 758 l 422 977 q 617 176 476 727 q 845 977 826 939 z "},"X":{"ha":757,"x_min":0,"x_max":757,"o":"m 58 -12 l 0 18 q 81 180 35 100 q 205 380 126 259 q 304 532 285 502 q 165 736 270 585 q 8 972 60 887 l 65 998 q 354 612 180 864 q 473 792 361 637 q 601 975 585 947 q 650 1009 621 1009 q 699 985 677 1009 q 722 930 720 962 q 581 736 713 921 q 416 514 449 552 q 593 265 463 442 q 757 30 723 88 q 744 -9 757 4 q 711 -23 731 -23 q 640 22 665 -23 l 362 437 q 214 220 320 369 q 58 -12 109 71 z "},"Y":{"ha":572,"x_min":-27,"x_max":601,"o":"m 526 981 l 601 958 q 541 828 589 935 q 435 609 492 722 q 324 411 378 496 q 331 205 330 345 q 336 4 332 65 q 274 1 324 1 q 217 4 227 1 q 223 204 221 62 q 231 411 225 346 q 79 726 163 524 q -27 975 -4 928 l 64 982 l 278 521 q 390 736 302 564 q 526 981 477 909 z "},"Z":{"ha":604,"x_min":0,"x_max":604,"o":"m 576 81 l 579 -1 q 457 -4 500 -4 q 280 -1 397 -4 q 109 1 163 1 q 5 -1 68 1 l 14 72 q 106 261 18 110 q 324 617 195 412 q 484 876 453 822 q 334 882 435 879 q 150 888 233 884 q 0 898 66 892 l 0 971 l 41 971 q 604 981 49 971 l 604 873 l 179 99 q 378 90 239 95 q 576 81 518 84 z "},"[":{"ha":377,"x_min":56,"x_max":378,"o":"m 88 -122 l 56 1105 q 186 1100 83 1101 q 321 1089 289 1099 l 335 1028 q 134 1000 221 1000 q 155 531 137 935 q 178 -35 174 127 q 269 -41 194 -38 q 369 -52 343 -45 l 378 -114 q 323 -113 359 -113 q 203 -117 281 -113 q 88 -122 125 -121 z "},"\\":{"ha":696,"x_min":0,"x_max":696,"o":"m 0 1118 l 110 1107 q 301 679 237 821 q 489 279 365 537 q 696 -121 613 20 q 631 -133 671 -133 q 576 -121 583 -133 q 290 429 477 27 q 0 1118 102 831 z "},"]":{"ha":377,"x_min":0,"x_max":323,"o":"m 323 1105 l 290 -122 q 176 -117 254 -121 q 56 -113 98 -113 q 0 -114 19 -113 l 8 -52 q 109 -41 34 -45 q 199 -35 183 -38 q 222 531 203 127 q 243 1000 240 935 q 43 1028 157 1000 l 57 1089 q 193 1100 90 1099 q 323 1105 296 1101 z "},"^":{"ha":613,"x_min":0,"x_max":614,"o":"m 614 460 l 525 461 q 411 652 494 496 q 302 844 328 807 q 189 654 275 787 q 58 483 103 522 l 0 514 q 117 737 38 597 q 251 964 195 878 q 278 983 256 974 q 321 991 300 991 q 370 958 359 991 q 433 804 393 887 q 532 614 473 722 q 614 460 591 506 z "},"_":{"ha":768,"x_min":0,"x_max":768,"o":"m 14 20 l 0 81 q 688 125 229 100 q 745 100 722 123 q 768 50 768 77 q 754 19 768 33 q 713 3 741 5 q 382 9 620 7 q 14 20 144 12 z "},"`":{"ha":678,"x_min":218,"x_max":435,"o":"m 435 819 l 415 812 q 382 805 397 806 q 357 810 368 804 q 337 824 346 817 q 321 845 328 831 q 308 869 313 859 q 294 897 302 880 q 281 924 286 913 l 218 1039 l 327 1027 l 435 819 z "},"a":{"ha":557,"x_min":27,"x_max":503,"o":"m 104 586 l 77 655 q 167 711 113 690 q 274 732 221 732 q 503 336 503 732 q 497 176 503 282 q 491 18 491 71 q 449 -24 480 -24 q 404 0 425 -24 q 384 54 384 24 q 385 68 384 64 q 206 -14 301 -14 q 81 39 134 -14 q 27 165 27 91 q 125 393 27 292 q 349 495 224 495 q 359 494 354 495 q 372 492 365 494 q 384 491 380 491 q 258 650 373 650 q 104 586 190 650 m 388 161 q 391 305 391 256 q 388 419 391 346 l 377 419 q 201 347 281 418 q 122 176 122 277 q 149 107 122 133 q 213 81 175 81 q 388 161 273 81 z "},"b":{"ha":616,"x_min":56,"x_max":562,"o":"m 148 -26 l 72 -41 l 56 1031 q 159 1062 94 1050 q 157 964 157 1031 q 168 674 157 818 q 307 711 233 711 q 435 675 382 711 q 514 576 488 639 q 551 450 540 514 q 562 312 562 387 q 536 155 562 231 q 450 24 511 80 q 300 -33 388 -33 q 149 15 224 -33 q 148 -26 148 1 m 164 541 l 160 104 q 211 66 168 80 q 304 52 254 52 q 383 70 351 52 q 431 123 415 88 q 454 195 448 157 q 460 282 460 233 q 454 380 460 332 q 433 486 449 429 q 380 579 416 544 q 289 614 343 614 q 215 595 250 614 q 164 541 180 575 z "},"c":{"ha":543,"x_min":56,"x_max":529,"o":"m 513 673 l 506 614 q 408 623 449 623 q 254 566 315 623 q 170 433 193 510 q 148 263 148 357 q 153 186 148 220 q 173 119 159 152 q 218 68 187 87 q 293 50 248 50 q 445 73 353 50 q 490 84 473 84 q 529 8 522 84 q 308 -30 410 -30 q 108 43 160 -30 q 56 278 56 115 q 68 444 56 373 q 114 577 81 515 q 208 671 146 639 q 359 704 270 704 q 513 673 460 704 z "},"d":{"ha":616,"x_min":56,"x_max":562,"o":"m 544 -35 l 469 -20 q 468 20 469 7 q 316 -26 396 -26 q 124 80 193 -26 q 56 320 56 186 q 66 450 56 389 q 101 576 76 511 q 180 678 126 640 q 309 716 233 716 q 449 680 384 716 q 460 970 460 823 q 458 1067 460 1036 q 562 1036 524 1055 l 544 -35 m 457 110 l 453 547 q 402 600 437 581 q 328 620 368 620 q 238 586 275 620 q 185 496 201 552 q 163 391 170 439 q 157 288 157 342 q 312 57 157 57 q 406 71 363 57 q 457 110 449 85 z "},"e":{"ha":614,"x_min":56,"x_max":616,"o":"m 602 132 l 616 72 q 439 24 556 50 q 264 -3 321 -3 q 163 36 206 -3 q 98 135 119 75 q 66 254 76 195 q 56 370 56 313 q 362 709 56 709 q 491 663 435 709 q 547 541 547 616 q 524 469 547 500 q 470 420 502 438 q 389 387 438 401 q 301 365 339 372 q 210 350 263 358 q 137 338 157 342 q 142 269 138 298 q 155 204 145 239 q 182 147 165 170 q 229 110 199 125 q 300 95 259 95 q 419 104 349 95 q 545 122 490 113 q 602 132 600 132 m 142 422 q 445 533 327 475 q 419 598 435 578 q 370 618 403 618 q 220 562 288 618 q 142 422 153 505 z "},"f":{"ha":453,"x_min":27,"x_max":454,"o":"m 406 593 l 418 530 q 323 521 389 526 q 224 510 256 515 q 232 4 224 161 q 178 -49 216 -49 q 144 -34 160 -49 q 123 4 129 -19 q 128 225 123 45 q 133 505 133 406 l 30 509 q 27 600 27 536 q 79 593 41 597 q 130 587 117 589 q 134 711 134 631 q 160 922 134 865 q 283 979 186 979 q 454 940 388 979 l 446 891 q 391 895 429 891 q 335 898 354 898 q 251 873 279 898 q 222 780 222 849 q 223 733 222 758 q 224 701 224 708 q 222 591 224 651 q 283 590 244 591 q 339 589 321 589 q 406 593 373 589 z "},"g":{"ha":598,"x_min":56,"x_max":543,"o":"m 469 700 l 530 713 q 532 650 530 673 q 540 263 540 353 q 541 165 540 232 q 543 65 543 99 q 538 -64 543 -9 q 517 -177 533 -118 q 473 -273 500 -236 q 394 -335 445 -311 q 274 -359 343 -359 q 64 -342 214 -359 q 59 -309 62 -327 q 56 -282 56 -292 q 60 -250 56 -262 q 144 -260 71 -251 q 254 -270 218 -270 q 397 -213 347 -270 q 449 0 448 -156 q 309 -38 382 -38 q 202 -13 248 -38 q 129 51 156 12 q 85 144 102 90 q 62 251 68 199 q 56 361 56 302 q 120 606 56 507 q 316 705 184 705 q 468 658 393 705 q 469 700 469 671 m 453 132 l 457 570 q 406 608 449 594 q 312 623 363 623 q 198 555 239 623 q 157 392 157 488 q 163 294 157 342 q 184 188 168 245 q 237 95 201 130 q 328 60 274 60 q 403 79 369 60 q 453 132 437 99 z "},"h":{"ha":602,"x_min":56,"x_max":547,"o":"m 62 977 l 133 960 q 139 783 137 905 q 144 614 141 661 q 320 692 217 692 q 479 627 412 692 q 547 453 547 562 l 547 7 q 502 -1 529 -1 q 448 4 472 -1 q 448 37 448 15 q 449 71 449 60 q 445 253 449 123 q 441 469 441 382 q 315 594 420 594 q 224 569 269 594 q 159 510 179 544 q 164 252 163 425 q 168 4 165 80 q 113 -1 136 -1 q 56 7 79 -1 q 58 217 58 73 q 57 451 58 281 q 56 744 56 621 q 62 977 57 867 z "},"i":{"ha":245,"x_min":56,"x_max":190,"o":"m 85 697 l 148 684 q 167 334 159 572 q 178 39 175 96 q 130 -3 165 -3 q 83 17 106 -3 q 56 65 61 37 q 66 355 58 121 q 85 697 75 589 m 104 940 q 165 908 141 940 q 190 836 190 876 q 176 787 190 806 q 137 769 161 769 q 77 800 99 769 q 56 873 56 831 q 68 922 56 903 q 104 940 81 940 z "},"j":{"ha":225,"x_min":-111,"x_max":171,"o":"m -111 -254 l -111 -205 q -27 -163 -62 -194 q 26 -97 8 -133 q 55 -5 45 -61 q 67 92 65 50 q 69 194 69 133 q 68 391 69 250 q 65 650 66 533 q 110 709 71 709 q 149 689 130 709 q 168 637 167 669 q 169 523 168 601 q 170 403 170 445 q 170 373 170 399 q 171 326 171 347 q 157 16 171 136 q 113 -163 144 -103 q 45 -244 83 -224 q -53 -264 7 -264 q -111 -254 -79 -264 m 83 943 q 144 911 119 943 q 170 838 170 879 q 155 790 170 808 q 117 772 141 772 q 57 803 79 772 q 35 876 35 834 q 47 924 35 906 q 83 943 60 943 z "},"k":{"ha":549,"x_min":56,"x_max":551,"o":"m 551 0 l 426 3 q 288 165 376 53 q 178 302 201 277 l 178 23 q 130 -18 165 -18 q 83 2 106 -18 q 56 50 61 22 q 60 514 60 190 q 65 979 60 838 l 148 962 q 153 739 149 907 q 159 488 156 571 l 488 730 l 511 669 q 209 404 382 575 q 371 212 245 365 q 551 0 496 60 z "},"l":{"ha":233,"x_min":56,"x_max":178,"o":"m 85 930 l 148 917 l 178 39 q 130 -3 165 -3 q 83 17 106 -3 q 56 65 61 37 l 85 930 z "},"m":{"ha":787,"x_min":56,"x_max":732,"o":"m 426 537 q 434 357 431 461 q 439 148 437 254 q 442 4 441 42 q 387 -4 412 -4 q 349 3 366 -4 q 343 123 345 56 q 342 243 342 191 q 340 353 342 296 q 332 450 338 410 q 316 526 327 491 q 286 579 305 560 q 237 600 266 598 q 191 587 209 600 q 153 543 174 575 l 153 5 q 104 -5 133 -5 q 56 1 83 -5 q 61 338 60 87 q 72 709 62 589 l 133 696 l 137 627 q 240 690 178 690 q 396 609 332 690 q 524 690 435 690 q 585 682 559 690 q 732 304 732 640 q 729 173 732 255 q 726 62 726 91 q 730 0 726 24 q 644 -19 659 -19 q 625 -16 631 -19 q 620 49 620 1 q 624 172 620 79 q 628 317 628 264 q 517 602 628 600 q 472 587 491 601 q 426 537 453 572 z "},"n":{"ha":574,"x_min":56,"x_max":519,"o":"m 148 543 l 153 5 q 104 -5 133 -5 q 56 1 83 -5 q 61 338 60 87 q 72 709 62 589 l 133 696 l 137 620 q 302 696 209 696 q 378 689 350 696 q 433 656 407 682 q 473 586 460 629 q 498 462 487 543 q 513 273 509 381 q 519 1 518 165 q 488 -1 511 -1 q 412 11 439 -1 q 407 83 407 33 q 409 180 407 109 q 411 290 411 251 q 406 404 411 355 q 389 500 401 453 q 349 574 376 548 q 283 600 323 600 q 214 593 239 600 q 178 576 189 586 q 148 543 168 567 z "},"o":{"ha":620,"x_min":56,"x_max":566,"o":"m 56 289 q 67 410 56 343 q 102 549 79 476 q 171 671 125 623 q 278 720 217 720 q 487 603 408 720 q 566 342 566 486 q 553 220 566 281 q 513 102 540 160 q 435 5 486 43 q 316 -39 384 -34 q 123 67 191 -23 q 56 289 56 157 m 286 650 q 206 563 239 644 q 164 405 174 481 q 155 270 155 328 q 201 130 155 194 q 307 65 248 65 q 382 98 349 65 q 436 178 416 130 q 466 275 456 227 q 476 362 476 324 q 426 556 476 473 q 286 650 376 639 z "},"p":{"ha":616,"x_min":56,"x_max":562,"o":"m 72 713 l 148 700 q 149 658 148 671 q 300 705 224 705 q 492 600 423 705 q 562 359 562 494 q 551 230 562 292 q 515 104 541 168 q 436 1 490 39 q 307 -38 382 -38 q 168 0 235 -38 q 178 -353 174 -237 q 130 -395 165 -395 q 83 -375 106 -395 q 56 -327 61 -355 l 72 713 m 160 570 l 164 132 q 214 79 180 99 q 289 60 248 60 q 379 94 342 60 q 432 184 416 127 q 454 289 448 240 q 460 392 460 338 q 304 623 460 623 q 211 608 254 623 q 160 570 168 594 z "},"q":{"ha":616,"x_min":56,"x_max":562,"o":"m 469 700 l 544 713 l 562 -357 q 458 -389 518 -378 q 460 -290 460 -358 q 449 0 460 -144 q 309 -38 382 -38 q 202 -13 248 -38 q 129 51 156 12 q 85 144 102 90 q 62 251 68 199 q 56 361 56 302 q 80 517 56 442 q 166 649 104 593 q 316 705 228 705 q 468 658 393 705 q 469 700 469 671 m 453 132 l 457 570 q 406 608 449 594 q 312 623 363 623 q 233 604 264 623 q 185 551 201 586 q 163 479 170 517 q 157 392 157 442 q 163 294 157 342 q 184 188 168 245 q 237 95 201 130 q 328 60 274 60 q 403 79 369 60 q 453 132 437 99 z "},"r":{"ha":505,"x_min":56,"x_max":506,"o":"m 503 517 l 444 521 q 347 597 415 597 q 284 583 317 597 q 229 555 251 570 q 172 514 208 541 q 172 391 172 495 q 173 159 171 286 q 178 22 175 31 q 130 -19 165 -19 q 83 1 106 -19 q 56 49 61 20 q 102 707 81 484 l 163 693 l 167 602 q 330 681 262 681 q 455 647 404 681 q 506 548 506 613 q 503 517 506 528 z "},"s":{"ha":526,"x_min":27,"x_max":499,"o":"m 473 654 l 460 600 q 255 654 328 654 q 163 634 190 654 q 137 551 137 614 q 174 465 137 499 q 264 412 212 431 q 371 370 317 392 q 462 304 425 347 q 499 197 499 260 q 435 45 499 110 q 270 -22 372 -20 q 130 9 195 -22 q 27 88 65 41 l 66 129 q 115 107 83 122 q 160 87 146 92 q 200 77 174 83 q 256 72 227 72 q 361 100 320 72 q 401 180 401 129 q 382 238 401 214 q 332 277 363 262 q 264 305 301 292 q 189 336 227 319 q 121 376 152 353 q 71 441 90 400 q 52 537 52 481 q 96 673 52 618 q 220 728 140 728 q 290 719 251 728 q 353 701 330 709 q 421 675 376 693 q 473 654 467 656 z "},"t":{"ha":505,"x_min":0,"x_max":506,"o":"m 426 656 l 441 595 q 328 581 404 593 q 214 567 252 570 q 222 442 221 519 q 226 309 224 365 q 238 196 228 252 q 280 110 248 140 q 366 80 312 80 q 468 99 407 80 q 506 26 494 49 q 289 -12 399 -12 q 218 12 248 -12 q 172 73 189 37 q 146 166 156 110 q 133 273 136 222 q 130 388 130 323 q 131 486 130 423 q 132 571 132 548 q 68 569 118 570 q 9 568 18 568 q 0 662 0 659 q 31 659 9 659 q 71 661 43 659 q 111 663 98 663 q 125 663 117 663 q 137 662 134 662 q 149 905 142 811 l 210 890 q 212 820 212 857 q 214 737 213 783 q 214 667 214 692 q 320 662 250 665 q 426 656 391 659 z "},"u":{"ha":610,"x_min":56,"x_max":556,"o":"m 458 681 l 524 669 l 524 655 q 535 343 524 563 q 556 4 547 123 q 505 -7 529 -7 q 456 0 483 -7 l 445 35 q 279 -14 358 -14 q 178 14 221 -14 q 113 81 136 41 q 76 180 90 121 q 59 287 62 239 q 56 395 56 335 q 77 713 56 568 l 138 700 q 148 602 148 655 q 144 499 148 572 q 141 388 141 426 q 147 273 141 321 q 170 180 153 225 q 222 110 187 134 q 311 85 258 85 q 439 113 370 85 q 445 370 442 163 q 458 681 448 576 z "},"v":{"ha":514,"x_min":0,"x_max":515,"o":"m 425 697 l 515 685 q 434 359 490 578 q 347 3 378 140 q 255 -7 294 -7 q 194 -1 222 -7 q 130 222 174 69 q 55 487 85 374 q 0 703 24 600 l 90 696 l 266 132 q 312 278 288 197 q 351 417 336 359 q 391 568 366 475 q 425 697 415 661 z "},"w":{"ha":808,"x_min":0,"x_max":810,"o":"m 719 703 l 810 690 q 728 364 784 583 q 642 8 673 145 q 551 -1 589 -1 q 488 4 517 -1 l 412 270 l 347 3 q 255 -7 294 -7 q 194 -1 222 -7 q 130 222 174 69 q 55 487 85 374 q 0 703 24 600 l 90 696 l 266 132 q 359 453 311 262 q 294 708 317 609 l 384 701 l 560 137 q 606 283 582 202 q 646 422 631 365 q 685 573 661 480 q 719 703 709 666 z "},"x":{"ha":494,"x_min":0,"x_max":495,"o":"m 58 -34 l 0 -3 q 184 339 35 85 q 5 696 106 446 l 65 696 q 235 420 115 590 q 288 509 255 449 q 353 612 321 568 q 426 688 385 655 q 475 624 475 661 q 465 585 475 604 q 372 444 429 540 q 301 327 315 347 q 495 24 445 126 q 449 -27 495 -27 q 378 18 403 -27 q 250 248 354 99 q 155 111 227 210 q 58 -34 84 11 z "},"y":{"ha":593,"x_min":27,"x_max":593,"o":"m 153 -401 l 69 -354 q 266 12 125 -258 q 98 308 156 110 q 27 704 39 506 l 106 700 q 135 551 113 667 q 171 380 157 435 q 219 241 184 324 q 298 100 254 157 q 487 694 487 463 l 487 709 q 593 684 557 699 q 525 393 571 541 q 410 96 479 245 q 287 -156 340 -54 q 153 -401 233 -258 z "},"z":{"ha":570,"x_min":0,"x_max":571,"o":"m 37 646 l 18 727 q 155 730 35 727 q 342 734 274 734 q 566 722 475 734 q 564 703 564 715 q 565 684 564 699 q 566 656 566 670 q 356 368 507 552 q 146 96 205 184 q 331 95 191 96 q 564 94 471 94 q 567 64 566 81 q 570 35 568 47 q 571 12 571 23 q 570 -12 571 -3 q 4 -9 488 -9 q 0 30 0 15 q 4 80 0 43 q 211 351 24 121 q 420 650 397 582 q 343 652 374 652 q 198 649 301 652 q 37 646 95 646 z "},"{":{"ha":359,"x_min":27,"x_max":359,"o":"m 30 458 l 27 529 q 106 616 79 564 q 140 721 134 669 q 153 831 145 773 q 172 936 161 888 q 222 1025 183 983 q 330 1086 262 1066 l 350 1042 q 258 973 289 1028 q 222 847 228 918 q 211 704 216 776 q 182 573 206 632 q 109 495 159 514 q 189 366 163 444 q 221 214 216 288 q 234 72 227 140 q 271 -42 241 4 q 359 -96 300 -88 l 339 -140 q 220 -74 260 -126 q 170 50 180 -22 q 154 196 160 121 q 119 345 148 271 q 30 458 91 418 z "},"|":{"ha":233,"x_min":56,"x_max":178,"o":"m 85 1069 l 148 1055 q 161 480 153 951 q 178 -92 168 9 q 130 -133 165 -133 q 83 -113 106 -133 q 56 -65 61 -94 q 56 -52 56 -61 q 58 -15 57 -42 q 60 53 58 12 q 85 1015 85 774 l 85 1069 z "},"}":{"ha":359,"x_min":0,"x_max":332,"o":"m 332 529 l 331 458 q 241 345 270 418 q 206 196 213 271 q 189 50 199 121 q 139 -74 179 -22 q 20 -140 99 -126 l 0 -96 q 89 -42 60 -88 q 125 72 118 4 q 138 214 133 140 q 170 366 144 288 q 251 495 197 444 q 177 573 201 514 q 149 704 153 632 q 138 847 144 776 q 101 973 132 918 q 9 1042 71 1028 l 31 1086 q 151 1010 111 1062 q 199 895 190 958 q 212 766 208 831 q 244 635 217 701 q 332 529 271 570 z "},"~":{"ha":723,"x_min":27,"x_max":696,"o":"m 495 491 q 562 506 537 491 q 627 570 587 521 l 696 534 q 652 458 677 488 q 596 415 627 429 q 538 397 566 401 q 471 392 510 392 q 342 437 416 392 q 229 483 269 483 q 158 467 187 483 q 98 406 129 452 l 27 441 q 113 557 65 530 q 239 583 160 583 q 373 537 294 583 q 495 491 452 491 z "}," ":{"ha":388,"x_min":0,"x_max":0,"o":""},"¡":{"ha":252,"x_min":56,"x_max":197,"o":"m 102 502 l 163 487 q 176 265 171 381 q 188 -1 182 149 q 197 -222 194 -151 q 151 -277 191 -277 q 100 -253 123 -277 q 75 -195 76 -229 q 84 119 77 -129 q 102 502 91 368 m 141 578 q 80 610 104 578 q 56 682 56 642 q 70 730 56 712 q 109 749 84 749 q 168 718 146 749 q 190 644 190 686 q 177 596 190 614 q 141 578 164 578 z "},"£":{"ha":743,"x_min":27,"x_max":720,"o":"m 567 -5 q 465 8 534 -5 q 358 22 396 22 q 218 4 308 22 q 75 -14 127 -14 q 27 -4 65 -14 l 27 46 q 144 101 102 49 q 194 224 186 153 q 199 476 202 297 l 71 480 q 69 572 69 494 q 134 566 83 570 q 199 560 186 562 q 205 711 205 618 q 422 979 205 979 q 531 966 469 979 q 621 937 593 954 l 613 888 q 538 893 597 888 q 460 898 479 898 q 292 739 292 898 l 292 564 q 359 561 313 564 q 422 557 404 557 q 488 562 456 557 l 502 499 q 399 491 473 495 q 293 481 324 487 q 296 292 297 342 q 258 98 292 179 q 372 106 327 111 q 475 87 416 100 q 553 75 533 75 q 647 190 635 75 l 697 193 q 715 88 720 137 q 667 21 709 47 q 567 -5 625 -5 z "},"¤":{"ha":777,"x_min":27,"x_max":722,"o":"m 42 382 l 27 480 l 129 480 q 142 974 134 808 l 205 990 q 206 941 205 947 q 422 993 283 993 q 644 913 566 993 q 722 690 722 834 q 427 369 722 369 q 232 377 317 369 q 233 343 232 368 q 233 307 233 319 q 337 304 260 307 q 468 302 414 302 q 602 305 556 302 q 643 289 629 302 q 656 258 656 275 q 634 216 656 232 q 576 197 612 199 q 236 213 450 203 q 243 -5 237 98 q 195 -47 231 -47 q 149 -28 171 -47 q 125 20 127 -8 l 125 218 l 27 227 l 31 311 l 126 305 q 127 382 127 330 l 42 382 m 217 850 l 228 480 q 400 469 275 469 q 564 526 503 469 q 624 685 624 583 q 560 857 624 798 q 387 916 496 916 q 217 850 304 916 z "},"¦":{"ha":233,"x_min":56,"x_max":178,"o":"m 60 66 l 73 433 l 161 425 q 178 -77 167 43 q 130 -119 165 -119 q 83 -100 106 -119 q 56 -52 61 -80 q 56 -38 56 -47 q 58 -1 57 -28 q 60 66 58 26 m 85 1084 l 148 1069 q 159 532 153 948 l 76 524 q 85 1028 85 834 l 85 1084 z "},"§":{"ha":551,"x_min":27,"x_max":524,"o":"m 499 918 l 484 864 q 281 918 353 918 q 189 898 216 918 q 163 814 163 878 q 200 728 163 762 q 290 675 237 694 q 396 633 343 655 q 486 568 449 612 q 524 461 524 525 q 400 297 524 345 q 499 141 499 241 q 435 -11 499 54 q 270 -77 372 -76 q 130 -46 195 -77 q 27 33 65 -15 l 66 73 q 115 52 83 66 q 160 32 146 37 q 200 22 174 27 q 256 16 227 16 q 361 45 320 16 q 401 125 401 73 q 382 182 401 159 q 332 221 363 206 q 264 250 301 236 q 189 280 227 263 q 121 321 152 297 q 71 385 90 345 q 52 481 52 426 q 134 650 52 601 q 76 802 76 705 q 120 937 76 883 q 244 991 164 991 q 297 987 270 991 q 355 972 324 982 q 405 956 385 963 q 457 935 425 948 q 499 918 490 922 m 137 495 q 149 438 137 463 q 193 394 161 414 q 243 366 224 374 q 311 338 263 357 q 395 372 363 345 q 426 445 426 399 q 403 506 426 480 q 351 544 380 532 q 273 574 323 556 q 197 606 224 593 q 137 495 137 581 z "},"¨":{"ha":678,"x_min":125,"x_max":538,"o":"m 174 972 q 235 941 210 972 q 259 868 259 909 q 245 820 259 838 q 208 802 232 802 q 147 834 170 802 q 125 906 125 867 q 138 954 125 936 q 174 972 151 972 m 453 972 q 514 941 490 972 q 538 868 538 909 q 524 820 538 838 q 486 802 510 802 q 426 834 448 802 q 404 906 404 867 q 417 954 404 936 q 453 972 430 972 z "},"©":{"ha":989,"x_min":27,"x_max":962,"o":"m 962 498 q 842 94 960 240 q 532 -52 723 -52 q 165 85 302 -52 q 27 477 27 221 q 159 867 27 719 q 500 1016 290 1016 q 823 870 690 1016 q 962 498 955 724 m 121 480 q 225 165 121 283 q 522 46 330 46 q 783 163 690 46 q 876 460 876 281 q 772 792 876 651 q 509 933 667 933 q 233 812 345 933 q 121 480 121 692 m 654 732 l 624 682 q 509 727 564 727 q 382 476 382 727 q 393 393 382 437 q 433 311 403 350 q 507 273 464 273 q 651 323 548 273 q 667 290 659 313 q 678 262 675 267 q 509 194 582 194 q 359 279 411 194 q 308 488 308 363 q 316 585 308 537 q 342 680 324 632 q 396 756 359 727 q 483 785 433 785 q 654 732 572 785 z "},"«":{"ha":736,"x_min":0,"x_max":738,"o":"m 587 50 l 568 8 q 4 285 327 69 q 0 304 0 293 q 5 324 0 319 q 288 504 102 389 q 530 648 475 618 l 567 625 q 114 316 301 420 q 587 50 273 194 m 738 165 l 700 136 q 587 180 692 140 q 414 253 481 221 q 308 315 346 285 q 492 415 438 385 q 605 481 547 445 q 688 538 663 517 l 718 511 q 437 320 552 374 q 578 245 469 293 q 738 165 688 198 z "},"¬":{"ha":587,"x_min":27,"x_max":560,"o":"m 42 392 l 27 465 l 479 496 q 538 475 515 494 q 560 420 560 456 q 559 393 560 408 q 558 361 559 377 q 556 330 557 346 q 553 300 555 315 q 549 271 551 285 q 547 246 548 258 q 545 227 545 235 q 543 214 543 218 l 543 210 l 468 224 l 460 392 l 42 392 z "},"­":{"ha":476,"x_min":27,"x_max":449,"o":"m 42 404 l 27 465 l 368 496 q 425 471 401 495 q 449 420 449 448 q 435 389 449 403 q 395 373 422 376 l 42 404 z "},"®":{"ha":989,"x_min":27,"x_max":962,"o":"m 962 498 q 842 94 960 240 q 532 -52 723 -52 q 165 85 302 -52 q 27 477 27 221 q 159 867 27 719 q 500 1016 290 1016 q 823 870 690 1016 q 962 498 955 724 m 121 480 q 225 165 121 283 q 522 46 330 46 q 772 152 677 46 q 665 168 713 153 q 587 199 616 182 q 527 252 557 217 q 484 307 496 286 q 446 370 471 328 l 377 380 q 384 178 378 308 q 353 151 376 151 q 323 163 338 151 q 304 194 308 176 q 309 475 305 254 q 317 817 312 696 l 372 827 q 373 796 372 799 q 500 829 423 829 q 647 767 598 829 q 696 595 696 705 q 651 445 696 511 q 530 373 606 378 q 814 208 612 208 q 876 460 876 311 q 772 792 876 651 q 509 933 667 933 q 233 812 345 933 q 121 480 121 692 m 381 722 l 373 463 q 486 446 403 446 q 583 485 547 446 q 618 591 618 524 q 587 715 618 667 q 490 764 556 764 q 381 722 438 764 z "},"°":{"ha":435,"x_min":0,"x_max":437,"o":"m 0 846 q 69 1007 0 933 q 227 1081 138 1081 q 372 1014 307 1081 q 437 863 437 947 q 377 700 437 770 q 227 629 317 629 q 69 691 138 629 q 0 846 0 753 m 225 991 q 127 949 172 991 q 83 852 83 906 q 125 759 83 798 q 225 720 168 720 q 318 762 279 720 q 357 861 357 803 q 317 951 357 910 q 225 991 277 991 z "},"±":{"ha":671,"x_min":27,"x_max":644,"o":"m 639 189 l 625 127 l 106 98 q 52 144 52 103 q 75 195 52 171 q 132 220 98 218 l 271 212 l 271 281 q 269 407 271 296 l 42 419 l 27 480 l 266 494 q 264 602 264 530 q 270 774 264 697 l 331 761 q 343 627 334 731 q 355 499 353 524 l 564 511 q 621 487 598 510 q 644 437 644 464 q 631 406 644 419 q 590 389 617 392 q 365 403 530 392 q 377 296 369 359 q 388 205 385 233 l 639 189 z "},"´":{"ha":678,"x_min":227,"x_max":444,"o":"m 247 812 l 227 819 l 335 1027 l 444 1039 l 381 924 q 368 897 376 913 q 354 869 359 880 q 341 845 349 859 q 325 824 334 831 q 305 810 316 817 q 279 805 294 804 q 247 812 264 806 z "},"µ":{"ha":651,"x_min":-83,"x_max":595,"o":"m -83 -239 l -83 -189 q 1 -147 -34 -178 q 55 -81 37 -117 q 83 11 73 -45 q 96 108 94 66 q 98 210 98 149 q 94 665 98 293 q 137 726 99 726 q 176 705 157 726 q 195 652 194 685 l 195 404 q 256 178 210 270 q 351 85 302 85 q 420 123 388 85 q 467 198 453 160 l 480 236 q 484 394 483 304 q 488 557 486 484 q 499 709 491 629 l 564 697 l 564 685 q 575 353 564 589 q 595 4 586 117 q 544 -7 568 -7 q 496 0 524 -7 l 486 80 q 475 55 487 76 q 432 10 464 34 q 355 -14 400 -14 q 256 28 298 -14 q 195 112 213 71 q 182 153 178 153 q -24 -248 182 -248 q -83 -239 -54 -248 z "},"¶":{"ha":892,"x_min":27,"x_max":892,"o":"m 651 604 q 656 890 651 761 q 500 887 578 887 q 551 -132 518 628 q 503 -174 538 -174 q 456 -154 479 -174 q 427 -106 433 -134 q 430 270 430 -33 q 429 384 430 307 q 429 499 429 461 q 251 467 331 467 q 141 491 187 467 q 71 558 95 515 q 37 648 47 601 q 27 751 27 696 q 83 911 27 856 q 245 972 140 967 l 812 1001 q 869 977 846 1000 q 892 926 892 954 q 879 895 892 909 q 838 879 865 882 l 722 891 q 772 -132 739 639 q 726 -174 760 -174 q 678 -154 701 -174 q 650 -106 655 -134 q 652 270 652 -33 q 652 437 652 326 q 651 604 651 548 z "},"·":{"ha":286,"x_min":56,"x_max":232,"o":"m 151 406 q 85 425 115 406 q 56 496 56 445 q 137 586 56 586 q 205 562 178 586 q 232 486 232 537 q 210 427 232 448 q 151 406 189 406 z "},"»":{"ha":736,"x_min":0,"x_max":738,"o":"m 170 8 l 151 50 q 624 316 465 194 q 171 625 437 420 l 208 648 q 450 504 263 618 q 732 324 636 389 q 738 304 738 319 q 734 285 738 293 q 170 8 411 69 m 38 136 l 0 165 q 159 245 50 198 q 301 320 269 293 q 19 511 183 376 l 50 538 q 429 315 102 491 q 323 254 391 285 q 151 180 256 222 q 38 136 45 138 z "},"¿":{"ha":524,"x_min":0,"x_max":524,"o":"m 441 43 l 502 30 q 524 -72 524 -26 q 460 -199 524 -155 q 305 -244 397 -244 q 84 -165 168 -244 q 0 53 0 -85 q 23 155 0 111 q 79 228 46 199 q 146 286 113 256 q 206 360 180 315 q 236 465 232 406 q 283 507 248 507 q 331 484 309 507 q 358 420 353 461 q 331 319 358 363 q 264 243 304 274 q 186 182 225 213 q 121 106 148 152 q 94 1 94 60 q 159 -116 94 -72 q 304 -160 224 -160 q 412 -128 368 -160 q 456 -35 456 -96 q 441 43 456 3 m 307 579 q 245 611 270 579 q 221 684 221 643 q 235 732 221 713 q 274 750 250 750 q 334 719 312 750 q 355 646 355 688 q 342 597 355 616 q 307 579 330 579 z "},"À":{"ha":730,"x_min":0,"x_max":731,"o":"m 316 983 l 419 977 q 575 501 457 808 q 731 42 693 194 q 718 -17 731 3 q 684 -37 704 -37 q 650 -22 666 -37 q 629 18 635 -8 q 551 256 617 77 q 199 300 271 292 q 156 141 182 251 q 115 -11 130 31 q 69 -35 95 -35 q 20 -10 41 -35 q 0 52 0 15 q 157 518 43 210 q 316 983 271 826 m 363 846 q 213 365 336 682 l 365 365 q 537 358 468 365 q 363 846 397 658 m 404 1069 l 384 1062 q 351 1055 366 1055 q 326 1060 336 1054 q 306 1074 315 1066 q 290 1095 297 1081 q 277 1119 282 1108 q 263 1146 271 1130 q 250 1173 255 1162 l 187 1289 l 296 1276 l 404 1069 z "},"Á":{"ha":730,"x_min":0,"x_max":731,"o":"m 316 983 l 419 977 q 575 501 457 808 q 731 42 693 194 q 718 -17 731 3 q 684 -37 704 -37 q 650 -22 666 -37 q 629 18 635 -8 q 551 256 617 77 q 199 300 271 292 q 156 141 182 251 q 115 -11 130 31 q 69 -35 95 -35 q 20 -10 41 -35 q 0 52 0 15 q 157 518 43 210 q 316 983 271 826 m 363 846 q 213 365 336 682 l 365 365 q 537 358 468 365 q 363 846 397 658 m 359 1062 l 339 1069 l 448 1276 l 556 1289 l 494 1173 q 480 1146 488 1162 q 467 1119 472 1130 q 454 1095 461 1108 q 437 1074 446 1081 q 418 1060 429 1066 q 392 1055 407 1054 q 359 1062 377 1055 z "},"Â":{"ha":730,"x_min":0,"x_max":731,"o":"m 316 983 l 419 977 q 575 501 457 808 q 731 42 693 194 q 718 -17 731 3 q 684 -37 704 -37 q 650 -22 666 -37 q 629 18 635 -8 q 551 256 617 77 q 199 300 271 292 q 156 141 182 251 q 115 -11 130 31 q 69 -35 95 -35 q 20 -10 41 -35 q 0 52 0 15 q 157 518 43 210 q 316 983 271 826 m 363 846 q 213 365 336 682 l 365 365 q 537 358 468 365 q 363 846 397 658 m 354 1221 l 431 1215 l 567 1009 l 555 1002 q 494 1001 519 985 q 420 1085 468 1017 l 362 1166 l 260 1013 l 161 1001 q 273 1181 237 1139 q 354 1221 308 1223 z "},"Ä":{"ha":730,"x_min":0,"x_max":731,"o":"m 316 983 l 419 977 q 575 501 457 808 q 731 42 693 194 q 718 -17 731 3 q 684 -37 704 -37 q 650 -22 666 -37 q 629 18 635 -8 q 551 256 617 77 q 199 300 271 292 q 156 141 182 251 q 115 -11 130 31 q 69 -35 95 -35 q 20 -10 41 -35 q 0 52 0 15 q 157 518 43 210 q 316 983 271 826 m 363 846 q 213 365 336 682 l 365 365 q 537 358 468 365 q 363 846 397 658 m 224 1211 q 285 1179 260 1211 q 309 1107 309 1147 q 295 1059 309 1077 q 256 1040 281 1040 q 197 1072 218 1040 q 175 1145 175 1103 q 188 1193 175 1175 q 224 1211 201 1211 m 458 1211 q 519 1179 495 1211 q 544 1107 544 1147 q 530 1059 544 1077 q 491 1040 515 1040 q 431 1072 453 1040 q 410 1145 410 1103 q 422 1193 410 1175 q 458 1211 435 1211 z "},"Å":{"ha":730,"x_min":0,"x_max":731,"o":"m 254 1016 q 286 1095 254 1062 q 362 1127 319 1127 q 433 1098 403 1127 q 463 1024 463 1069 q 427 939 463 977 q 579 488 465 783 q 731 42 693 194 q 718 -17 731 3 q 684 -37 704 -37 q 650 -22 666 -37 q 629 18 635 -8 q 551 256 617 77 q 199 300 271 292 q 156 141 182 251 q 115 -11 130 31 q 69 -35 95 -35 q 20 -10 41 -35 q 0 52 0 15 q 151 504 42 210 q 301 930 260 798 q 254 1016 254 959 m 363 846 q 213 365 336 682 l 365 365 q 537 358 468 365 q 363 846 397 658 m 361 1072 q 323 1056 338 1072 q 308 1019 308 1040 q 321 983 308 1000 q 361 967 334 967 q 399 984 387 967 q 411 1024 411 1001 q 398 1057 411 1043 q 361 1072 385 1072 z "},"Æ":{"ha":1164,"x_min":14,"x_max":1137,"o":"m 1100 61 l 1114 0 q 922 -5 1061 0 q 720 -9 783 -9 q 583 0 620 -9 q 595 278 589 71 q 429 290 522 288 q 270 300 335 293 q 193 146 254 256 q 115 -11 132 37 q 69 -35 95 -35 q 28 -12 42 -35 q 14 52 14 12 q 278 520 79 199 q 553 993 477 841 l 1122 968 l 1137 907 q 892 882 1076 897 q 700 865 709 867 q 706 738 701 834 q 712 579 711 642 q 880 564 758 574 q 1035 551 1002 553 l 1048 488 q 713 461 762 463 q 711 302 713 408 q 709 144 709 195 q 716 100 711 132 q 1100 61 1021 72 m 609 883 q 531 764 589 850 q 437 623 473 678 q 358 495 401 567 q 292 374 315 423 q 473 371 361 370 q 597 369 585 372 q 600 536 598 427 q 603 728 601 644 q 609 883 605 812 z "},"Ç":{"ha":732,"x_min":56,"x_max":719,"o":"m 444 -236 q 410 -184 444 -201 q 327 -178 376 -168 l 327 -45 q 181 61 245 -27 q 86 257 117 149 q 56 464 56 365 q 69 635 56 552 q 115 803 83 719 q 214 939 148 887 q 370 990 279 990 q 533 963 449 990 q 677 895 617 936 l 623 833 q 414 911 517 911 q 297 879 346 911 q 223 800 248 846 q 184 684 198 754 q 166 562 170 613 q 163 441 163 510 q 188 287 163 373 q 273 126 213 201 q 411 52 332 52 q 673 141 496 52 q 719 56 690 115 q 411 -46 595 -28 l 411 -96 q 506 -145 467 -109 q 545 -235 545 -182 q 500 -347 545 -304 q 382 -391 456 -391 q 320 -381 351 -391 l 331 -304 q 444 -236 444 -319 z "},"È":{"ha":635,"x_min":56,"x_max":609,"o":"m 572 61 l 586 0 q 394 -5 533 0 q 193 -9 255 -9 q 56 0 92 -9 q 72 499 69 149 q 90 987 75 849 q 334 981 136 983 q 594 968 533 978 l 609 907 q 365 882 548 897 q 172 865 182 867 q 178 738 174 834 q 184 579 183 642 q 353 564 231 574 q 507 551 475 553 l 521 488 q 186 461 235 463 q 184 280 186 401 q 182 102 182 159 q 572 61 492 73 m 404 1070 l 384 1063 q 351 1056 366 1057 q 326 1061 336 1055 q 306 1075 315 1067 q 290 1096 297 1082 q 277 1120 282 1109 q 263 1147 271 1131 q 250 1175 255 1164 l 187 1290 l 296 1278 l 404 1070 z "},"É":{"ha":635,"x_min":56,"x_max":609,"o":"m 572 61 l 586 0 q 394 -5 533 0 q 193 -9 255 -9 q 56 0 92 -9 q 72 499 69 149 q 90 987 75 849 q 334 981 136 983 q 594 968 533 978 l 609 907 q 365 882 548 897 q 172 865 182 867 q 178 738 174 834 q 184 579 183 642 q 353 564 231 574 q 507 551 475 553 l 521 488 q 186 461 235 463 q 184 280 186 401 q 182 102 182 159 q 572 61 492 73 m 467 1286 l 486 1279 l 378 1073 l 270 1059 l 332 1175 q 346 1202 338 1185 q 359 1229 354 1218 q 372 1253 365 1240 q 389 1274 380 1267 q 408 1288 397 1282 q 434 1293 419 1294 q 467 1286 449 1293 z "},"Ê":{"ha":635,"x_min":56,"x_max":609,"o":"m 572 61 l 586 0 q 394 -5 533 0 q 193 -9 255 -9 q 56 0 92 -9 q 72 499 69 149 q 90 987 75 849 q 334 981 136 983 q 594 968 533 978 l 609 907 q 365 882 548 897 q 172 865 182 867 q 178 738 174 834 q 184 579 183 642 q 353 564 231 574 q 507 551 475 553 l 521 488 q 186 461 235 463 q 184 280 186 401 q 182 102 182 159 q 572 61 492 73 m 326 1260 l 403 1255 l 538 1048 l 526 1042 q 465 1040 491 1024 q 392 1124 439 1057 l 334 1206 l 232 1053 l 133 1040 q 244 1221 209 1179 q 326 1260 279 1263 z "},"Ë":{"ha":635,"x_min":56,"x_max":609,"o":"m 572 61 l 586 0 l 562 0 q 392 -5 525 0 q 193 -9 259 -9 q 56 0 92 -9 q 72 499 69 149 q 90 987 75 849 q 334 981 136 983 q 594 968 533 978 l 609 907 q 365 882 548 897 q 172 865 182 867 q 178 738 174 834 q 184 579 183 642 q 353 564 231 574 q 507 551 475 553 l 521 488 q 186 461 235 463 q 184 280 186 401 q 182 102 182 159 q 572 61 492 73 m 175 1293 q 237 1261 212 1293 q 262 1190 262 1230 q 248 1141 262 1160 q 209 1122 233 1122 q 149 1153 171 1122 q 126 1226 126 1184 q 139 1274 126 1256 q 175 1293 152 1293 m 465 1293 q 527 1261 502 1293 q 552 1190 552 1230 q 538 1141 552 1160 q 499 1122 524 1122 q 439 1153 461 1122 q 416 1226 416 1184 q 429 1274 416 1256 q 465 1293 442 1293 z "},"Í":{"ha":457,"x_min":27,"x_max":430,"o":"m 33 -4 l 30 62 q 184 84 155 83 q 186 222 186 130 q 180 574 186 345 q 174 879 175 804 l 37 886 l 27 964 q 199 963 83 963 q 377 962 319 963 l 381 894 q 316 882 358 884 q 263 879 274 880 q 268 688 267 841 q 269 349 269 534 q 271 84 269 163 q 354 75 293 80 q 430 66 415 69 l 427 -4 q 298 -3 387 -3 q 161 -3 252 -3 q 33 -4 71 -4 m 165 1063 l 145 1070 l 254 1278 l 362 1290 l 300 1175 q 286 1147 294 1164 q 273 1120 278 1131 q 260 1096 267 1109 q 243 1075 252 1082 q 224 1061 235 1067 q 198 1056 213 1055 q 165 1063 183 1057 z "},"Î":{"ha":457,"x_min":9,"x_max":430,"o":"m 33 -4 l 30 62 q 184 84 155 83 q 186 222 186 130 q 180 574 186 345 q 174 879 175 804 l 37 886 l 27 964 q 199 963 83 963 q 377 962 319 963 l 381 894 q 316 882 358 884 q 263 879 274 880 q 268 688 267 841 q 269 349 269 534 q 271 84 269 163 q 354 75 293 80 q 430 66 415 69 l 427 -4 q 298 -3 387 -3 q 161 -3 252 -3 q 33 -4 71 -4 m 202 1261 l 279 1256 l 415 1050 l 403 1043 q 342 1042 368 1025 q 269 1126 316 1058 l 210 1207 l 109 1054 l 9 1042 q 121 1222 85 1180 q 202 1261 156 1264 z "},"Ï":{"ha":457,"x_min":15,"x_max":430,"o":"m 33 -4 l 30 62 q 184 84 155 83 q 186 222 186 130 q 180 574 186 345 q 174 879 175 804 l 37 886 l 27 964 q 199 963 83 963 q 377 962 319 963 l 381 894 q 316 882 358 884 q 263 879 274 880 q 268 688 267 841 q 269 349 269 534 q 271 84 269 163 q 354 75 293 80 q 430 66 415 69 l 427 -4 q 298 -3 387 -3 q 161 -3 252 -3 q 33 -4 71 -4 m 64 1223 q 125 1192 100 1223 q 151 1119 151 1160 q 136 1071 151 1089 q 98 1053 122 1053 q 37 1084 60 1053 q 15 1157 15 1115 q 28 1205 15 1187 q 64 1223 41 1223 m 298 1223 q 360 1192 335 1223 q 385 1119 385 1160 q 371 1071 385 1089 q 332 1053 357 1053 q 272 1084 294 1053 q 250 1157 250 1115 q 262 1205 250 1187 q 298 1223 275 1223 z "},"Ñ":{"ha":762,"x_min":56,"x_max":707,"o":"m 56 38 l 73 977 l 146 977 l 590 134 l 590 241 q 605 978 590 651 l 682 963 q 707 -7 697 669 q 647 -19 678 -19 q 551 8 601 -19 q 345 381 468 136 q 171 718 222 627 q 173 381 172 625 q 178 11 174 137 q 130 -31 165 -31 q 83 -11 106 -31 q 56 38 61 9 m 437 1097 q 474 1107 461 1097 q 500 1149 487 1118 l 567 1118 q 435 1013 528 1006 q 363 1045 410 1015 q 300 1078 316 1076 q 235 1028 269 1081 l 176 1058 q 227 1145 199 1124 q 301 1164 255 1165 q 372 1130 327 1162 q 437 1097 418 1097 z "},"Ó":{"ha":727,"x_min":57,"x_max":673,"o":"m 57 454 q 57 524 57 500 q 59 597 57 548 q 64 674 61 646 q 75 748 68 703 q 92 821 81 793 q 117 884 103 849 q 153 941 132 920 q 201 983 175 963 q 262 1012 227 1002 q 339 1021 297 1021 q 486 988 423 1021 q 583 905 548 955 q 640 781 618 854 q 667 642 661 708 q 673 495 673 575 q 671 397 673 441 q 663 299 669 354 q 645 202 656 244 q 613 117 633 160 q 565 47 593 75 q 495 1 537 19 q 401 -16 453 -16 q 257 4 317 -16 q 158 61 197 24 q 97 157 119 98 q 66 288 75 217 q 57 454 57 358 m 575 444 q 565 582 575 510 q 531 736 555 654 q 456 871 507 819 q 332 924 404 924 q 237 851 278 924 q 178 688 195 779 q 160 518 160 598 q 161 433 160 463 q 165 351 161 404 q 177 266 170 297 q 201 194 184 235 q 239 131 217 153 q 298 92 262 109 q 378 73 334 75 q 526 184 477 79 q 575 444 575 290 m 317 1104 l 297 1111 l 406 1318 l 514 1331 l 452 1215 q 438 1188 446 1204 q 425 1161 430 1172 q 412 1137 419 1150 q 395 1116 404 1123 q 376 1102 387 1108 q 350 1097 365 1096 q 317 1104 335 1097 z "},"Ô":{"ha":727,"x_min":57,"x_max":673,"o":"m 57 454 q 57 524 57 500 q 59 597 57 548 q 64 674 61 646 q 75 748 68 703 q 92 821 81 793 q 117 884 103 849 q 153 941 132 920 q 201 983 175 963 q 262 1012 227 1002 q 339 1021 297 1021 q 486 988 423 1021 q 583 905 548 955 q 640 781 618 854 q 667 642 661 708 q 673 495 673 575 q 671 397 673 441 q 663 299 669 354 q 645 202 656 244 q 613 117 633 160 q 565 47 593 75 q 495 1 537 19 q 401 -16 453 -16 q 257 4 317 -16 q 158 61 197 24 q 97 157 119 98 q 66 288 75 217 q 57 454 57 358 m 575 444 q 565 582 575 510 q 531 736 555 654 q 456 871 507 819 q 332 924 404 924 q 237 851 278 924 q 178 688 195 779 q 160 518 160 598 q 161 433 160 463 q 165 351 161 404 q 177 266 170 297 q 201 194 184 235 q 239 131 217 153 q 298 92 262 109 q 378 73 334 75 q 526 184 477 79 q 575 444 575 290 m 326 1289 l 403 1283 l 538 1077 l 526 1070 q 465 1069 491 1053 q 392 1153 439 1085 l 334 1234 l 232 1081 l 133 1069 q 244 1249 209 1207 q 326 1289 279 1291 z "},"Ö":{"ha":727,"x_min":57,"x_max":673,"o":"m 57 454 q 57 524 57 500 q 59 597 57 548 q 64 674 61 646 q 75 748 68 703 q 92 821 81 793 q 117 884 103 849 q 153 941 132 920 q 201 983 175 963 q 262 1012 227 1002 q 339 1021 297 1021 q 486 988 423 1021 q 583 905 548 955 q 640 781 618 854 q 667 642 661 708 q 673 495 673 575 q 671 397 673 441 q 663 299 669 354 q 645 202 656 244 q 613 117 633 160 q 565 47 593 75 q 495 1 537 19 q 401 -16 453 -16 q 257 4 317 -16 q 158 61 197 24 q 97 157 119 98 q 66 288 75 217 q 57 454 57 358 m 575 444 q 565 582 575 510 q 531 736 555 654 q 456 871 507 819 q 332 924 404 924 q 237 851 278 924 q 178 688 195 779 q 160 518 160 598 q 161 433 160 463 q 165 351 161 404 q 177 266 170 297 q 201 194 184 235 q 239 131 217 153 q 298 92 262 109 q 378 73 334 75 q 526 184 477 79 q 575 444 575 290 m 175 1265 q 237 1234 212 1265 q 262 1161 262 1202 q 248 1113 262 1131 q 209 1095 233 1095 q 149 1126 171 1095 q 126 1199 126 1157 q 139 1247 126 1229 q 175 1265 152 1265 m 465 1265 q 527 1234 502 1265 q 552 1161 552 1202 q 538 1113 552 1131 q 499 1095 524 1095 q 439 1126 461 1095 q 416 1199 416 1157 q 429 1247 416 1229 q 465 1265 442 1265 z "},"Ù":{"ha":728,"x_min":56,"x_max":674,"o":"m 576 1006 l 656 1000 q 674 578 674 750 q 667 293 674 453 q 656 178 665 225 q 628 87 648 132 q 573 16 608 42 q 483 -26 538 -11 q 349 -42 427 -42 q 248 -32 292 -42 q 176 -5 205 -22 q 126 37 146 11 q 94 92 106 64 q 77 160 83 121 q 68 235 71 199 q 62 317 65 270 q 62 323 62 321 q 56 604 56 488 q 64 997 56 701 l 138 981 q 153 625 141 856 q 170 296 165 393 q 174 222 171 250 q 186 160 176 195 q 214 106 197 125 q 264 73 232 87 q 345 60 297 60 q 427 66 392 60 q 484 88 461 72 q 520 121 506 104 q 543 169 534 137 q 554 224 551 201 q 562 294 557 248 q 572 671 571 411 q 576 1006 574 932 m 419 1027 l 399 1020 q 366 1013 381 1013 q 340 1018 351 1012 q 321 1031 330 1024 q 304 1053 312 1039 q 292 1077 297 1066 q 278 1104 286 1088 q 264 1131 270 1120 l 202 1246 l 311 1234 l 419 1027 z "},"Ú":{"ha":728,"x_min":56,"x_max":674,"o":"m 576 1006 l 656 1000 q 674 578 674 750 q 667 293 674 453 q 656 178 665 225 q 628 87 648 132 q 573 16 608 42 q 483 -26 538 -11 q 349 -42 427 -42 q 248 -32 292 -42 q 176 -5 205 -22 q 126 37 146 11 q 94 92 106 64 q 77 160 83 121 q 68 235 71 199 q 62 317 65 270 q 62 323 62 321 q 56 604 56 488 q 64 997 56 701 l 138 981 q 153 625 141 856 q 170 296 165 393 q 174 222 171 250 q 186 160 176 195 q 214 106 197 125 q 264 73 232 87 q 345 60 297 60 q 427 66 392 60 q 484 88 461 72 q 520 121 506 104 q 543 169 534 137 q 554 224 551 201 q 562 294 557 248 q 572 671 571 411 q 576 1006 574 932 m 330 1020 l 309 1027 l 418 1234 l 526 1246 l 464 1131 q 450 1104 458 1120 q 437 1077 442 1088 q 424 1053 431 1066 q 408 1031 416 1039 q 388 1018 399 1024 q 362 1013 377 1012 q 330 1020 347 1013 z "},"Û":{"ha":728,"x_min":56,"x_max":674,"o":"m 576 1006 l 656 1000 q 674 578 674 750 q 667 293 674 453 q 656 178 665 225 q 628 87 648 132 q 573 16 608 42 q 483 -26 538 -11 q 349 -42 427 -42 q 248 -32 292 -42 q 176 -5 205 -22 q 126 37 146 11 q 94 92 106 64 q 77 160 83 121 q 68 235 71 199 q 62 317 65 270 q 62 323 62 321 q 56 604 56 488 q 64 997 56 701 l 138 981 q 153 625 141 856 q 170 296 165 393 q 174 222 171 250 q 186 160 176 195 q 214 106 197 125 q 264 73 232 87 q 345 60 297 60 q 427 66 392 60 q 484 88 461 72 q 520 121 506 104 q 543 169 534 137 q 554 224 551 201 q 562 294 557 248 q 572 671 571 411 q 576 1006 574 932 m 339 1276 l 416 1271 l 552 1065 l 540 1058 q 479 1057 505 1040 q 406 1141 453 1073 l 347 1222 l 245 1069 l 146 1057 q 258 1237 222 1195 q 339 1276 293 1279 z "},"Ü":{"ha":728,"x_min":56,"x_max":674,"o":"m 576 1006 l 656 1000 q 674 578 674 750 q 667 293 674 453 q 656 178 665 225 q 628 87 648 132 q 573 16 608 42 q 483 -26 538 -11 q 349 -42 427 -42 q 248 -32 292 -42 q 176 -5 205 -22 q 126 37 146 11 q 94 92 106 64 q 77 160 83 121 q 68 235 71 199 q 62 317 65 270 q 62 323 62 321 q 56 604 56 488 q 64 997 56 701 l 138 981 q 153 625 141 856 q 170 296 165 393 q 174 222 171 250 q 186 160 176 195 q 214 106 197 125 q 264 73 232 87 q 345 60 297 60 q 427 66 392 60 q 484 88 461 72 q 520 121 506 104 q 543 169 534 137 q 554 224 551 201 q 562 294 557 248 q 572 671 571 411 q 576 1006 574 932 m 217 1210 q 278 1178 254 1210 q 302 1105 302 1146 q 288 1057 302 1076 q 250 1039 274 1039 q 190 1070 212 1039 q 168 1143 168 1101 q 181 1192 168 1173 q 217 1210 194 1210 m 438 1210 q 499 1178 475 1210 q 524 1105 524 1146 q 509 1057 524 1076 q 471 1039 495 1039 q 411 1070 433 1039 q 389 1143 389 1101 q 402 1192 389 1173 q 438 1210 415 1210 z "},"ß":{"ha":812,"x_min":69,"x_max":750,"o":"m 651 779 q 618 684 651 724 q 548 625 586 644 q 477 575 510 605 q 445 509 445 545 q 476 458 445 480 q 553 416 507 435 q 643 372 598 397 q 719 302 688 347 q 750 197 750 258 q 686 45 750 110 q 521 -22 623 -20 q 382 9 446 -22 q 279 88 317 41 l 317 129 q 366 107 334 122 q 412 87 399 92 q 452 77 426 83 q 509 72 479 72 q 612 100 572 72 q 652 180 652 129 q 622 270 652 233 q 548 327 591 307 q 462 368 505 347 q 389 423 419 388 q 358 510 358 458 q 378 592 358 557 q 427 647 399 627 q 485 685 456 667 q 534 729 514 703 q 555 791 555 755 q 517 868 555 837 q 410 899 479 899 q 231 844 294 899 q 170 701 168 788 l 178 18 q 123 -35 161 -35 q 90 -20 106 -35 q 69 18 75 -5 q 75 258 69 33 q 80 711 80 483 q 170 914 80 836 q 408 993 259 993 q 585 930 519 993 q 651 779 651 867 z "},"à":{"ha":557,"x_min":27,"x_max":503,"o":"m 104 586 l 77 655 q 167 711 113 690 q 274 732 221 732 q 503 336 503 732 q 497 176 503 282 q 491 18 491 71 q 449 -24 480 -24 q 404 0 425 -24 q 384 54 384 24 q 385 68 384 64 q 206 -14 301 -14 q 81 39 134 -14 q 27 165 27 91 q 125 393 27 292 q 349 495 224 495 q 359 494 354 495 q 372 492 365 494 q 384 491 380 491 q 258 650 373 650 q 104 586 190 650 m 388 161 q 391 305 391 256 q 388 419 391 346 l 377 419 q 201 347 281 418 q 122 176 122 277 q 149 107 122 133 q 213 81 175 81 q 388 161 273 81 m 334 819 l 313 812 q 281 805 296 806 q 255 810 266 804 q 235 824 244 817 q 219 845 227 831 q 206 869 212 859 q 193 897 201 880 q 179 924 184 913 l 117 1039 l 225 1027 l 334 819 z "},"á":{"ha":557,"x_min":27,"x_max":503,"o":"m 104 586 l 77 655 q 167 711 113 690 q 274 732 221 732 q 503 336 503 732 q 497 176 503 282 q 491 18 491 71 q 449 -24 480 -24 q 404 0 425 -24 q 384 54 384 24 q 385 68 384 64 q 206 -14 301 -14 q 81 39 134 -14 q 27 165 27 91 q 125 393 27 292 q 349 495 224 495 q 359 494 354 495 q 372 492 365 494 q 384 491 380 491 q 258 650 373 650 q 104 586 190 650 m 388 161 q 391 305 391 256 q 388 419 391 346 l 377 419 q 201 347 281 418 q 122 176 122 277 q 149 107 122 133 q 213 81 175 81 q 388 161 273 81 m 275 812 l 255 819 l 363 1027 l 472 1039 l 410 924 q 396 897 404 913 q 382 869 388 880 q 370 845 377 859 q 353 824 362 831 q 334 810 345 817 q 308 805 323 804 q 275 812 293 806 z "},"â":{"ha":557,"x_min":27,"x_max":503,"o":"m 104 586 l 77 655 q 167 711 113 690 q 274 732 221 732 q 503 336 503 732 q 497 176 503 282 q 491 18 491 71 q 449 -24 480 -24 q 404 0 425 -24 q 384 54 384 24 q 385 68 384 64 q 206 -14 301 -14 q 81 39 134 -14 q 27 165 27 91 q 125 393 27 292 q 349 495 224 495 q 359 494 354 495 q 372 492 365 494 q 384 491 380 491 q 258 650 373 650 q 104 586 190 650 m 388 161 q 391 305 391 256 q 388 419 391 346 l 377 419 q 201 347 281 418 q 122 176 122 277 q 149 107 122 133 q 213 81 175 81 q 388 161 273 81 m 266 1004 l 343 998 l 479 792 l 467 785 q 406 784 431 768 q 332 868 380 800 l 274 949 l 172 796 l 73 784 q 184 964 149 922 q 266 1004 220 1006 z "},"ä":{"ha":557,"x_min":27,"x_max":503,"o":"m 104 586 l 77 655 q 167 711 113 690 q 274 732 221 732 q 503 336 503 732 q 497 176 503 282 q 491 18 491 71 q 449 -24 480 -24 q 404 0 425 -24 q 384 54 384 24 q 385 68 384 64 q 206 -14 301 -14 q 81 39 134 -14 q 27 165 27 91 q 125 393 27 292 q 349 495 224 495 q 359 494 354 495 q 372 492 365 494 q 384 491 380 491 q 258 650 373 650 q 104 586 190 650 m 388 161 q 391 305 391 256 q 388 419 391 346 l 377 419 q 201 347 281 418 q 122 176 122 277 q 149 107 122 133 q 213 81 175 81 q 388 161 273 81 m 118 972 q 179 941 155 972 q 203 868 203 909 q 190 820 203 838 q 152 802 176 802 q 92 834 114 802 q 69 906 69 867 q 82 954 69 936 q 118 972 95 972 m 397 972 q 458 941 434 972 q 483 868 483 909 q 469 820 483 838 q 430 802 454 802 q 370 834 392 802 q 349 906 349 867 q 361 954 349 936 q 397 972 374 972 z "},"å":{"ha":557,"x_min":27,"x_max":503,"o":"m 104 586 l 77 655 q 167 711 113 690 q 274 732 221 732 q 503 336 503 732 q 497 176 503 282 q 491 18 491 71 q 449 -24 480 -24 q 404 0 425 -24 q 384 54 384 24 q 385 68 384 64 q 206 -14 301 -14 q 81 39 134 -14 q 27 165 27 91 q 125 393 27 292 q 349 495 224 495 q 359 494 354 495 q 372 492 365 494 q 384 491 380 491 q 258 650 373 650 q 104 586 190 650 m 388 161 q 391 305 391 256 q 388 419 391 346 l 377 419 q 201 347 281 418 q 122 176 122 277 q 149 107 122 133 q 213 81 175 81 q 388 161 273 81 m 172 880 q 205 960 172 926 q 281 993 237 993 q 351 963 320 993 q 381 888 381 933 q 353 811 381 845 q 281 777 324 777 q 205 806 239 777 q 172 880 172 836 m 279 936 q 241 920 256 936 q 227 883 227 905 q 241 848 227 864 q 279 831 255 831 q 317 848 305 831 q 330 888 330 865 q 317 922 330 907 q 279 936 304 936 z "},"æ":{"ha":940,"x_min":27,"x_max":913,"o":"m 901 132 l 913 72 q 860 50 902 68 q 793 24 818 33 q 719 6 768 15 q 617 -3 670 -3 q 450 100 511 -3 q 220 -14 350 -14 q 79 37 130 -14 q 27 165 27 87 q 127 355 27 292 q 384 422 228 419 q 355 593 384 537 q 258 650 327 650 q 104 586 190 650 l 77 655 q 167 711 113 690 q 274 732 221 732 q 454 602 403 732 q 701 709 530 709 q 830 663 774 709 q 886 541 886 616 q 869 477 886 506 q 831 429 853 449 q 768 394 808 410 q 700 370 728 378 q 623 354 671 362 q 553 344 574 346 q 490 338 532 342 q 528 165 494 236 q 639 95 562 95 q 748 104 688 95 q 853 122 808 113 q 901 132 898 132 m 388 161 q 391 278 391 256 q 390 302 391 296 q 389 315 389 308 q 388 336 388 321 l 377 336 q 285 330 324 336 q 205 309 245 324 q 144 259 165 293 q 122 176 122 225 q 153 106 122 132 q 240 81 184 81 q 388 161 338 81 m 496 422 q 682 463 595 429 q 784 533 768 496 q 758 598 774 578 q 709 618 742 618 q 568 562 628 618 q 496 422 507 506 z "},"ç":{"ha":543,"x_min":56,"x_max":529,"o":"m 513 673 l 506 614 q 408 623 449 623 q 254 566 315 623 q 170 433 193 510 q 148 263 148 357 q 153 186 148 220 q 173 119 159 152 q 218 68 187 87 q 293 50 248 50 q 445 73 353 50 q 490 84 473 84 q 529 8 522 84 q 328 -26 437 -20 l 328 -81 q 428 -121 393 -95 q 463 -208 463 -146 q 416 -296 463 -258 q 298 -335 370 -335 q 236 -326 267 -335 l 247 -248 q 359 -194 359 -263 q 325 -154 359 -167 q 243 -151 290 -141 l 243 -27 q 100 58 145 -18 q 56 278 56 133 q 68 444 56 373 q 114 577 81 515 q 208 671 146 639 q 359 704 270 704 q 513 673 460 704 z "},"è":{"ha":614,"x_min":56,"x_max":616,"o":"m 602 132 l 616 72 q 439 24 556 50 q 264 -3 321 -3 q 163 36 206 -3 q 98 135 119 75 q 66 254 76 195 q 56 370 56 313 q 362 709 56 709 q 491 663 435 709 q 547 541 547 616 q 524 469 547 500 q 470 420 502 438 q 389 387 438 401 q 301 365 339 372 q 210 350 263 358 q 137 338 157 342 q 142 269 138 298 q 155 204 145 239 q 182 147 165 170 q 229 110 199 125 q 300 95 259 95 q 419 104 349 95 q 545 122 490 113 q 602 132 600 132 m 142 422 q 445 533 327 475 q 419 598 435 578 q 370 618 403 618 q 220 562 288 618 q 142 422 153 505 m 391 792 l 370 785 q 338 778 353 779 q 312 783 323 777 q 292 797 301 789 q 276 818 283 804 q 263 842 269 831 q 250 869 258 853 q 236 897 241 886 l 174 1012 l 282 1000 l 391 792 z "},"é":{"ha":614,"x_min":56,"x_max":616,"o":"m 602 132 l 616 72 q 439 24 556 50 q 264 -3 321 -3 q 163 36 206 -3 q 98 135 119 75 q 66 254 76 195 q 56 370 56 313 q 362 709 56 709 q 491 663 435 709 q 547 541 547 616 q 524 469 547 500 q 470 420 502 438 q 389 387 438 401 q 301 365 339 372 q 210 350 263 358 q 137 338 157 342 q 142 269 138 298 q 155 204 145 239 q 182 147 165 170 q 229 110 199 125 q 300 95 259 95 q 419 104 349 95 q 545 122 490 113 q 602 132 600 132 m 142 422 q 445 533 327 475 q 419 598 435 578 q 370 618 403 618 q 220 562 288 618 q 142 422 153 505 m 453 994 l 472 987 l 363 780 l 255 768 l 317 883 q 331 910 323 894 q 345 937 339 926 q 358 962 350 948 q 375 983 366 975 q 395 996 384 990 q 420 1002 406 1002 q 453 994 435 1001 z "},"ê":{"ha":614,"x_min":56,"x_max":616,"o":"m 602 132 l 616 72 q 439 24 556 50 q 264 -3 321 -3 q 163 36 206 -3 q 98 135 119 75 q 66 254 76 195 q 56 370 56 313 q 362 709 56 709 q 491 663 435 709 q 547 541 547 616 q 524 469 547 500 q 470 420 502 438 q 389 387 438 401 q 301 365 339 372 q 210 350 263 358 q 137 338 157 342 q 142 269 138 298 q 155 204 145 239 q 182 147 165 170 q 229 110 199 125 q 300 95 259 95 q 419 104 349 95 q 545 122 490 113 q 602 132 600 132 m 142 422 q 445 533 327 475 q 419 598 435 578 q 370 618 403 618 q 220 562 288 618 q 142 422 153 505 m 309 977 l 387 971 l 522 765 l 510 758 q 449 757 475 741 q 376 841 423 773 l 317 922 l 216 769 l 117 757 q 228 937 193 895 q 309 977 263 979 z "},"ë":{"ha":614,"x_min":56,"x_max":616,"o":"m 602 132 l 616 72 q 439 24 556 50 q 264 -3 321 -3 q 163 36 206 -3 q 98 135 119 75 q 66 254 76 195 q 56 370 56 313 q 362 709 56 709 q 491 663 435 709 q 547 541 547 616 q 524 469 547 500 q 470 420 502 438 q 389 387 438 401 q 301 365 339 372 q 210 350 263 358 q 137 338 157 342 q 142 269 138 298 q 155 204 145 239 q 182 147 165 170 q 229 110 199 125 q 300 95 259 95 q 419 104 349 95 q 545 122 490 113 q 602 132 600 132 m 142 422 q 445 533 327 475 q 419 598 435 578 q 370 618 403 618 q 220 562 288 618 q 142 422 153 505 m 163 972 q 224 941 199 972 q 248 868 248 909 q 235 820 248 838 q 197 802 221 802 q 136 834 159 802 q 114 906 114 867 q 127 954 114 936 q 163 972 140 972 m 442 972 q 503 941 479 972 q 528 868 528 909 q 513 820 528 838 q 475 802 499 802 q 415 834 437 802 q 393 906 393 867 q 406 954 393 936 q 442 972 419 972 z "},"í":{"ha":245,"x_min":56,"x_max":279,"o":"m 85 697 l 148 684 q 167 334 159 572 q 178 39 175 96 q 130 -3 165 -3 q 83 17 106 -3 q 56 65 61 37 q 66 355 58 121 q 85 697 75 589 m 83 785 l 62 792 l 171 1000 l 279 1012 l 217 897 q 203 869 212 886 q 190 842 195 853 q 177 818 184 831 q 161 797 170 804 q 141 783 152 789 q 115 778 130 777 q 83 785 100 779 z "},"î":{"ha":245,"x_min":-80,"x_max":326,"o":"m 85 697 l 148 684 q 167 334 159 572 q 178 39 175 96 q 130 -3 165 -3 q 83 17 106 -3 q 56 65 61 37 q 66 355 58 121 q 85 697 75 589 m 113 951 l 190 945 l 326 739 l 313 732 q 252 731 278 715 q 179 815 227 747 l 121 897 l 19 743 l -80 731 q 31 911 -4 869 q 113 951 66 954 z "},"ï":{"ha":245,"x_min":-69,"x_max":288,"o":"m 85 697 l 148 684 q 167 334 159 572 q 178 39 175 96 q 130 -3 165 -3 q 83 17 106 -3 q 56 65 61 37 q 66 355 58 121 q 85 697 75 589 m -20 954 q 41 922 16 954 q 65 850 65 891 q 51 802 65 821 q 12 784 37 784 q -47 814 -26 784 q -69 887 -69 845 q -56 935 -69 917 q -20 954 -43 954 m 201 954 q 263 922 239 954 q 288 850 288 891 q 273 802 288 821 q 235 784 259 784 q 175 814 197 784 q 153 887 153 845 q 165 935 153 917 q 201 954 178 954 z "},"ñ":{"ha":574,"x_min":56,"x_max":519,"o":"m 148 543 l 153 5 q 104 -5 133 -5 q 56 1 83 -5 q 61 338 60 87 q 72 709 62 589 l 133 696 l 137 620 q 302 696 209 696 q 378 689 350 696 q 433 656 407 682 q 473 586 460 629 q 498 462 487 543 q 513 273 509 381 q 519 1 518 165 q 488 -1 511 -1 q 412 11 439 -1 q 407 83 407 33 q 409 180 407 109 q 411 290 411 251 q 406 404 411 355 q 389 500 401 453 q 349 574 376 548 q 283 600 323 600 q 214 593 239 600 q 178 576 189 586 q 148 543 168 567 m 345 867 q 382 877 369 867 q 408 918 395 887 l 475 887 q 343 783 435 776 q 271 814 317 784 q 208 848 224 845 q 142 798 176 850 l 84 827 q 135 914 107 894 q 209 933 163 935 q 280 899 235 932 q 345 867 326 867 z "},"ó":{"ha":620,"x_min":56,"x_max":566,"o":"m 56 289 q 67 410 56 343 q 102 549 79 476 q 171 671 125 623 q 278 720 217 720 q 487 603 408 720 q 566 342 566 486 q 553 220 566 281 q 513 102 540 160 q 435 5 486 43 q 316 -39 384 -34 q 123 67 191 -23 q 56 289 56 157 m 286 650 q 206 563 239 644 q 164 405 174 481 q 155 270 155 328 q 201 130 155 194 q 307 65 248 65 q 382 98 349 65 q 436 178 416 130 q 466 275 456 227 q 476 362 476 324 q 426 556 476 473 q 286 650 376 639 m 439 1023 l 458 1016 l 350 808 l 241 796 l 304 911 q 317 939 309 922 q 331 966 326 955 q 345 990 336 977 q 361 1011 353 1004 q 381 1025 370 1019 q 407 1030 392 1031 q 439 1023 422 1029 z "},"ô":{"ha":620,"x_min":56,"x_max":566,"o":"m 56 289 q 67 410 56 343 q 102 549 79 476 q 171 671 125 623 q 278 720 217 720 q 487 603 408 720 q 566 342 566 486 q 553 220 566 281 q 513 102 540 160 q 435 5 486 43 q 316 -39 384 -34 q 123 67 191 -23 q 56 289 56 157 m 286 650 q 206 563 239 644 q 164 405 174 481 q 155 270 155 328 q 201 130 155 194 q 307 65 248 65 q 382 98 349 65 q 436 178 416 130 q 466 275 456 227 q 476 362 476 324 q 426 556 476 473 q 286 650 376 639 m 285 990 l 362 985 l 498 779 l 486 772 q 425 770 450 754 q 351 854 399 787 l 293 936 l 191 783 l 92 770 q 203 951 168 909 q 285 990 239 993 z "},"ö":{"ha":620,"x_min":56,"x_max":566,"o":"m 56 289 q 67 410 56 343 q 102 549 79 476 q 171 671 125 623 q 278 720 217 720 q 487 603 408 720 q 566 342 566 486 q 553 220 566 281 q 513 102 540 160 q 435 5 486 43 q 316 -39 384 -34 q 123 67 191 -23 q 56 289 56 157 m 286 650 q 206 563 239 644 q 164 405 174 481 q 155 270 155 328 q 201 130 155 194 q 307 65 248 65 q 382 98 349 65 q 436 178 416 130 q 466 275 456 227 q 476 362 476 324 q 426 556 476 473 q 286 650 376 639 m 130 963 q 191 931 167 963 q 216 859 216 899 q 202 810 216 829 q 164 792 189 792 q 104 825 126 792 q 81 897 81 857 q 94 945 81 926 q 130 963 107 963 m 410 963 q 471 931 446 963 q 495 859 495 899 q 481 810 495 829 q 442 792 467 792 q 382 825 404 792 q 361 897 361 857 q 374 945 361 926 q 410 963 387 963 z "},"ù":{"ha":610,"x_min":56,"x_max":556,"o":"m 458 681 l 524 669 l 524 655 q 535 343 524 563 q 556 4 547 123 q 505 -7 529 -7 q 456 0 483 -7 l 445 35 q 279 -14 358 -14 q 178 14 221 -14 q 113 81 136 41 q 76 180 90 121 q 59 287 62 239 q 56 395 56 335 q 77 713 56 568 l 138 700 q 148 602 148 655 q 144 499 148 572 q 141 388 141 426 q 147 273 141 321 q 170 180 153 225 q 222 110 187 134 q 311 85 258 85 q 439 113 370 85 q 445 370 442 163 q 458 681 448 576 m 376 724 l 355 718 q 323 710 338 711 q 297 715 308 709 q 277 729 286 722 q 261 750 269 736 q 248 774 254 764 q 235 802 243 785 q 221 829 227 818 l 159 944 l 267 932 l 376 724 z "},"ú":{"ha":610,"x_min":56,"x_max":556,"o":"m 458 681 l 524 669 l 524 655 q 535 343 524 563 q 556 4 547 123 q 505 -7 529 -7 q 456 0 483 -7 l 445 35 q 279 -14 358 -14 q 178 14 221 -14 q 113 81 136 41 q 76 180 90 121 q 59 287 62 239 q 56 395 56 335 q 77 713 56 568 l 138 700 q 148 602 148 655 q 144 499 148 572 q 141 388 141 426 q 147 273 141 321 q 170 180 153 225 q 222 110 187 134 q 311 85 258 85 q 439 113 370 85 q 445 370 442 163 q 458 681 448 576 m 262 731 l 241 738 l 350 945 l 458 958 l 396 842 q 382 815 391 831 q 369 788 374 799 q 356 764 363 777 q 340 743 349 750 q 320 729 331 735 q 294 724 309 723 q 262 731 279 724 z "},"û":{"ha":610,"x_min":56,"x_max":556,"o":"m 458 681 l 524 669 l 524 655 q 535 343 524 563 q 556 4 547 123 q 505 -7 529 -7 q 456 0 483 -7 l 445 35 q 279 -14 358 -14 q 178 14 221 -14 q 113 81 136 41 q 76 180 90 121 q 59 287 62 239 q 56 395 56 335 q 77 713 56 568 l 138 700 q 148 602 148 655 q 144 499 148 572 q 141 388 141 426 q 147 273 141 321 q 170 180 153 225 q 222 110 187 134 q 311 85 258 85 q 439 113 370 85 q 445 370 442 163 q 458 681 448 576 m 294 977 l 372 971 l 507 765 l 495 758 q 434 757 460 741 q 361 841 408 773 l 302 922 l 201 769 l 102 757 q 213 937 178 895 q 294 977 248 979 z "},"ü":{"ha":610,"x_min":56,"x_max":556,"o":"m 458 681 l 524 669 l 524 655 q 535 343 524 563 q 556 4 547 123 q 505 -7 529 -7 q 456 0 483 -7 l 445 35 q 279 -14 358 -14 q 178 14 221 -14 q 113 81 136 41 q 76 180 90 121 q 59 287 62 239 q 56 395 56 335 q 77 713 56 568 l 138 700 q 148 602 148 655 q 144 499 148 572 q 141 388 141 426 q 147 273 141 321 q 170 180 153 225 q 222 110 187 134 q 311 85 258 85 q 439 113 370 85 q 445 370 442 163 q 458 681 448 576 m 184 917 q 246 885 221 917 q 271 812 271 853 q 257 764 271 783 q 218 746 243 746 q 158 779 180 746 q 136 850 136 811 q 149 899 136 880 q 184 917 161 917 m 395 917 q 456 885 431 917 q 480 812 480 853 q 466 764 480 783 q 427 746 452 746 q 368 779 389 746 q 346 850 346 811 q 359 899 346 880 q 395 917 372 917 z "},"ÿ":{"ha":593,"x_min":27,"x_max":593,"o":"m 153 -401 l 69 -354 q 266 12 125 -258 q 98 308 156 110 q 27 704 39 506 l 106 700 q 135 551 113 667 q 171 380 157 435 q 219 241 184 324 q 298 100 254 157 q 487 694 487 463 l 487 709 q 593 684 557 699 q 525 393 571 541 q 410 96 479 245 q 287 -156 340 -54 q 153 -401 233 -258 m 171 930 q 232 899 208 930 q 256 826 256 867 q 243 778 256 796 q 205 760 229 760 q 144 792 167 760 q 122 864 122 825 q 135 912 122 894 q 171 930 148 930 m 381 930 q 442 899 418 930 q 467 826 467 867 q 452 778 467 796 q 414 760 438 760 q 354 792 376 760 q 332 864 332 825 q 345 912 332 894 q 381 930 358 930 z "},"ı":{"ha":245,"x_min":56,"x_max":178,"o":"m 85 697 l 148 684 q 167 334 159 572 q 178 39 175 96 q 130 -3 165 -3 q 83 17 106 -3 q 56 65 61 37 q 66 355 58 121 q 85 697 75 589 z "},"Œ":{"ha":1120,"x_min":69,"x_max":1093,"o":"m 1057 61 l 1072 0 q 880 -5 1019 0 q 678 -9 741 -9 q 552 -3 602 -9 q 181 110 293 -1 q 69 454 69 221 q 195 858 69 731 q 587 985 321 985 q 816 981 616 983 q 1080 968 1016 979 l 1093 907 q 849 882 1032 897 q 656 865 666 867 q 663 734 658 827 q 670 579 669 640 q 838 564 716 574 q 991 551 959 553 l 1005 488 q 671 461 719 463 q 669 280 671 401 q 667 102 667 159 q 1057 61 974 73 m 172 518 q 254 189 172 283 q 541 88 336 95 l 560 895 q 271 793 370 890 q 172 518 172 697 z "},"œ":{"ha":975,"x_min":27,"x_max":935,"o":"m 922 118 l 935 58 q 667 -16 736 -16 q 477 117 522 -16 q 408 8 467 52 q 275 -39 350 -35 q 87 60 146 -23 q 27 302 27 144 q 92 605 27 490 q 264 720 157 720 q 410 682 353 720 q 484 585 468 643 q 738 709 568 709 q 866 665 810 709 q 922 556 922 621 q 912 507 922 529 q 878 467 902 484 q 831 435 854 449 q 766 408 807 422 q 694 385 726 395 q 612 361 663 376 q 528 338 560 347 q 703 80 540 80 q 783 89 732 80 q 876 108 834 98 q 922 118 917 118 m 273 636 q 166 523 206 628 q 126 283 126 418 q 172 124 126 183 q 279 65 217 65 q 423 370 423 65 q 273 636 423 620 m 730 623 q 586 568 651 623 q 521 426 521 513 l 541 433 q 629 460 555 437 q 751 501 703 484 q 829 533 799 518 q 792 598 819 574 q 730 623 765 623 z "},"Ÿ":{"ha":572,"x_min":-27,"x_max":601,"o":"m 526 981 l 601 958 q 541 828 589 935 q 435 609 492 722 q 324 411 378 496 q 331 205 330 345 q 336 4 332 65 q 274 1 324 1 q 217 4 227 1 q 223 204 221 62 q 231 411 225 346 q 79 726 163 524 q -27 975 -4 928 l 64 982 l 278 521 q 390 736 302 564 q 526 981 477 909 m 148 1196 q 209 1164 184 1196 q 233 1092 233 1133 q 219 1044 233 1062 q 180 1025 205 1025 q 121 1057 142 1025 q 99 1130 99 1088 q 112 1178 99 1160 q 148 1196 125 1196 m 382 1196 q 444 1164 419 1196 q 468 1092 468 1133 q 454 1044 468 1062 q 415 1025 439 1025 q 355 1057 377 1025 q 334 1130 334 1088 q 347 1178 334 1160 q 382 1196 359 1196 z "},"ˆ":{"ha":678,"x_min":132,"x_max":537,"o":"m 324 1004 l 401 998 l 537 792 l 525 785 q 464 784 490 768 q 391 868 438 800 l 332 949 l 231 796 l 132 784 q 243 964 208 922 q 324 1004 278 1006 z "},"˚":{"ha":678,"x_min":213,"x_max":422,"o":"m 213 880 q 245 960 213 926 q 321 993 278 993 q 391 963 361 993 q 422 888 422 933 q 393 811 422 845 q 321 777 365 777 q 246 806 279 777 q 213 880 213 836 m 320 936 q 282 920 297 936 q 267 883 267 905 q 281 848 267 864 q 320 831 296 831 q 358 848 346 831 q 370 888 370 865 q 357 922 370 907 q 320 936 345 936 z "},"˜":{"ha":678,"x_min":140,"x_max":530,"o":"m 400 867 q 437 877 425 867 q 464 918 450 887 l 530 887 q 399 783 491 776 q 326 814 373 784 q 263 848 279 845 q 198 798 232 850 l 140 827 q 191 914 163 894 q 264 933 218 935 q 336 899 290 932 q 400 867 381 867 z "},"Ё":{"ha":635,"x_min":56,"x_max":609,"o":"m 572 61 l 586 0 l 562 0 q 392 -5 525 0 q 193 -9 259 -9 q 56 0 92 -9 q 72 499 69 149 q 90 987 75 849 q 334 981 136 983 q 594 968 533 978 l 609 907 q 365 882 548 897 q 172 865 182 867 q 178 738 174 834 q 184 579 183 642 q 353 564 231 574 q 507 551 475 553 l 521 488 q 186 461 235 463 q 184 280 186 401 q 182 102 182 159 q 572 61 492 73 m 175 1293 q 237 1261 212 1293 q 262 1190 262 1230 q 248 1141 262 1160 q 209 1122 233 1122 q 149 1153 171 1122 q 126 1226 126 1184 q 139 1274 126 1256 q 175 1293 152 1293 m 465 1293 q 527 1261 502 1293 q 552 1190 552 1230 q 538 1141 552 1160 q 499 1122 524 1122 q 439 1153 461 1122 q 416 1226 416 1184 q 429 1274 416 1256 q 465 1293 442 1293 z "},"Ђ":{"ha":798,"x_min":0,"x_max":743,"o":"m 642 174 q 608 384 642 309 q 479 458 574 458 q 328 418 418 458 q 317 4 320 42 l 224 -9 q 220 425 220 37 q 217 898 220 814 l 14 910 l 0 971 l 518 1001 q 575 977 552 1000 q 598 926 598 954 q 585 895 598 909 q 544 879 571 882 l 338 890 l 331 540 q 477 564 419 564 q 676 471 609 564 q 743 209 743 377 q 727 56 743 117 q 679 -36 711 -5 q 612 -78 647 -66 q 526 -90 576 -90 q 468 -79 500 -90 l 468 -30 q 601 39 560 -9 q 642 174 642 87 z "},"Ѓ":{"ha":583,"x_min":56,"x_max":583,"o":"m 570 971 l 583 910 q 374 897 524 906 q 165 883 225 888 q 171 452 170 754 q 178 8 172 149 q 130 -34 165 -34 q 83 -14 106 -34 q 56 35 61 7 q 75 834 71 206 q 75 905 75 857 q 76 979 76 952 q 224 975 149 975 q 313 976 254 975 q 403 977 373 977 q 570 971 495 977 m 267 1028 l 227 1065 q 260 1100 229 1069 q 322 1168 290 1131 q 365 1232 354 1206 q 391 1237 373 1237 q 439 1227 416 1237 q 461 1203 461 1218 q 389 1109 461 1171 q 267 1028 316 1048 z "},"Є":{"ha":719,"x_min":56,"x_max":719,"o":"m 164 564 q 179 565 167 564 q 199 566 191 566 q 319 563 244 566 q 450 557 395 560 q 506 553 506 555 l 515 505 q 164 446 460 468 q 161 412 161 427 q 193 262 161 345 q 285 115 225 179 q 411 52 345 52 q 673 141 496 52 q 719 56 690 115 q 412 -62 548 -62 q 254 -9 326 -62 q 141 125 183 43 q 77 296 99 208 q 56 465 56 385 q 63 600 56 534 q 92 739 71 666 q 148 866 114 812 q 239 955 182 920 q 370 990 297 990 q 533 963 449 990 q 677 895 617 936 l 623 833 q 415 911 517 911 q 241 824 311 911 q 164 564 172 736 z "},"Ѕ":{"ha":620,"x_min":14,"x_max":606,"o":"m 38 77 l 57 153 q 289 90 175 90 q 428 123 370 90 q 486 231 486 156 q 437 352 486 297 q 319 449 388 407 q 180 535 250 491 q 62 644 111 579 q 14 787 14 708 q 83 962 14 883 q 250 1042 152 1042 q 416 1012 324 1042 q 570 952 507 982 l 553 898 q 293 951 399 951 q 182 909 228 951 q 136 800 136 867 q 161 709 136 750 q 229 639 187 669 q 321 581 270 609 q 422 519 372 552 q 513 449 472 487 q 581 353 555 411 q 606 224 606 296 q 541 58 606 122 q 372 -7 476 -7 q 181 18 282 -7 q 38 77 80 43 z "},"І":{"ha":457,"x_min":27,"x_max":430,"o":"m 33 -4 l 30 62 q 184 84 155 83 q 186 222 186 130 q 180 574 186 345 q 174 879 175 804 l 37 886 l 27 964 q 199 963 83 963 q 377 962 319 963 l 381 894 q 316 882 358 884 q 263 879 274 880 q 268 688 267 841 q 269 349 269 534 q 271 84 269 163 q 354 75 293 80 q 430 66 415 69 l 427 -4 q 298 -3 387 -3 q 161 -3 252 -3 q 33 -4 71 -4 z "},"Ї":{"ha":457,"x_min":27,"x_max":430,"o":"m 33 -4 l 30 62 q 184 84 155 83 q 186 222 186 130 q 180 574 186 345 q 174 879 175 804 l 37 886 l 27 964 q 199 963 83 963 q 377 962 319 963 l 381 894 q 316 882 358 884 q 263 879 274 880 q 268 688 267 841 q 269 349 269 534 q 271 84 269 163 q 354 75 293 80 q 430 66 415 69 l 427 -4 q 298 -3 387 -3 q 161 -3 252 -3 q 33 -4 71 -4 m 289 1218 q 350 1186 326 1218 q 374 1114 374 1154 q 361 1065 374 1084 q 323 1047 347 1047 q 262 1078 285 1047 q 240 1152 240 1109 q 253 1200 240 1181 q 289 1218 266 1218 m 80 1218 q 142 1186 117 1218 q 167 1114 167 1154 q 153 1065 167 1084 q 114 1047 138 1047 q 54 1078 76 1047 q 33 1152 33 1109 q 45 1200 33 1181 q 80 1218 57 1218 z "},"Ј":{"ha":528,"x_min":0,"x_max":472,"o":"m 0 133 l 69 168 q 248 62 148 62 q 348 117 324 62 q 372 294 372 171 q 369 574 372 384 q 366 872 366 764 q 368 983 366 945 q 393 979 377 979 q 409 980 399 979 q 426 981 419 981 q 467 972 449 981 q 464 831 464 880 q 468 583 464 754 q 472 316 472 411 q 471 224 472 255 q 468 150 471 193 q 459 87 465 107 q 441 41 453 68 q 414 3 430 14 q 372 -19 397 -7 q 315 -35 347 -31 q 239 -38 282 -38 q 0 133 72 -38 z "},"Љ":{"ha":1166,"x_min":-98,"x_max":1139,"o":"m -58 -127 l -98 -57 q 30 59 -23 -7 q 113 191 83 125 q 160 340 142 256 q 182 496 178 425 q 187 661 187 567 q 191 812 187 709 q 194 968 194 914 q 315 975 233 975 q 418 973 349 975 q 522 971 487 971 q 642 977 587 971 q 658 692 658 886 q 656 581 658 618 q 732 585 693 585 q 1025 484 911 585 q 1139 247 1139 382 q 799 -27 1139 -27 q 637 -14 709 -27 q 553 19 564 -1 q 555 69 553 53 q 555 125 555 88 q 556 183 556 163 q 552 430 556 262 q 548 690 548 598 q 552 876 548 784 q 439 880 519 879 q 316 887 358 882 q 296 703 304 817 q 284 503 289 590 q 260 310 279 415 q 207 127 240 205 q 106 -20 174 50 q -58 -127 39 -90 m 656 477 q 671 92 662 319 q 834 80 765 80 q 1025 262 1025 80 q 945 419 1025 355 q 732 483 864 483 q 656 477 690 483 z "},"Њ":{"ha":1088,"x_min":56,"x_max":1061,"o":"m 473 975 l 552 991 q 579 579 575 814 q 654 583 616 583 q 947 482 833 583 q 1061 245 1061 381 q 720 -30 1061 -30 q 559 -16 632 -30 q 475 18 486 -3 l 475 468 q 210 465 387 465 q 159 467 175 465 q 169 224 161 382 q 178 11 176 65 q 130 -31 165 -31 q 83 -11 106 -31 q 56 38 61 9 q 63 491 60 155 q 76 991 66 827 l 137 978 q 138 952 137 970 q 140 925 140 935 q 159 547 156 639 q 311 553 208 551 q 471 562 415 556 q 472 575 472 562 q 473 685 472 589 q 473 975 473 781 m 582 476 q 593 91 583 298 q 757 79 686 79 q 947 259 947 79 q 866 417 947 353 q 654 481 785 481 q 582 476 614 481 z "},"Ћ":{"ha":812,"x_min":0,"x_max":757,"o":"m 14 910 l 0 971 l 518 1001 q 575 977 552 1000 q 598 926 598 954 q 585 895 598 909 q 544 879 571 882 l 338 890 l 331 540 q 477 564 419 564 q 684 473 612 564 q 757 216 757 381 q 732 -12 757 111 l 643 1 q 647 121 647 65 q 611 372 647 285 q 479 458 575 458 q 328 418 418 458 q 328 236 328 395 q 321 4 327 77 l 224 4 q 220 432 220 50 q 217 898 220 814 l 14 910 z "},"Ќ":{"ha":709,"x_min":56,"x_max":709,"o":"m 705 30 l 709 -22 q 572 -43 637 -43 q 466 -10 510 -43 q 399 73 422 23 q 355 182 377 123 q 313 290 332 240 q 255 374 293 340 q 164 407 217 407 l 178 8 q 130 -34 165 -34 q 83 -14 106 -34 q 56 35 61 7 q 65 494 57 64 q 77 993 73 925 l 138 979 q 146 786 140 928 q 155 594 153 644 q 254 638 213 595 q 322 742 296 681 q 376 863 349 803 q 447 966 403 924 q 552 1009 491 1009 q 708 989 598 1009 l 694 935 q 598 948 610 948 q 518 909 551 948 q 464 810 486 869 q 416 690 442 751 q 340 576 391 628 q 217 507 290 525 q 330 449 282 492 q 400 351 377 406 q 445 237 423 297 q 483 127 467 176 q 528 46 499 79 q 600 14 557 14 q 705 30 640 14 m 267 1028 l 227 1065 q 260 1100 229 1069 q 322 1168 290 1131 q 365 1232 354 1206 q 391 1237 373 1237 q 439 1227 416 1237 q 461 1203 461 1218 q 389 1109 461 1171 q 267 1028 316 1048 z "},"Ў":{"ha":666,"x_min":0,"x_max":667,"o":"m 0 925 l 71 991 q 225 682 132 891 q 353 407 319 473 q 557 963 488 755 q 602 996 575 996 q 646 972 627 996 q 667 917 665 948 q 522 595 621 818 q 352 230 422 372 q 203 -43 282 88 l 115 -26 l 290 317 q 0 925 241 452 m 180 1058 l 171 1101 q 235 1097 203 1097 q 407 1149 328 1097 q 460 1130 438 1146 q 481 1092 481 1114 q 469 1063 481 1074 q 433 1048 457 1053 q 392 1042 408 1043 q 349 1042 376 1042 q 180 1058 255 1042 z "},"Џ":{"ha":651,"x_min":56,"x_max":595,"o":"m 343 -227 l 282 -213 l 269 -31 l 76 -31 q 63 470 66 133 q 56 924 60 807 q 83 972 61 952 q 130 991 106 991 q 178 949 165 991 q 165 468 175 861 q 155 71 155 75 q 255 73 190 73 q 363 69 296 73 q 460 65 430 65 q 467 477 460 140 q 473 924 473 814 q 501 972 479 952 q 548 991 524 991 q 595 949 583 991 q 583 500 589 840 q 552 -31 576 160 l 357 -31 l 343 -227 z "},"А":{"ha":730,"x_min":0,"x_max":731,"o":"m 316 983 l 419 977 q 575 501 457 808 q 731 42 693 194 q 718 -17 731 3 q 684 -37 704 -37 q 650 -22 666 -37 q 629 18 635 -8 q 551 256 617 77 q 199 300 271 292 q 156 141 182 251 q 115 -11 130 31 q 69 -35 95 -35 q 20 -10 41 -35 q 0 52 0 15 q 157 518 43 210 q 316 983 271 826 m 363 846 q 213 365 336 682 l 365 365 q 537 358 468 365 q 363 846 397 658 z "},"Б":{"ha":647,"x_min":56,"x_max":620,"o":"m 541 991 l 525 922 q 345 911 456 917 q 164 902 233 906 l 164 595 q 290 614 233 614 q 530 515 441 614 q 620 262 620 415 q 552 113 620 176 q 394 22 484 50 q 212 -5 304 -5 q 56 35 99 -5 q 64 490 60 152 q 77 991 68 827 l 541 991 m 165 534 q 165 503 165 533 q 165 381 165 473 q 164 134 164 289 q 269 88 205 88 q 431 158 353 88 q 510 308 510 228 q 436 479 510 414 q 252 545 362 545 q 165 534 216 545 z "},"В":{"ha":674,"x_min":56,"x_max":620,"o":"m 56 35 l 62 990 q 179 1040 77 1040 q 351 1015 273 1040 q 484 931 430 990 q 537 789 537 872 q 505 663 537 724 q 427 585 473 602 q 567 480 514 572 q 620 262 620 388 q 552 113 620 176 q 394 22 484 50 q 212 -5 304 -5 q 56 35 99 -5 m 167 510 q 164 134 167 416 q 269 88 205 88 q 431 158 353 88 q 510 308 510 228 q 444 463 510 407 q 273 518 377 518 q 167 510 203 518 m 164 610 l 248 612 q 382 663 335 612 q 429 784 429 713 q 381 908 429 856 q 250 960 334 960 q 160 944 212 960 q 163 739 163 861 q 164 610 164 617 z "},"Г":{"ha":583,"x_min":56,"x_max":583,"o":"m 570 971 l 583 910 q 374 897 524 906 q 165 883 225 888 q 171 452 170 754 q 178 8 172 149 q 130 -34 165 -34 q 83 -14 106 -34 q 56 35 61 7 q 75 834 71 206 q 75 905 75 857 q 76 979 76 952 q 224 975 149 975 q 313 976 254 975 q 403 977 373 977 q 570 971 495 977 z "},"Д":{"ha":764,"x_min":0,"x_max":736,"o":"m 731 -174 l 670 -160 q 628 8 658 -57 q 403 16 515 16 q 117 8 307 16 q 85 -190 109 -20 l 27 -184 q 0 65 0 -39 q 1 84 0 71 q 1 104 1 98 q 46 105 3 104 q 91 106 90 106 q 149 261 126 178 q 179 440 171 345 q 190 608 187 536 q 193 793 193 681 q 194 962 193 906 q 617 968 289 968 l 647 118 q 692 114 669 115 q 736 111 715 113 q 732 41 732 83 q 734 -28 732 19 q 735 -98 735 -75 q 731 -174 735 -144 m 199 114 q 309 112 236 114 q 418 110 382 110 q 525 114 469 110 q 528 381 528 199 l 528 651 q 530 891 528 812 q 473 894 492 894 q 383 890 442 894 q 304 884 324 886 q 294 692 300 823 q 283 490 289 562 q 257 311 278 418 q 199 114 236 205 z "},"Е":{"ha":608,"x_min":56,"x_max":609,"o":"m 572 61 l 586 0 q 394 -5 533 0 q 193 -9 255 -9 q 56 0 92 -9 q 72 499 69 149 q 90 987 75 849 q 334 981 136 983 q 594 968 533 978 l 609 907 q 365 882 548 897 q 172 865 182 867 q 178 738 174 834 q 184 579 183 642 q 353 564 231 574 q 507 551 475 553 l 521 488 q 186 461 235 463 q 184 280 186 401 q 182 102 182 159 q 572 61 492 73 z "},"Ж":{"ha":1145,"x_min":-27,"x_max":1173,"o":"m 518 416 q 427 383 465 416 q 370 300 389 350 q 328 191 350 250 q 283 83 305 133 q 216 -1 260 33 q 110 -34 172 -34 q -27 -12 45 -34 l -23 39 q 81 23 42 23 q 153 56 123 23 q 199 137 183 88 q 236 246 214 186 q 281 361 258 307 q 353 458 305 415 q 465 517 400 502 q 342 587 392 534 q 266 700 292 639 q 218 821 240 761 q 163 920 195 880 q 83 959 130 959 q -12 944 80 959 l -26 998 q 130 1020 91 1020 q 235 977 191 1020 q 307 873 279 935 q 360 751 334 812 q 428 648 387 690 q 528 604 469 605 l 536 993 l 604 979 q 611 791 605 928 q 618 604 617 654 q 718 648 677 605 q 786 751 760 690 q 840 873 812 812 q 911 977 867 935 q 1016 1020 955 1020 q 1172 998 1055 1020 l 1158 944 q 1062 959 1066 959 q 982 920 1015 959 q 928 821 949 880 q 880 700 906 761 q 804 587 854 639 q 681 517 754 534 q 793 458 746 502 q 864 361 841 415 q 909 246 887 307 q 947 137 930 186 q 992 56 963 88 q 1063 23 1021 23 q 1169 39 1104 23 l 1173 -12 q 1036 -34 1101 -34 q 930 -1 974 -34 q 863 83 886 33 q 819 191 841 133 q 777 300 796 250 q 719 383 757 350 q 628 416 681 416 l 636 8 q 589 -34 624 -34 q 542 -14 564 -34 q 514 35 519 7 q 518 416 517 80 z "},"З":{"ha":629,"x_min":0,"x_max":575,"o":"m 79 849 l 37 894 q 301 990 182 990 q 468 916 404 990 q 532 734 532 842 q 439 543 532 598 q 541 462 507 532 q 575 296 575 392 q 513 69 575 149 q 305 -11 450 -11 q 121 33 208 -11 q 0 157 35 76 q 9 168 7 163 q 14 176 12 174 q 21 184 15 179 q 41 195 27 189 q 174 108 100 141 q 312 75 247 75 q 429 123 385 75 q 473 271 473 171 q 415 438 473 374 q 243 502 357 502 q 186 499 227 502 q 180 529 184 507 q 168 598 175 551 q 222 602 183 600 q 278 606 262 604 q 325 614 294 608 q 370 631 355 620 q 401 659 384 642 q 425 703 418 675 q 431 766 431 730 q 387 863 431 833 q 270 894 343 894 q 79 849 172 894 z "},"И":{"ha":715,"x_min":56,"x_max":659,"o":"m 76 994 l 137 981 q 168 236 151 757 q 532 993 433 707 q 571 1009 552 1009 q 621 974 601 1009 q 642 894 640 939 q 649 468 646 768 q 659 20 652 168 q 613 -20 647 -20 q 566 -1 589 -20 q 537 47 543 19 q 542 410 541 165 q 544 739 543 654 q 439 544 514 688 q 302 297 365 400 q 172 118 239 194 l 178 8 q 130 -34 165 -34 q 83 -14 106 -34 q 56 35 61 7 q 64 487 60 151 q 76 994 68 823 z "},"Й":{"ha":715,"x_min":56,"x_max":659,"o":"m 201 1100 l 191 1143 q 255 1139 224 1139 q 427 1191 349 1139 q 481 1172 458 1188 q 503 1134 503 1156 q 369 1084 503 1084 q 201 1100 275 1084 m 76 994 l 137 981 q 168 236 151 757 q 532 993 433 707 q 571 1009 552 1009 q 621 974 601 1009 q 642 894 640 939 q 649 468 646 768 q 659 20 652 168 q 613 -20 647 -20 q 566 -1 589 -20 q 537 47 543 19 q 542 410 541 165 q 544 739 543 654 q 439 544 514 688 q 302 297 365 400 q 172 118 239 194 l 178 8 q 130 -34 165 -34 q 83 -14 106 -34 q 56 35 61 7 q 64 487 60 151 q 76 994 68 823 z "},"К":{"ha":709,"x_min":56,"x_max":709,"o":"m 705 30 l 709 -22 q 572 -43 637 -43 q 466 -10 510 -43 q 399 73 422 23 q 355 182 377 123 q 313 290 332 240 q 255 374 293 340 q 164 407 217 407 l 178 8 q 130 -34 165 -34 q 83 -14 106 -34 q 56 35 61 7 q 65 494 57 64 q 77 993 73 925 l 138 979 q 146 786 140 928 q 155 594 153 644 q 254 638 213 595 q 322 742 296 681 q 376 863 349 803 q 447 966 403 924 q 552 1009 491 1009 q 708 989 598 1009 l 694 935 q 598 948 610 948 q 518 909 551 948 q 464 810 486 869 q 416 690 442 751 q 340 576 391 628 q 217 507 290 525 q 330 449 282 492 q 400 351 377 406 q 445 237 423 297 q 483 127 467 176 q 528 46 499 79 q 600 14 557 14 q 705 30 640 14 z "},"Л":{"ha":716,"x_min":-111,"x_max":661,"o":"m -72 -127 l -111 -57 q 16 59 -37 -7 q 99 191 69 125 q 146 340 129 256 q 169 496 164 425 q 174 661 174 567 q 177 812 174 709 q 180 968 180 914 q 301 975 220 975 q 404 973 335 975 q 509 971 473 971 q 628 977 574 971 q 644 692 644 886 q 643 530 644 640 q 642 362 642 419 q 661 -4 642 140 q 614 -46 648 -46 q 567 -26 590 -46 q 538 22 544 -7 q 541 183 541 127 q 538 430 541 262 q 534 690 534 598 q 537 876 534 815 q 425 880 505 879 q 302 887 345 882 q 283 703 290 817 q 271 503 275 590 q 246 310 266 415 q 193 127 227 205 q 93 -20 160 50 q -72 -127 26 -90 z "},"М":{"ha":998,"x_min":0,"x_max":998,"o":"m 998 0 l 895 -9 q 734 792 821 458 q 635 494 689 686 q 562 245 582 302 q 553 245 559 245 q 543 244 547 244 q 480 248 524 244 q 425 252 437 252 q 355 515 423 292 q 274 800 288 738 q 84 0 250 581 l 0 8 q 94 473 19 156 q 182 964 168 791 q 221 967 206 967 q 321 956 235 967 q 376 833 340 954 q 449 570 412 713 q 495 400 486 426 q 587 704 533 494 q 662 971 640 914 q 799 959 684 970 q 867 663 834 822 q 939 302 901 505 q 998 0 978 100 z "},"Н":{"ha":651,"x_min":56,"x_max":595,"o":"m 473 975 l 552 991 q 583 460 576 800 q 595 11 589 121 q 548 -31 583 -31 q 501 -11 524 -31 q 473 38 479 9 q 475 201 475 87 l 475 468 q 391 462 445 467 q 294 454 338 457 q 210 452 250 452 q 159 453 175 452 q 168 219 161 370 q 178 11 175 68 q 130 -31 165 -31 q 83 -11 106 -31 q 56 38 61 9 q 63 491 60 155 q 76 991 66 827 l 137 978 q 138 965 137 974 q 138 951 138 956 q 159 533 156 617 q 257 542 205 537 q 372 553 309 547 q 471 562 435 559 q 472 575 472 562 q 473 685 472 589 q 473 975 473 781 z "},"О":{"ha":727,"x_min":57,"x_max":673,"o":"m 57 454 q 57 524 57 500 q 59 597 57 548 q 64 674 61 646 q 75 748 68 703 q 92 821 81 793 q 117 884 103 849 q 153 941 132 920 q 201 983 175 963 q 262 1012 227 1002 q 339 1021 297 1021 q 486 988 423 1021 q 583 905 548 955 q 640 781 618 854 q 667 642 661 708 q 673 495 673 575 q 671 397 673 441 q 663 299 669 354 q 645 202 656 244 q 613 117 633 160 q 565 47 593 75 q 495 1 537 19 q 401 -16 453 -16 q 257 4 317 -16 q 158 61 197 24 q 97 157 119 98 q 66 288 75 217 q 57 454 57 358 m 575 444 q 565 582 575 510 q 531 736 555 654 q 456 871 507 819 q 332 924 404 924 q 237 851 278 924 q 178 688 195 779 q 160 518 160 598 q 161 433 160 463 q 165 351 161 404 q 177 266 170 297 q 201 194 184 235 q 239 131 217 153 q 298 92 262 109 q 378 73 334 75 q 526 184 477 79 q 575 444 575 290 z "},"П":{"ha":651,"x_min":56,"x_max":595,"o":"m 76 991 l 552 991 q 583 460 576 800 q 595 11 589 121 q 548 -31 583 -31 q 501 -11 524 -31 q 473 38 479 9 q 467 485 473 148 q 460 895 460 822 q 363 891 430 895 q 255 887 296 887 q 155 890 190 887 q 165 492 155 886 q 178 11 175 99 q 130 -31 165 -31 q 83 -11 106 -31 q 56 38 61 9 q 63 491 60 155 q 76 991 66 827 z "},"Р":{"ha":712,"x_min":56,"x_max":656,"o":"m 77 974 l 138 990 q 140 941 138 947 q 357 993 217 993 q 582 899 507 993 q 656 635 656 804 q 583 385 656 484 q 362 286 510 286 q 167 302 338 286 q 178 -5 170 203 q 130 -47 165 -47 q 83 -28 106 -47 q 56 20 61 -8 q 64 464 60 134 q 77 974 69 793 m 152 850 l 163 427 q 335 387 237 387 q 494 457 429 387 q 559 629 559 528 q 491 827 559 739 q 321 916 423 916 q 152 850 239 916 z "},"С":{"ha":732,"x_min":56,"x_max":719,"o":"m 677 895 l 623 833 q 414 911 517 911 q 297 879 346 911 q 223 800 248 846 q 184 684 198 754 q 166 562 170 613 q 163 441 163 510 q 188 287 163 373 q 273 126 213 201 q 411 52 332 52 q 673 141 496 52 q 719 56 690 115 q 414 -62 548 -62 q 255 -9 327 -62 q 142 125 183 43 q 78 295 100 206 q 56 464 56 384 q 69 635 56 552 q 115 803 83 719 q 214 939 148 887 q 370 990 279 990 q 533 963 449 990 q 677 895 617 936 z "},"Т":{"ha":598,"x_min":0,"x_max":598,"o":"m 14 910 l 0 971 l 518 1001 q 575 977 552 1000 q 598 926 598 954 q 585 895 598 909 q 544 879 571 882 l 316 891 q 366 20 350 412 q 320 -20 354 -20 q 273 -1 296 -20 q 244 47 250 19 q 247 270 247 121 q 246 437 247 326 q 245 604 245 548 q 251 895 245 765 q 14 910 98 906 z "},"У":{"ha":666,"x_min":0,"x_max":667,"o":"m 0 925 l 71 991 q 225 682 132 891 q 353 407 319 473 q 557 963 488 755 q 602 996 575 996 q 646 972 627 996 q 667 917 665 948 q 522 595 621 818 q 352 230 422 372 q 203 -43 282 88 l 115 -26 l 290 317 q 0 925 241 452 z "},"Ф":{"ha":1036,"x_min":27,"x_max":1009,"o":"m 461 146 q 467 474 464 236 q 475 831 471 712 l 463 831 q 217 724 316 831 q 118 465 118 617 q 202 231 118 320 q 437 142 286 142 q 461 146 450 142 m 538 996 l 544 899 q 594 902 576 902 q 884 795 758 902 q 1009 524 1009 688 q 991 361 1008 438 q 939 212 975 283 q 836 97 903 140 q 675 54 768 54 q 623 57 656 54 q 579 60 589 60 l 579 -4 q 532 -46 567 -46 q 485 -26 507 -46 q 457 22 463 -7 l 458 60 q 415 57 449 60 q 362 54 381 54 q 208 94 274 54 q 102 202 141 134 q 45 351 64 270 q 27 524 27 433 q 146 791 27 682 q 423 901 266 901 q 476 895 441 901 q 477 920 477 901 q 477 950 477 928 q 476 983 476 972 q 477 997 476 989 q 477 1009 477 1005 l 538 996 m 570 830 l 548 830 q 574 146 560 595 l 590 146 q 844 227 768 148 q 921 465 921 307 q 821 726 921 623 q 570 830 722 830 z "},"Х":{"ha":757,"x_min":0,"x_max":757,"o":"m 58 -12 l 0 18 q 81 180 35 100 q 205 380 126 259 q 304 532 285 502 q 165 736 270 585 q 8 972 60 887 l 65 998 q 354 612 180 864 q 473 792 361 637 q 601 975 585 947 q 650 1009 621 1009 q 699 985 677 1009 q 722 930 720 962 q 581 736 713 921 q 416 514 449 552 q 593 265 463 442 q 757 30 723 88 q 744 -9 757 4 q 711 -23 731 -23 q 640 22 665 -23 l 362 437 q 214 220 320 369 q 58 -12 109 71 z "},"Ц":{"ha":728,"x_min":56,"x_max":701,"o":"m 680 -182 l 617 -182 q 586 0 610 -157 q 281 -11 490 -11 q 56 -4 117 -11 q 69 495 60 142 q 83 994 79 848 l 144 981 q 155 528 148 838 q 167 83 163 218 q 273 81 228 83 q 320 79 317 79 q 481 102 342 79 q 500 555 487 248 q 517 994 513 863 l 578 981 q 576 692 576 884 q 581 148 576 431 q 581 127 581 141 q 582 106 582 113 q 637 104 598 106 q 701 102 677 102 q 695 -15 701 96 q 680 -182 689 -126 z "},"Ч":{"ha":637,"x_min":56,"x_max":582,"o":"m 486 967 l 547 952 q 566 494 552 883 q 582 30 581 106 q 534 -12 570 -12 q 488 7 510 -12 q 460 56 465 27 q 468 430 461 79 q 321 407 384 407 q 123 497 190 407 q 56 755 56 587 q 80 983 56 860 l 141 970 q 137 850 137 906 q 320 513 137 513 q 471 553 381 513 q 486 967 477 836 z "},"Ш":{"ha":872,"x_min":56,"x_max":817,"o":"m 747 994 l 808 981 q 807 713 807 880 q 812 286 807 486 q 817 56 817 87 l 817 0 q 262 -15 674 -15 q 56 -11 95 -15 q 69 488 60 136 q 83 987 79 841 l 144 974 q 155 522 148 831 q 167 76 163 212 l 381 85 q 399 545 387 235 q 415 985 411 856 l 476 971 q 488 528 480 830 q 499 92 495 225 q 712 102 537 95 q 730 555 718 248 q 747 994 743 863 z "},"Щ":{"ha":959,"x_min":56,"x_max":932,"o":"m 910 -182 l 848 -182 q 817 0 841 -157 q 262 -15 674 -15 q 56 -11 95 -15 q 69 488 60 136 q 83 987 79 841 l 144 974 q 155 522 148 831 q 167 76 163 212 l 381 85 q 399 545 387 235 q 415 985 411 856 l 476 971 q 488 528 480 830 q 499 92 495 225 q 712 102 601 102 q 730 555 718 248 q 747 994 743 863 l 808 981 q 807 610 807 833 q 811 148 807 445 q 812 127 811 141 q 812 106 812 113 q 868 104 829 106 q 932 102 907 102 q 926 -15 932 96 q 910 -182 920 -126 z "},"Ъ":{"ha":812,"x_min":-27,"x_max":785,"o":"m -8 910 l -27 991 q 98 995 1 993 q 274 1004 195 997 q 296 578 285 825 q 378 583 332 583 q 671 482 557 583 q 785 245 785 381 q 445 -30 785 -30 q 283 -16 357 -30 q 198 18 209 -3 q 205 438 202 142 q 213 880 208 734 l -8 910 m 302 476 q 316 91 312 187 q 480 79 410 79 q 671 259 671 79 q 591 417 671 353 q 378 481 510 481 q 302 476 336 481 z "},"Ы":{"ha":949,"x_min":56,"x_max":894,"o":"m 75 997 l 136 983 q 153 578 137 958 q 235 583 190 583 q 528 482 414 583 q 642 245 642 381 q 301 -30 642 -30 q 140 -16 213 -30 q 56 18 66 -3 q 62 479 60 132 q 75 997 65 827 m 160 476 q 174 91 170 187 q 338 79 267 79 q 528 259 528 79 q 447 417 528 353 q 235 481 366 481 q 160 476 194 481 m 799 987 l 860 974 q 894 14 864 910 q 848 -27 882 -27 q 800 -7 823 -27 q 772 41 777 12 q 782 472 774 138 q 799 987 789 806 z "},"Ь":{"ha":669,"x_min":56,"x_max":642,"o":"m 75 997 l 136 983 q 153 578 137 958 q 235 583 190 583 q 528 482 414 583 q 642 245 642 381 q 301 -30 642 -30 q 140 -16 213 -30 q 56 18 66 -3 q 62 479 60 132 q 75 997 65 827 m 160 476 q 174 91 170 187 q 338 79 267 79 q 528 259 528 79 q 447 417 528 353 q 235 481 366 481 q 160 476 194 481 z "},"Э":{"ha":719,"x_min":0,"x_max":663,"o":"m 556 564 q 478 824 548 736 q 304 911 408 911 q 98 833 203 911 l 43 895 q 186 963 103 936 q 349 990 270 990 q 479 955 422 990 q 571 866 537 920 q 627 739 605 812 q 656 600 648 666 q 663 465 663 534 q 642 296 663 385 q 578 125 620 208 q 465 -9 536 43 q 307 -62 393 -62 q 0 56 171 -62 q 47 141 26 109 q 308 52 224 52 q 435 115 374 52 q 527 262 495 179 q 559 412 559 345 q 556 446 559 427 q 205 505 260 468 l 214 553 q 270 557 214 555 q 400 563 326 560 q 519 566 475 566 q 541 565 528 566 q 556 564 553 564 z "},"Ю":{"ha":974,"x_min":56,"x_max":920,"o":"m 73 991 l 134 978 q 160 487 153 673 l 316 513 q 347 803 323 715 q 587 1004 404 1004 q 723 966 663 1004 q 819 872 783 929 q 878 739 854 815 q 911 593 902 663 q 920 452 920 522 q 912 311 920 374 q 882 183 905 247 q 821 76 859 119 q 720 5 784 33 q 570 -22 655 -22 q 298 301 298 -22 q 302 399 298 350 l 163 419 l 178 30 q 130 -12 165 -12 q 83 7 106 -12 q 56 56 61 27 q 62 497 60 170 q 73 991 64 825 m 399 415 q 416 253 403 326 q 463 123 430 180 q 543 66 495 66 q 676 99 620 66 q 762 189 732 132 q 804 310 791 245 q 817 452 817 374 q 806 593 817 522 q 774 741 796 665 q 705 865 751 818 q 594 913 658 913 q 505 861 544 913 q 444 730 465 810 q 411 569 422 650 q 399 415 400 488 z "},"Я":{"ha":678,"x_min":-27,"x_max":624,"o":"m 42 709 q 69 852 42 796 q 152 936 96 909 q 268 972 208 963 q 416 982 328 982 q 598 968 522 982 q 608 865 606 947 q 613 535 610 783 q 624 20 616 288 q 576 -20 612 -20 q 530 -1 552 -20 q 502 47 507 19 q 510 427 507 236 q 472 426 499 427 q 431 425 445 425 q 273 112 415 283 q -5 -91 132 -60 l -27 -30 q 90 33 37 -8 q 178 119 144 75 q 241 224 212 164 q 284 327 270 283 q 313 425 298 370 q 113 500 183 425 q 42 709 42 575 m 515 514 l 522 867 q 366 892 437 892 q 201 839 259 892 q 144 703 144 785 q 372 496 156 496 q 515 514 437 496 z "},"а":{"ha":557,"x_min":27,"x_max":503,"o":"m 104 586 l 77 655 q 167 711 113 690 q 274 732 221 732 q 503 336 503 732 q 497 176 503 282 q 491 18 491 71 q 449 -24 480 -24 q 404 0 425 -24 q 384 54 384 24 q 385 68 384 64 q 206 -14 301 -14 q 81 39 134 -14 q 27 165 27 91 q 125 393 27 292 q 349 495 224 495 q 359 494 354 495 q 372 492 365 494 q 384 491 380 491 q 258 650 373 650 q 104 586 190 650 m 388 161 q 391 305 391 256 q 388 419 391 346 l 377 419 q 201 347 281 418 q 122 176 122 277 q 149 107 122 133 q 213 81 175 81 q 388 161 273 81 z "},"б":{"ha":637,"x_min":56,"x_max":610,"o":"m 146 646 q 229 688 179 671 q 316 705 278 705 q 568 414 568 705 q 559 281 568 351 q 526 129 549 212 q 451 -7 502 46 q 328 -61 400 -61 q 197 -20 251 -61 q 112 99 142 20 q 68 276 81 178 q 56 506 56 374 q 89 743 56 639 q 190 926 122 848 q 342 1062 258 1005 q 545 1175 426 1119 q 564 1156 553 1164 q 583 1134 574 1149 q 610 1076 591 1119 q 528 1031 585 1061 q 433 980 471 1001 q 342 922 395 959 q 256 848 290 884 q 191 759 221 812 q 146 646 160 705 m 464 422 q 418 572 464 522 q 294 621 372 621 q 178 559 222 621 q 133 410 133 498 q 142 297 133 357 q 169 177 151 237 q 222 77 187 117 q 300 38 256 38 q 464 422 464 38 z "},"в":{"ha":620,"x_min":56,"x_max":566,"o":"m 85 696 q 342 741 296 741 q 524 585 524 741 q 505 479 524 530 q 460 412 487 429 q 566 214 566 340 q 488 28 566 95 q 282 -38 410 -38 q 56 43 130 -38 l 85 696 m 163 355 l 175 80 q 252 64 209 64 q 407 117 336 64 q 477 240 477 170 q 439 330 477 289 q 343 372 401 372 q 163 355 309 372 m 149 635 l 159 426 q 221 430 179 429 q 289 436 263 431 q 346 456 315 441 q 395 511 377 472 q 420 614 414 551 q 338 655 407 655 q 240 646 307 655 q 149 635 174 636 z "},"г":{"ha":506,"x_min":56,"x_max":507,"o":"m 83 696 q 259 714 141 701 q 426 731 377 727 q 484 706 460 730 q 507 655 507 682 q 453 609 507 614 q 301 623 403 613 q 146 636 199 632 q 163 368 148 553 q 178 84 178 182 q 111 0 178 0 q 56 76 56 0 q 60 268 56 165 q 72 503 64 370 q 83 696 80 635 z "},"д":{"ha":732,"x_min":0,"x_max":705,"o":"m 72 -178 l 11 -164 q 5 -76 11 -149 q 0 30 0 -3 q 4 88 0 57 l 92 88 q 115 157 99 111 q 136 222 130 203 q 151 279 141 241 q 165 342 161 316 q 172 408 168 369 q 175 491 175 448 q 167 720 175 593 q 328 715 243 716 q 467 711 412 713 q 578 699 521 708 q 587 395 582 606 q 595 92 591 184 l 701 92 l 701 52 q 703 -49 701 16 q 705 -136 705 -114 q 703 -198 705 -176 l 642 -184 q 631 -136 636 -165 q 621 -73 627 -107 q 613 -24 616 -39 q 367 -8 536 -20 q 103 8 198 4 l 72 -178 m 281 635 q 278 550 279 614 q 275 452 277 486 q 267 357 273 418 q 251 257 260 297 q 223 170 241 217 q 180 90 205 123 l 477 90 l 505 624 q 405 628 486 625 q 281 635 324 631 z "},"е":{"ha":614,"x_min":56,"x_max":616,"o":"m 602 132 l 616 72 q 439 24 556 50 q 264 -3 321 -3 q 163 36 206 -3 q 98 135 119 75 q 66 254 76 195 q 56 370 56 313 q 362 709 56 709 q 491 663 435 709 q 547 541 547 616 q 524 469 547 500 q 470 420 502 438 q 389 387 438 401 q 301 365 339 372 q 210 350 263 358 q 137 338 157 342 q 142 269 138 298 q 155 204 145 239 q 182 147 165 170 q 229 110 199 125 q 300 95 259 95 q 419 104 349 95 q 545 122 490 113 q 602 132 600 132 m 142 422 q 445 533 327 475 q 419 598 435 578 q 370 618 403 618 q 220 562 288 618 q 142 422 153 505 z "},"ж":{"ha":875,"x_min":0,"x_max":875,"o":"m 391 442 q 403 736 391 650 l 464 713 q 475 564 475 661 q 477 442 476 468 q 549 484 518 449 q 599 564 579 519 q 640 651 618 608 q 696 724 662 694 q 779 754 731 754 q 856 739 808 754 l 850 692 q 827 693 842 693 q 749 664 783 693 q 694 591 715 635 q 655 504 673 548 q 614 426 637 460 q 560 385 590 392 q 646 317 610 373 q 701 201 682 260 q 754 94 719 142 q 841 46 789 46 q 871 50 854 46 l 875 -9 q 827 -16 848 -16 q 734 18 776 -16 q 666 100 693 52 q 615 197 639 149 q 564 279 591 245 q 509 313 537 313 q 487 309 496 313 q 493 226 490 270 q 500 129 496 182 q 507 46 505 76 q 460 4 495 4 q 413 24 435 4 q 385 72 391 43 q 388 309 388 186 q 366 313 377 313 q 311 279 338 313 q 260 197 283 245 q 209 100 236 149 q 140 18 182 52 q 47 -16 99 -16 q 0 -9 27 -16 l 4 50 q 35 46 20 46 q 107 77 77 46 q 156 155 137 109 q 193 250 175 202 q 242 336 212 297 q 315 385 273 376 q 261 426 285 392 q 220 504 237 460 q 181 591 202 548 q 126 664 160 635 q 47 693 92 693 q 24 692 33 693 l 19 739 q 98 754 60 754 q 180 725 145 754 q 237 653 216 696 q 277 566 258 610 q 326 486 297 522 q 391 442 354 450 z "},"з":{"ha":481,"x_min":27,"x_max":426,"o":"m 136 335 l 130 411 q 143 410 134 411 q 156 410 152 410 q 293 529 293 410 q 178 633 278 633 q 66 612 140 633 l 42 651 q 205 704 99 704 q 330 666 279 704 q 380 555 380 628 q 362 467 380 510 q 316 403 345 425 q 397 333 368 392 q 426 201 426 274 q 365 35 426 106 q 208 -35 304 -35 q 94 -8 160 -35 q 27 60 27 19 q 64 88 27 88 q 127 66 88 88 q 193 43 167 43 q 293 94 250 43 q 336 205 336 144 q 291 303 336 270 q 175 336 245 336 q 136 335 148 336 z "},"и":{"ha":647,"x_min":56,"x_max":591,"o":"m 175 113 q 178 52 175 90 q 130 9 165 9 q 83 29 106 9 q 56 77 61 49 q 66 399 60 187 q 75 685 72 610 l 137 696 q 157 465 153 609 q 168 251 161 321 q 315 449 194 289 q 479 688 435 609 q 517 693 509 693 q 553 670 543 693 q 566 583 563 647 l 591 24 q 544 -16 579 -16 q 497 3 519 -16 q 469 52 475 23 q 477 271 471 96 q 487 518 483 445 q 175 113 255 254 z "},"й":{"ha":647,"x_min":56,"x_max":591,"o":"m 179 844 l 170 886 q 233 882 202 882 q 406 933 327 882 q 458 914 437 930 q 480 876 480 898 q 468 848 480 859 q 431 832 456 837 q 391 827 407 827 q 347 826 374 826 q 179 844 259 826 m 175 113 q 178 52 175 90 q 130 9 165 9 q 83 29 106 9 q 56 77 61 49 q 66 399 60 187 q 75 685 72 610 l 137 696 q 157 465 153 609 q 168 251 161 321 q 315 449 194 289 q 479 688 435 609 q 517 693 509 693 q 553 670 543 693 q 566 583 563 647 l 591 24 q 544 -16 579 -16 q 497 3 519 -16 q 469 52 475 23 q 477 271 471 96 q 487 518 483 445 q 175 113 255 254 z "},"к":{"ha":545,"x_min":56,"x_max":545,"o":"m 541 34 l 545 -26 q 499 -34 513 -34 q 406 0 448 -34 q 336 83 363 34 q 286 180 309 132 q 235 263 262 229 q 179 297 208 297 q 159 293 168 297 q 178 30 164 212 q 130 -12 165 -12 q 83 7 106 -12 q 56 56 61 27 q 61 484 61 283 q 73 719 61 632 l 134 697 q 146 546 145 644 q 149 425 148 448 q 220 467 190 431 q 271 547 251 502 q 312 635 290 591 q 368 708 334 678 q 450 738 403 738 q 526 722 475 738 l 521 675 q 499 677 513 677 q 405 631 445 677 q 345 531 365 586 q 296 426 326 476 q 231 368 266 376 q 317 300 281 355 q 371 185 353 244 q 425 78 389 126 q 511 30 460 30 q 541 34 525 30 z "},"л":{"ha":572,"x_min":-111,"x_max":518,"o":"m -90 -122 l -111 -64 q -31 -8 -66 -46 q 28 71 5 30 q 68 175 52 113 q 92 284 84 237 q 103 400 99 331 q 108 504 107 469 q 109 597 109 538 q 123 696 109 680 q 334 716 142 716 q 505 718 484 716 q 518 3 507 167 q 471 -38 505 -38 q 426 -19 448 -38 q 399 27 404 0 q 397 184 397 80 q 398 340 397 236 q 399 498 399 445 q 397 644 399 595 q 285 633 340 635 q 206 629 229 632 q 199 496 202 585 q 195 341 197 408 q 178 189 193 274 q 135 45 163 104 q 50 -60 107 -14 q -90 -122 -8 -107 z "},"м":{"ha":818,"x_min":0,"x_max":818,"o":"m 587 669 l 680 677 q 818 -5 747 494 q 772 -11 795 -11 q 724 -4 751 -11 q 679 259 705 71 q 632 526 652 448 q 453 127 566 418 q 420 122 444 126 q 384 118 396 118 q 349 122 369 118 q 284 300 327 178 q 216 486 241 423 q 53 -8 85 152 l 0 7 q 75 367 7 110 q 156 694 142 624 q 193 691 172 694 q 225 688 214 688 q 321 454 260 627 q 403 237 382 281 q 587 669 506 530 z "},"н":{"ha":608,"x_min":56,"x_max":553,"o":"m 461 688 l 522 674 l 553 16 q 506 -24 541 -24 q 458 -5 481 -24 q 430 43 435 15 q 442 273 430 47 l 442 283 q 330 286 404 286 q 160 293 217 286 q 178 39 167 214 q 130 -3 165 -3 q 83 17 106 -3 q 56 65 61 37 q 60 201 60 133 q 58 331 60 244 q 57 460 57 418 q 65 678 57 590 l 126 663 q 155 361 153 369 q 393 349 387 349 q 449 355 449 349 q 454 528 449 382 q 461 688 460 673 z "},"о":{"ha":620,"x_min":56,"x_max":566,"o":"m 56 289 q 67 410 56 343 q 102 549 79 476 q 171 671 125 623 q 278 720 217 720 q 487 603 408 720 q 566 342 566 486 q 553 220 566 281 q 513 102 540 160 q 435 5 486 43 q 316 -39 384 -34 q 123 67 191 -23 q 56 289 56 157 m 286 650 q 206 563 239 644 q 164 405 174 481 q 155 270 155 328 q 201 130 155 194 q 307 65 248 65 q 382 98 349 65 q 436 178 416 130 q 466 275 456 227 q 476 362 476 324 q 426 556 476 473 q 286 650 376 639 z "},"п":{"ha":608,"x_min":56,"x_max":553,"o":"m 65 678 l 522 674 l 553 16 q 506 -24 541 -24 q 458 -5 481 -24 q 430 43 435 15 q 435 197 431 68 q 442 446 438 327 q 448 600 446 564 q 335 602 410 602 q 165 610 233 602 q 172 322 170 566 q 178 39 175 79 q 130 -3 165 -3 q 83 17 106 -3 q 56 65 61 37 q 60 201 60 133 q 58 317 60 236 q 57 446 57 399 q 65 678 57 586 z "},"р":{"ha":616,"x_min":56,"x_max":562,"o":"m 72 713 l 148 700 q 149 658 148 671 q 300 705 224 705 q 492 600 423 705 q 562 359 562 494 q 551 230 562 292 q 515 104 541 168 q 436 1 490 39 q 307 -38 382 -38 q 168 0 235 -38 q 178 -353 174 -237 q 130 -395 165 -395 q 83 -375 106 -395 q 56 -327 61 -355 l 72 713 m 160 570 l 164 132 q 214 79 180 99 q 289 60 248 60 q 379 94 342 60 q 432 184 416 127 q 454 289 448 240 q 460 392 460 338 q 304 623 460 623 q 211 608 254 623 q 160 570 168 594 z "},"с":{"ha":543,"x_min":56,"x_max":529,"o":"m 513 673 l 506 614 q 408 623 449 623 q 254 566 315 623 q 170 433 193 510 q 148 263 148 357 q 153 186 148 220 q 173 119 159 152 q 218 68 187 87 q 293 50 248 50 q 445 73 353 50 q 490 84 473 84 q 529 8 522 84 q 308 -30 410 -30 q 108 43 160 -30 q 56 278 56 115 q 68 444 56 373 q 114 577 81 515 q 208 671 146 639 q 359 704 270 704 q 513 673 460 704 z "},"т":{"ha":651,"x_min":0,"x_max":651,"o":"m 12 623 l 0 682 q 572 712 182 693 q 628 688 605 711 q 651 639 651 665 q 597 593 651 598 l 343 605 q 351 309 350 503 q 355 24 351 114 q 308 -15 343 -15 q 263 4 285 -15 q 236 50 241 23 q 275 610 255 384 l 12 623 z "},"у":{"ha":593,"x_min":27,"x_max":593,"o":"m 153 -401 l 69 -354 q 266 12 125 -258 q 98 308 156 110 q 27 704 39 506 l 106 700 q 135 551 113 667 q 171 380 157 435 q 219 241 184 324 q 298 100 254 157 q 487 694 487 463 l 487 709 q 593 684 557 699 q 525 393 571 541 q 410 96 479 245 q 287 -156 340 -54 q 153 -401 233 -258 z "},"ф":{"ha":755,"x_min":27,"x_max":728,"o":"m 404 -378 l 335 -365 q 330 -4 330 -258 q 109 73 190 -4 q 27 281 27 149 q 112 562 27 438 q 345 688 197 686 q 343 762 343 719 q 349 907 343 807 l 349 918 q 393 932 366 932 q 448 918 423 932 q 439 722 439 791 l 439 684 l 449 684 q 644 551 559 684 q 728 273 728 418 q 646 74 728 156 q 444 -8 563 -8 q 418 -7 426 -8 q 411 -191 415 -95 q 404 -378 407 -286 m 330 83 q 340 281 330 148 q 350 483 350 415 q 343 605 350 553 q 332 607 342 605 q 316 609 321 609 q 168 513 227 609 q 109 300 109 416 q 153 142 109 205 q 285 79 198 79 q 330 83 307 79 m 435 591 l 418 80 l 430 80 q 585 139 534 80 q 635 289 635 198 q 575 491 635 396 q 435 591 515 586 z "},"х":{"ha":494,"x_min":0,"x_max":495,"o":"m 58 -34 l 0 -3 q 184 339 35 85 q 5 696 106 446 l 65 696 q 235 420 115 590 q 288 509 255 449 q 353 612 321 568 q 426 688 385 655 q 475 624 475 661 q 465 585 475 604 q 372 444 429 540 q 301 327 315 347 q 495 24 445 126 q 449 -27 495 -27 q 378 18 403 -27 q 250 248 354 99 q 155 111 227 210 q 58 -34 84 11 z "},"ц":{"ha":659,"x_min":56,"x_max":632,"o":"m 56 -4 q 61 341 60 71 q 72 718 62 612 l 133 704 q 147 357 142 595 q 153 96 152 118 q 220 98 174 98 q 315 96 252 98 q 404 95 378 95 l 442 95 q 452 391 446 179 q 463 705 457 604 l 524 692 q 530 357 529 586 q 530 95 530 127 l 632 95 q 625 -45 631 57 q 618 -197 620 -146 l 553 -186 l 526 -4 q 263 -9 350 -9 q 56 -4 148 -9 z "},"ч":{"ha":568,"x_min":27,"x_max":514,"o":"m 410 720 l 465 738 q 494 361 480 688 q 514 11 509 35 q 467 -31 502 -31 q 420 -11 442 -31 q 392 38 397 9 q 397 273 395 115 q 281 255 327 255 q 159 283 210 255 q 79 362 107 312 q 39 469 52 412 q 27 590 27 525 q 41 726 27 642 l 102 711 q 106 644 103 693 q 113 572 110 594 q 121 511 115 551 q 139 451 127 471 q 168 408 151 431 q 211 376 184 385 q 273 366 237 366 q 397 392 317 366 q 404 549 397 427 q 411 700 411 670 q 410 720 411 718 z "},"ш":{"ha":802,"x_min":56,"x_max":747,"o":"m 678 705 l 739 692 q 743 250 743 601 q 747 -4 743 75 q 479 -7 644 -7 q 56 0 159 -7 q 65 344 60 77 q 80 727 71 610 l 141 712 q 156 363 151 598 q 163 83 161 129 q 271 86 193 85 q 372 88 349 87 q 374 237 374 136 q 374 358 374 277 q 373 480 373 439 q 382 713 373 613 l 444 700 q 456 359 452 591 q 463 94 461 127 q 656 95 601 94 q 667 389 661 176 q 678 705 673 602 z "},"щ":{"ha":875,"x_min":56,"x_max":848,"o":"m 833 -197 l 768 -186 l 742 -4 q 473 -7 633 -7 q 56 0 159 -7 q 65 344 60 77 q 80 727 71 610 l 141 712 q 156 363 151 598 q 163 83 161 129 q 271 86 193 85 q 372 88 349 87 q 373 480 373 209 q 382 713 373 613 l 444 700 q 456 359 452 591 q 463 92 461 126 q 560 94 488 94 q 656 95 629 94 q 667 389 661 176 q 678 705 673 602 l 739 692 q 745 356 745 586 q 746 94 746 126 l 848 94 q 841 -44 846 57 q 833 -197 836 -145 z "},"ъ":{"ha":694,"x_min":0,"x_max":667,"o":"m 14 614 l 0 675 l 152 681 q 217 679 187 681 q 271 674 247 677 q 280 572 274 631 q 294 439 286 514 q 397 456 349 456 q 506 433 456 456 q 591 374 556 411 q 647 291 627 338 q 667 195 667 244 q 647 109 667 148 q 592 42 627 71 q 513 -2 557 14 q 418 -18 468 -18 q 374 -16 407 -18 q 307 -10 342 -15 q 243 3 271 -5 q 214 26 216 11 q 216 60 216 39 q 216 107 216 80 q 215 157 216 123 q 213 234 214 191 q 211 326 212 277 q 209 421 210 374 q 207 509 208 468 q 206 578 206 551 l 14 614 m 305 355 l 294 83 q 397 64 349 64 q 467 77 435 64 q 521 111 499 90 q 555 159 543 132 q 567 216 567 186 q 555 272 567 245 q 518 319 543 298 q 458 351 494 339 q 378 362 423 362 q 345 360 363 362 q 305 355 327 358 z "},"ы":{"ha":738,"x_min":56,"x_max":684,"o":"m 60 688 l 121 674 q 130 572 123 631 q 144 439 136 514 q 247 456 198 456 q 355 433 305 456 q 441 374 406 411 q 496 291 476 338 q 517 195 517 244 q 498 109 517 148 q 447 41 480 69 q 368 -2 414 14 q 269 -18 323 -18 q 199 -14 236 -18 q 133 -5 163 -11 q 83 7 103 0 q 64 24 64 15 q 63 87 64 46 q 62 176 62 127 q 60 279 61 225 q 58 384 58 334 q 56 475 57 434 q 56 543 56 517 q 60 688 56 618 m 156 355 l 144 83 q 247 64 198 64 q 317 77 285 64 q 370 111 349 90 q 404 159 392 132 q 416 216 416 186 q 404 272 416 245 q 368 319 392 298 q 308 351 343 339 q 228 362 273 362 q 195 360 213 362 q 156 355 178 358 m 579 692 l 640 678 q 661 409 650 571 q 684 27 671 247 q 636 -14 671 -14 q 589 6 612 -14 q 562 54 567 26 q 564 121 563 75 q 566 227 564 167 q 568 354 567 286 q 571 486 570 422 q 574 604 572 549 q 579 692 576 659 z "},"ь":{"ha":544,"x_min":56,"x_max":517,"o":"m 60 688 l 121 674 q 130 572 123 631 q 144 439 136 514 q 247 456 198 456 q 355 433 305 456 q 441 374 406 411 q 496 291 476 338 q 517 195 517 244 q 496 109 517 148 q 442 41 476 69 q 363 -2 408 14 q 269 -18 319 -18 q 227 -16 259 -18 q 158 -10 194 -15 q 94 3 122 -5 q 64 26 65 11 q 63 89 64 49 q 62 178 62 129 q 60 280 61 227 q 58 384 58 334 q 56 476 57 434 q 56 543 56 518 q 60 688 56 618 m 156 355 l 144 83 q 247 64 198 64 q 317 77 285 64 q 370 111 349 90 q 404 159 392 132 q 416 216 416 186 q 404 272 416 245 q 368 319 392 298 q 308 351 343 339 q 228 362 273 362 q 195 360 213 362 q 156 355 178 358 z "},"э":{"ha":529,"x_min":0,"x_max":473,"o":"m 381 273 l 361 275 q 134 317 229 292 l 138 385 q 237 378 155 384 q 368 372 320 373 q 287 557 340 492 q 121 623 233 623 q 23 614 80 623 l 16 673 q 170 704 69 704 q 321 671 259 704 q 415 577 382 639 q 460 444 448 515 q 473 278 473 373 q 465 150 473 201 q 430 56 456 99 q 353 -9 404 12 q 221 -30 301 -30 q 0 8 119 -30 q 39 84 7 84 q 143 67 72 84 q 236 50 214 50 q 382 240 382 50 q 381 273 382 262 z "},"ю":{"ha":837,"x_min":56,"x_max":783,"o":"m 168 271 l 175 18 q 127 -22 163 -22 q 83 -3 104 -22 q 56 43 61 16 l 84 642 l 144 629 q 159 351 159 359 q 180 353 165 353 q 235 349 198 353 q 289 346 271 346 q 359 357 328 346 q 372 463 365 419 q 394 555 378 507 q 432 633 410 604 q 491 682 454 663 q 576 701 528 701 q 656 688 623 701 q 720 640 689 675 q 766 530 750 604 q 783 345 783 456 q 769 245 783 301 q 728 129 755 189 q 650 28 701 69 q 533 -12 598 -12 q 401 33 452 -12 q 350 164 350 79 q 351 241 350 214 l 168 271 m 692 435 q 687 492 692 463 q 671 555 682 522 q 637 608 659 587 q 583 629 614 629 q 517 598 545 629 q 473 519 488 567 q 451 422 458 471 q 444 330 444 374 q 454 176 444 229 q 484 106 465 123 q 537 90 503 90 q 623 151 586 90 q 675 290 659 213 q 692 435 692 366 z "},"я":{"ha":597,"x_min":-83,"x_max":541,"o":"m 521 704 l 541 -24 q 495 -65 528 -65 q 450 -46 472 -65 q 422 0 427 -27 l 435 294 q 317 256 378 258 q 188 8 266 87 q -61 -118 110 -71 l -83 -60 q 206 275 171 4 q 98 358 141 302 q 56 486 56 414 q 129 677 56 629 q 361 724 202 724 q 521 704 444 724 m 446 408 l 439 623 q 300 637 392 637 q 189 608 235 637 q 142 514 142 579 q 201 389 142 441 q 328 336 259 336 q 446 408 410 336 z "},"ё":{"ha":614,"x_min":56,"x_max":616,"o":"m 602 132 l 616 72 q 439 24 556 50 q 264 -3 321 -3 q 163 36 206 -3 q 98 135 119 75 q 66 254 76 195 q 56 370 56 313 q 362 709 56 709 q 491 663 435 709 q 547 541 547 616 q 524 469 547 500 q 470 420 502 438 q 389 387 438 401 q 301 365 339 372 q 210 350 263 358 q 137 338 157 342 q 142 269 138 298 q 155 204 145 239 q 182 147 165 170 q 229 110 199 125 q 300 95 259 95 q 419 104 349 95 q 545 122 490 113 q 602 132 600 132 m 142 422 q 445 533 327 475 q 419 598 435 578 q 370 618 403 618 q 220 562 288 618 q 142 422 153 505 m 159 972 q 220 941 195 972 q 244 868 244 909 q 231 820 244 838 q 193 802 217 802 q 132 834 155 802 q 110 906 110 867 q 123 954 110 936 q 159 972 136 972 m 438 972 q 499 941 475 972 q 524 868 524 909 q 509 820 524 838 q 471 802 495 802 q 411 834 433 802 q 389 906 389 867 q 402 954 389 936 q 438 972 415 972 z "},"ђ":{"ha":700,"x_min":0,"x_max":644,"o":"m 14 780 l 0 842 l 155 856 q 160 977 157 935 l 231 960 l 235 863 l 340 872 q 397 848 374 871 q 420 798 420 825 q 407 766 420 780 q 366 750 393 753 l 236 761 q 241 544 239 597 q 416 623 316 623 q 576 557 509 623 q 644 384 644 492 l 644 209 q 621 19 644 85 q 560 -68 598 -47 q 456 -90 522 -90 q 397 -79 430 -90 l 397 -30 q 514 35 486 -11 q 543 174 543 80 q 534 400 543 186 q 412 525 514 525 q 321 500 366 525 q 255 441 275 475 q 261 217 259 355 q 266 4 263 79 q 210 -1 233 -1 q 153 7 176 -1 q 156 217 156 73 q 155 461 156 283 q 153 768 153 639 l 14 780 z "},"ѓ":{"ha":506,"x_min":56,"x_max":507,"o":"m 83 696 q 259 714 141 701 q 426 731 377 727 q 484 706 460 730 q 507 655 507 682 q 453 609 507 614 q 301 623 403 613 q 146 636 199 632 q 163 368 148 553 q 178 84 178 182 q 111 0 178 0 q 56 76 56 0 q 60 268 56 165 q 72 503 64 370 q 83 696 80 635 m 245 776 l 206 814 q 239 849 209 818 q 302 918 270 880 q 345 981 334 955 q 369 986 353 986 q 417 976 393 986 q 441 951 441 966 q 368 857 441 918 q 245 776 294 796 z "},"є":{"ha":543,"x_min":56,"x_max":529,"o":"m 168 275 l 149 273 q 148 240 148 262 q 293 50 148 50 q 386 67 315 50 q 490 84 457 84 q 529 8 522 84 q 308 -30 410 -30 q 176 -9 228 -30 q 99 56 125 12 q 64 150 73 99 q 56 278 56 201 q 68 444 56 373 q 114 577 81 515 q 208 671 146 639 q 359 704 270 704 q 513 673 460 704 l 506 614 q 408 623 449 623 q 242 557 296 623 q 161 372 189 492 q 292 378 209 373 q 391 385 374 384 l 395 317 q 168 275 300 292 z "},"ѕ":{"ha":526,"x_min":27,"x_max":499,"o":"m 473 654 l 460 600 q 255 654 328 654 q 163 634 190 654 q 137 551 137 614 q 174 465 137 499 q 264 412 212 431 q 371 370 317 392 q 462 304 425 347 q 499 197 499 260 q 435 45 499 110 q 270 -22 372 -20 q 130 9 195 -22 q 27 88 65 41 l 66 129 q 115 107 83 122 q 160 87 146 92 q 200 77 174 83 q 256 72 227 72 q 361 100 320 72 q 401 180 401 129 q 382 238 401 214 q 332 277 363 262 q 264 305 301 292 q 189 336 227 319 q 121 376 152 353 q 71 441 90 400 q 52 537 52 481 q 96 673 52 618 q 220 728 140 728 q 290 719 251 728 q 353 701 330 709 q 421 675 376 693 q 473 654 467 656 z "},"і":{"ha":245,"x_min":56,"x_max":190,"o":"m 85 697 l 148 684 q 167 334 159 572 q 178 39 175 96 q 130 -3 165 -3 q 83 17 106 -3 q 56 65 61 37 q 66 355 58 121 q 85 697 75 589 m 104 940 q 165 908 141 940 q 190 836 190 876 q 176 787 190 806 q 137 769 161 769 q 77 800 99 769 q 56 873 56 831 q 68 922 56 903 q 104 940 81 940 z "},"ї":{"ha":286,"x_min":-27,"x_max":315,"o":"m 114 697 l 175 684 q 195 330 186 571 q 206 39 203 90 q 159 -3 194 -3 q 111 17 134 -3 q 83 65 88 37 q 94 351 85 115 q 114 697 103 587 m 229 940 q 290 908 266 940 q 315 836 315 876 q 301 787 315 806 q 263 769 288 769 q 203 800 225 769 q 180 873 180 831 q 193 922 180 903 q 229 940 206 940 m 20 940 q 82 908 57 940 q 107 836 107 876 q 93 787 107 806 q 54 769 79 769 q -5 800 16 769 q -27 873 -27 831 q -15 922 -27 903 q 20 940 -3 940 z "},"ј":{"ha":225,"x_min":-111,"x_max":171,"o":"m -111 -254 l -111 -205 q -27 -163 -62 -194 q 26 -97 8 -133 q 55 -5 45 -61 q 67 92 65 50 q 69 194 69 133 q 68 391 69 250 q 65 650 66 533 q 110 709 71 709 q 149 689 130 709 q 168 637 167 669 q 169 523 168 601 q 170 403 170 445 q 170 373 170 399 q 171 326 171 347 q 157 16 171 136 q 113 -163 144 -103 q 45 -244 83 -224 q -53 -264 7 -264 q -111 -254 -79 -264 m 83 943 q 144 911 119 943 q 170 838 170 879 q 155 790 170 808 q 117 772 141 772 q 57 803 79 772 q 35 876 35 834 q 47 924 35 906 q 83 943 60 943 z "},"љ":{"ha":949,"x_min":-56,"x_max":922,"o":"m -34 -122 l -56 -64 q 64 39 20 -33 q 131 203 109 111 q 159 399 153 296 q 164 597 164 503 q 165 665 164 642 q 184 701 165 689 q 250 714 203 712 q 389 716 297 716 q 507 716 465 716 q 560 718 549 716 l 560 444 q 652 457 606 457 q 761 435 711 457 q 846 376 811 412 q 902 292 882 339 q 922 197 922 245 q 902 110 922 149 q 848 43 882 71 q 769 -1 814 15 q 674 -16 724 -16 q 454 27 518 -16 q 453 78 453 47 q 453 149 453 109 l 453 275 q 454 354 453 319 q 454 415 454 389 q 454 463 456 434 q 453 529 453 491 l 453 644 q 395 637 425 640 q 340 633 366 635 q 294 631 315 632 q 262 629 274 631 q 258 573 259 606 q 255 496 256 540 l 250 340 q 235 193 247 269 q 193 54 224 118 q 109 -58 163 -11 q -34 -122 54 -106 m 562 357 q 570 77 564 171 q 652 65 608 65 q 722 78 690 65 q 776 112 754 91 q 810 160 798 133 q 822 217 822 187 q 810 273 822 247 q 773 320 798 300 q 713 352 749 340 q 633 363 678 363 q 601 361 618 363 q 562 357 583 359 z "},"њ":{"ha":933,"x_min":56,"x_max":906,"o":"m 522 674 l 526 536 q 529 456 528 490 q 533 403 530 423 q 636 419 587 419 q 745 399 694 419 q 830 345 795 378 q 886 266 865 311 q 906 174 906 221 q 886 91 906 127 q 833 28 867 54 q 755 -12 800 3 q 656 -26 709 -26 q 490 -9 543 -26 q 430 43 437 8 l 442 311 q 385 313 422 312 q 305 314 347 313 q 224 317 263 315 q 160 321 184 319 q 163 283 161 309 q 166 227 164 258 q 170 163 168 195 q 174 103 172 130 q 176 58 175 76 q 178 39 178 39 q 130 -3 165 -3 q 83 17 106 -3 q 56 65 61 37 q 60 201 60 132 q 59 254 60 218 q 58 330 58 290 q 58 406 58 370 q 57 460 57 442 q 65 678 57 590 l 126 663 l 140 534 q 148 454 144 491 q 155 389 152 418 q 393 381 309 381 q 449 384 449 381 q 450 410 449 385 q 452 468 450 434 q 456 541 454 502 q 458 614 457 581 q 460 668 460 647 q 461 688 461 689 l 522 674 m 533 320 l 536 73 q 636 56 581 56 q 760 95 715 56 q 806 193 806 134 q 758 289 806 251 q 617 327 711 327 q 576 325 597 327 q 533 320 555 323 z "},"ћ":{"ha":700,"x_min":0,"x_max":644,"o":"m 14 780 l 0 842 l 155 856 q 160 977 157 935 l 231 960 l 235 863 l 340 872 q 397 848 374 871 q 420 798 420 825 q 407 766 420 780 q 366 750 393 753 l 236 761 q 241 544 239 597 q 416 623 316 623 q 576 557 509 623 q 644 384 644 492 l 644 7 q 598 -1 627 -1 q 544 4 568 -1 q 545 37 544 15 q 545 71 545 60 q 541 220 545 125 q 537 400 537 315 q 492 495 526 465 q 412 525 458 525 q 321 500 366 525 q 255 441 275 475 q 261 217 259 355 q 266 4 263 79 q 210 -1 233 -1 q 153 7 176 -1 q 156 217 156 73 q 155 461 156 283 q 153 768 153 639 l 14 780 z "},"ќ":{"ha":545,"x_min":56,"x_max":545,"o":"m 541 34 l 545 -26 q 499 -34 513 -34 q 406 0 448 -34 q 336 83 363 34 q 286 180 309 132 q 235 263 262 229 q 179 297 208 297 q 159 293 168 297 q 178 30 164 212 q 130 -12 165 -12 q 83 7 106 -12 q 56 56 61 27 q 61 484 61 283 q 73 719 61 632 l 134 697 q 146 546 145 644 q 149 425 148 448 q 220 467 190 431 q 271 547 251 502 q 312 635 290 591 q 368 708 334 678 q 450 738 403 738 q 526 722 475 738 l 521 675 q 499 677 513 677 q 405 631 445 677 q 345 531 365 586 q 296 426 326 476 q 231 368 266 376 q 317 300 281 355 q 371 185 353 244 q 425 78 389 126 q 511 30 460 30 q 541 34 525 30 m 228 776 l 187 814 q 220 849 190 818 q 283 918 251 880 q 327 981 316 955 q 351 986 335 986 q 399 976 376 986 q 422 951 422 966 q 349 857 422 918 q 228 776 277 796 z "},"ў":{"ha":593,"x_min":27,"x_max":593,"o":"m 153 -401 l 69 -354 q 266 12 125 -258 q 98 308 156 110 q 27 704 39 506 l 106 700 q 135 551 113 667 q 171 380 157 435 q 219 241 184 324 q 298 100 254 157 q 487 694 487 463 l 487 709 q 593 684 557 699 q 525 393 571 541 q 410 96 479 245 q 287 -156 340 -54 q 153 -401 233 -258 m 152 808 l 141 852 q 206 848 174 848 q 378 899 300 848 q 431 880 410 897 q 453 842 453 864 q 441 814 453 825 q 404 798 429 803 q 363 793 380 793 q 320 792 347 792 q 152 808 227 792 z "},"џ":{"ha":608,"x_min":56,"x_max":553,"o":"m 326 -198 l 264 -184 l 251 -22 l 65 -22 q 57 208 57 71 q 58 336 57 255 q 60 452 60 416 q 56 587 60 521 q 83 635 61 616 q 130 655 106 655 q 178 614 165 655 q 172 334 175 575 q 165 47 170 92 q 335 53 222 53 l 448 53 q 442 208 446 88 q 435 456 438 327 q 430 610 431 585 q 458 659 435 639 q 506 678 481 678 q 553 636 541 678 l 522 -20 l 338 -20 l 326 -198 z "},"Ґ":{"ha":583,"x_min":56,"x_max":583,"o":"m 480 1138 l 541 1152 l 568 971 l 570 971 l 583 910 q 374 897 524 906 q 165 883 225 888 q 171 452 170 754 q 178 8 172 149 q 130 -34 165 -34 q 83 -14 106 -34 q 56 35 61 7 q 75 834 71 206 q 75 905 75 857 q 76 979 76 952 q 224 975 149 975 q 313 976 254 975 q 403 977 373 977 l 458 977 l 480 1138 z "},"ґ":{"ha":506,"x_min":56,"x_max":507,"o":"m 407 887 l 468 902 q 484 793 476 841 q 495 723 491 746 q 503 684 499 700 q 507 663 506 669 q 507 655 507 658 q 453 609 507 614 q 301 623 403 613 q 146 636 199 632 q 163 368 148 553 q 178 84 178 182 q 111 0 178 0 q 56 76 56 0 q 60 268 56 165 q 72 503 64 370 q 83 696 80 635 q 246 712 138 700 q 385 727 354 724 l 407 887 z "},"–":{"ha":873,"x_min":27,"x_max":846,"o":"m 38 410 l 27 483 q 397 490 247 486 q 776 499 547 495 q 827 481 807 498 q 846 446 846 465 q 831 418 846 430 q 787 403 817 406 q 446 406 609 403 q 38 410 282 410 z "},"—":{"ha":1249,"x_min":27,"x_max":1222,"o":"m 38 410 l 27 483 q 515 487 161 484 q 1153 495 868 490 q 1203 477 1184 494 q 1222 442 1222 461 q 1207 414 1222 426 q 1162 399 1192 401 q 633 404 985 399 q 38 410 282 410 z "},"‘":{"ha":227,"x_min":27,"x_max":199,"o":"m 198 1066 l 199 1024 q 103 932 103 991 q 109 901 103 922 q 134 903 127 903 q 175 869 160 903 q 190 802 190 834 q 177 753 190 772 q 141 735 164 735 q 58 795 90 735 q 27 914 27 854 q 70 1020 27 978 q 198 1066 113 1062 z "},"’":{"ha":227,"x_min":27,"x_max":199,"o":"m 30 735 l 27 777 q 125 869 125 811 q 119 902 125 880 q 94 899 100 899 q 53 934 68 899 q 38 1000 38 968 q 50 1048 38 1029 q 85 1066 62 1066 q 168 1006 137 1066 q 199 887 199 947 q 157 781 199 823 q 30 735 115 739 z "},"‚":{"ha":282,"x_min":56,"x_max":228,"o":"m 57 -163 l 56 -119 q 153 -27 153 -85 q 148 4 153 -18 q 121 1 129 1 q 80 36 95 1 q 65 103 65 71 q 78 151 65 133 q 114 170 91 170 q 197 110 165 170 q 228 -9 228 50 q 185 -116 228 -73 q 57 -163 142 -159 z "},"“":{"ha":486,"x_min":27,"x_max":458,"o":"m 457 1066 l 458 1024 q 361 932 361 990 q 366 901 361 922 q 393 903 385 903 q 434 869 419 903 q 449 802 449 834 q 436 753 449 772 q 400 735 423 735 q 317 795 349 735 q 286 914 286 854 q 329 1020 286 978 q 457 1066 372 1062 m 198 1076 l 199 1032 q 103 940 103 1000 q 109 909 103 930 q 134 911 127 911 q 175 877 160 911 q 190 810 190 842 q 177 762 190 780 q 141 743 164 743 q 58 803 90 743 q 27 922 27 863 q 70 1029 27 986 q 198 1076 113 1072 z "},"”":{"ha":486,"x_min":27,"x_max":458,"o":"m 30 743 l 27 787 q 101 825 77 803 q 125 878 125 846 q 119 910 125 888 q 94 907 100 907 q 53 942 68 907 q 38 1008 38 977 q 50 1057 38 1038 q 85 1076 62 1076 q 168 1015 137 1076 q 199 895 199 955 q 157 789 199 831 q 30 743 115 747 m 288 735 l 286 777 q 384 869 384 811 q 378 902 384 880 q 351 899 359 899 q 311 934 326 899 q 296 1000 296 968 q 309 1048 296 1029 q 345 1066 321 1066 q 427 1006 396 1066 q 458 887 458 947 q 416 781 458 823 q 288 735 373 739 z "},"„":{"ha":541,"x_min":56,"x_max":486,"o":"m 57 -163 l 56 -119 q 153 -27 153 -85 q 148 4 153 -18 q 121 1 129 1 q 80 36 95 1 q 65 103 65 71 q 78 151 65 133 q 114 170 91 170 q 197 110 165 170 q 228 -9 228 50 q 185 -116 228 -73 q 57 -163 142 -159 m 315 -171 l 313 -127 q 387 -90 363 -111 q 411 -37 411 -68 q 406 -4 411 -26 q 380 -7 387 -7 q 339 28 354 -7 q 324 95 324 62 q 336 143 324 125 q 372 161 349 161 q 454 102 423 161 q 486 -18 486 42 q 443 -124 486 -81 q 315 -171 400 -167 z "},"†":{"ha":476,"x_min":27,"x_max":449,"o":"m 42 613 l 27 674 l 203 689 l 203 705 q 206 1000 206 873 l 267 986 q 275 696 270 898 l 368 704 q 425 680 401 703 q 449 629 449 656 q 435 598 449 612 q 395 582 422 585 l 277 591 l 277 518 q 287 106 277 355 q 297 -161 297 -142 q 250 -203 285 -203 q 203 -183 225 -203 q 175 -134 180 -163 q 176 -121 175 -130 q 177 -84 176 -111 q 179 -16 178 -57 q 189 237 180 7 q 199 598 197 468 l 42 613 z "},"‡":{"ha":476,"x_min":27,"x_max":449,"o":"m 42 613 l 27 674 l 203 689 l 203 728 q 206 1000 206 899 l 267 986 q 275 696 270 898 l 368 704 q 425 680 401 703 q 449 629 449 656 q 435 598 449 612 q 395 582 422 585 l 282 591 l 282 228 l 435 216 l 449 155 l 283 138 q 297 -161 288 -60 q 250 -203 285 -203 q 203 -183 225 -203 q 175 -134 180 -163 q 176 -121 175 -130 q 177 -84 176 -111 q 179 -16 178 -57 q 184 130 182 83 l 109 123 q 51 148 75 125 q 27 198 27 171 q 41 229 27 216 q 81 245 54 243 l 189 236 q 199 598 197 457 l 42 613 z "},"•":{"ha":426,"x_min":56,"x_max":370,"o":"m 206 336 q 95 385 134 336 q 56 496 56 433 q 87 604 56 552 q 193 655 119 655 q 330 605 290 655 q 370 486 370 555 q 328 387 370 437 q 206 336 286 336 z "},"…":{"ha":826,"x_min":56,"x_max":770,"o":"m 104 170 q 165 138 141 170 q 190 65 190 106 q 176 17 190 35 q 137 -1 161 -1 q 77 30 99 -1 q 56 103 56 61 q 68 151 56 133 q 104 170 81 170 m 395 170 q 456 138 431 170 q 480 65 480 106 q 466 17 480 35 q 427 -1 452 -1 q 368 30 389 -1 q 346 103 346 61 q 359 151 346 133 q 395 170 372 170 m 685 170 q 746 138 722 170 q 770 65 770 106 q 756 17 770 35 q 718 -1 742 -1 q 658 30 680 -1 q 636 103 636 61 q 649 151 636 133 q 685 170 662 170 z "},"‰":{"ha":1373,"x_min":0,"x_max":1374,"o":"m 739 1048 l 811 1000 q 517 512 784 939 q 217 3 251 85 q 170 -20 198 -20 q 123 1 142 -20 q 103 50 103 22 q 111 81 103 65 q 413 524 176 163 q 739 1048 650 884 m 479 183 q 548 344 479 270 q 705 418 617 418 q 850 351 785 418 q 916 199 916 283 q 856 37 916 107 q 705 -34 796 -34 q 548 28 617 -34 q 479 183 479 90 m 704 330 q 607 286 651 330 q 563 189 563 243 q 605 96 563 134 q 704 58 647 58 q 797 99 758 58 q 836 198 836 140 q 795 289 836 248 q 704 330 755 330 m 0 846 q 69 1007 0 933 q 227 1081 138 1081 q 372 1014 307 1081 q 437 863 437 947 q 377 700 437 770 q 227 629 317 629 q 69 691 138 629 q 0 846 0 753 m 225 991 q 127 949 172 991 q 83 852 83 906 q 125 759 83 798 q 225 720 168 720 q 318 762 279 720 q 357 861 357 803 q 317 951 357 910 q 225 991 277 991 m 937 183 q 1006 344 937 270 q 1164 418 1076 418 q 1309 351 1244 418 q 1374 199 1374 283 q 1314 37 1374 107 q 1164 -34 1255 -34 q 1006 28 1076 -34 q 937 183 937 90 m 1162 330 q 1065 286 1109 330 q 1021 189 1021 243 q 1063 96 1021 134 q 1162 58 1105 58 q 1255 99 1217 58 q 1294 198 1294 140 q 1254 289 1294 248 q 1162 330 1214 330 z "},"‹":{"ha":647,"x_min":0,"x_max":647,"o":"m 598 83 l 602 -4 q 439 78 514 35 q 233 201 365 121 q 0 342 102 282 q 11 445 0 396 q 162 503 60 463 q 380 587 264 544 q 627 671 495 629 l 647 593 l 136 370 q 283 271 187 331 q 478 154 380 212 q 598 83 576 96 z "},"›":{"ha":647,"x_min":0,"x_max":647,"o":"m 45 -4 l 49 83 q 169 154 71 96 q 363 271 267 212 q 511 370 460 331 l 0 593 l 20 671 q 267 587 152 629 q 485 503 382 544 q 636 445 587 463 q 647 342 647 396 q 414 201 545 282 q 208 78 282 121 q 45 -4 133 35 z "},"₣":{"ha":663,"x_min":14,"x_max":650,"o":"m 221 -8 l 98 0 q 110 245 109 122 l 14 254 l 16 339 l 113 336 q 113 505 113 387 q 115 687 114 623 q 120 839 117 751 q 130 987 123 926 q 376 981 176 983 q 636 968 575 978 l 650 907 q 406 882 589 897 q 214 865 224 867 q 220 747 216 826 q 227 606 225 667 q 394 591 273 601 q 548 578 515 581 l 563 517 q 228 488 259 488 l 222 335 q 519 334 477 331 q 560 317 547 331 q 574 286 574 304 q 551 244 574 260 q 494 225 529 228 l 225 240 q 221 12 221 103 l 221 -8 z "},"₧":{"ha":1497,"x_min":56,"x_max":1451,"o":"m 1416 540 l 1405 481 q 1241 526 1297 526 q 1171 512 1190 526 q 1152 454 1152 498 q 1183 384 1152 412 q 1258 338 1214 355 q 1345 303 1302 321 q 1420 250 1389 285 q 1451 161 1451 214 q 1394 31 1451 83 q 1248 -22 1336 -20 q 1090 27 1157 -22 q 924 -14 1020 -14 q 835 9 871 -14 q 781 79 799 33 q 755 182 762 126 q 747 320 747 239 q 748 401 747 350 q 749 471 749 452 q 693 469 741 469 q 629 469 646 469 q 362 286 562 286 q 167 302 338 286 q 178 -5 170 203 q 130 -47 165 -47 q 83 -28 106 -47 q 56 20 61 -8 q 64 464 60 134 q 77 974 69 793 l 138 990 q 140 941 138 947 q 357 993 217 993 q 582 899 507 993 q 656 635 656 804 q 650 545 656 590 q 701 545 663 543 q 753 547 738 547 q 762 735 758 675 l 827 724 l 830 552 q 919 548 860 551 q 1008 543 978 545 l 1020 491 q 925 479 989 488 q 830 468 861 469 q 833 385 831 433 q 835 311 834 338 q 838 247 836 283 q 843 191 840 210 q 851 146 846 171 q 864 110 856 122 q 883 85 872 98 q 909 68 894 73 q 944 64 924 64 q 1012 76 970 64 q 1078 104 1054 88 q 1119 87 1095 98 q 1156 71 1143 76 q 1190 61 1169 65 q 1236 57 1211 57 q 1323 81 1290 57 q 1356 148 1356 104 q 1326 208 1356 184 q 1253 247 1297 232 q 1167 281 1210 262 q 1095 340 1124 300 q 1065 444 1065 381 q 1107 555 1065 509 q 1219 601 1150 601 q 1416 540 1298 601 m 152 850 l 163 427 q 335 387 237 387 q 494 457 429 387 q 559 629 559 528 q 491 827 559 739 q 321 916 423 916 q 152 850 239 916 z "},"€":{"ha":799,"x_min":27,"x_max":787,"o":"m 49 315 l 35 377 q 79 380 46 378 q 127 384 111 382 q 122 464 122 420 l 122 500 q 103 500 117 500 q 81 499 90 499 q 27 545 27 505 q 51 596 27 572 q 109 621 75 620 q 133 620 118 620 q 165 755 144 693 q 220 873 186 818 q 311 959 255 928 q 438 990 368 990 q 600 963 517 990 q 743 895 684 936 l 689 833 q 480 911 583 911 q 237 614 271 911 q 612 594 431 608 l 597 533 q 229 506 330 511 q 232 393 229 410 q 559 414 381 406 q 616 389 593 412 q 639 339 639 366 q 625 308 639 321 q 585 292 612 294 q 394 298 499 296 q 251 302 289 301 q 338 125 281 198 q 477 52 396 52 q 739 141 563 52 q 787 56 761 109 q 480 -62 616 -62 q 354 -31 412 -62 q 254 56 296 1 q 184 173 213 110 q 140 308 156 236 q 49 315 132 308 z "},"№":{"ha":1246,"x_min":56,"x_max":1219,"o":"m 56 38 l 73 977 l 146 977 l 590 134 l 590 241 q 605 978 590 651 l 682 963 q 707 -7 697 669 q 647 -19 678 -19 q 551 8 601 -19 q 345 381 468 136 q 171 718 222 627 q 173 381 172 625 q 178 11 174 137 q 130 -31 165 -31 q 83 -11 106 -31 q 56 38 61 9 m 766 751 q 836 912 766 838 q 993 986 905 986 q 1138 919 1073 986 q 1203 768 1203 852 q 1143 605 1203 675 q 993 534 1084 534 q 836 596 905 534 q 766 751 766 658 m 991 898 q 895 854 939 898 q 850 757 850 811 q 892 665 850 703 q 991 627 935 627 q 1084 667 1046 627 q 1123 766 1123 708 q 1083 857 1123 817 q 991 898 1043 898 m 812 366 l 799 427 l 1139 458 q 1196 434 1173 457 q 1219 384 1219 411 q 1206 353 1219 366 q 1165 336 1192 339 l 812 366 z "},"™":{"ha":857,"x_min":0,"x_max":859,"o":"m 8 932 l 0 968 q 174 977 60 971 q 343 986 288 983 q 377 970 362 985 q 392 941 392 956 q 358 914 392 918 l 206 922 q 211 741 210 859 q 214 574 212 624 q 184 548 206 548 q 158 560 171 548 q 141 589 145 572 q 165 924 152 760 l 8 932 m 719 960 l 774 964 q 859 556 812 861 q 830 552 842 552 q 802 556 817 552 q 774 713 791 601 q 746 873 758 826 q 639 635 703 807 q 597 629 604 629 q 576 632 593 629 q 538 736 564 662 q 496 850 513 811 q 399 553 419 655 l 366 563 q 411 775 370 624 q 460 975 452 926 q 482 973 469 975 q 502 971 495 971 q 560 831 524 935 q 609 701 597 728 q 719 960 673 882 z "}}}
